{
.formatVersion = 3;
axes = (
{
name = Weight;
tag = wght;
},
{
name = Width;
tag = wdth;
}
);
classes = (
{

glyphs = (
{
glyphname = .notdef;
layers = (
{
layerId = "CBB0ADCE-2C6B-4C18-8CFE-465C501777A2";
shapes = (
{
closed = 1;
nodes = (
(1094,0,l),
(1094,1400,l),
(80,1400,l),
(80,0,l)
);
},
{
closed = 1;
nodes = (
(240,1260,l),
(934,1260,l),
(934,140,l),
(240,140,l)
);
}
);
width = 1174;
},
{
layerId = "EBC752C6-95D9-4DED-AD5D-85333C04496E";
shapes = (
{
closed = 1;
nodes = (
(821,0,l),
(821,1400,l),
(60,1400,l),
(60,0,l)
);
},
{
closed = 1;
nodes = (
(180,1260,l),
(701,1260,l),
(701,140,l),
(180,140,l)
);
}
);
width = 881;
},
{
layerId = "A31F2A1B-1434-479A-A47A-09846372A702";
shapes = (
{
closed = 1;
nodes = (
(1094,0,l),
(1094,1400,l),
(80,1400,l),
(80,0,l)
);
},
{
closed = 1;
nodes = (
(240,1260,l),
(934,1260,l),
(934,140,l),
(240,140,l)
);
}
);
width = 1174;
},
{
layerId = "509FD652-F91B-436C-A4D5-5322A671A429";
shapes = (
{
closed = 1;
nodes = (
(821,0,l),
(821,1400,l),
(60,1400,l),
(60,0,l)
);
},
{
closed = 1;
nodes = (
(180,1260,l),
(701,1260,l),
(701,140,l),
(180,140,l)
);
}
);
width = 881;
},
{
layerId = "AD6BCF41-EF37-4505-B0B8-48EA3C63FE3E";
shapes = (
{
closed = 1;
nodes = (
(1094,0,l),
(1094,1400,l),
(80,1400,l),
(80,0,l)
);
},
{
closed = 1;
nodes = (
(240,1260,l),
(934,1260,l),
(934,140,l),
(240,140,l)
);
}
);
width = 1174;
},
{
layerId = "8F81F910-5DBA-457E-82E0-752C82078E80";
shapes = (
{
closed = 1;
nodes = (
(821,0,l),
(821,1400,l),
(60,1400,l),
(60,0,l)
);
},
{
closed = 1;
nodes = (
(180,1260,l),
(701,1260,l),
(701,140,l),
(180,140,l)
);
}
);
width = 881;
}
);
leftKerningGroup = .notdef;
rightKerningGroup = .notdef;
},
{
glyphname = exclam;
layers = (
{
layerId = "15911918-BD0E-422E-8741-0FDE60C5A449";
name = "#instance";
shapes = (
{
closed = 1;
nodes = (
(125,1040,l),
(125,376,l),
(163,376,l),
(163,1040,l),
(163,1364,l),
(125,1364,l)
);
},
{
closed = 1;
nodes = (
(123,90,o),
(105,66,o),
(105,38,cs),
(105,10,o),
(123,-14,o),
(144,-14,cs),
(165,-14,o),
(183,10,o),
(183,38,cs),
(183,66,o),
(165,90,o),
(144,90,cs)
);
}
);
width = 288;
},
{
layerId = "CBB0ADCE-2C6B-4C18-8CFE-465C501777A2";
shapes = (
{
closed = 1;
nodes = (
(80,1034,l),
(160,516,l),
(428,516,l),
(508,1034,l),
(508,1402,l),
(80,1402,l)
);
},
{
closed = 1;
nodes = (
(174,394,o),
(90,310,o),
(90,190,cs),
(90,68,o),
(174,-16,o),
(294,-16,cs),
(416,-16,o),
(500,68,o),
(500,190,cs),
(500,310,o),
(416,394,o),
(294,394,cs)
);
}
);
width = 588;
},
{
layerId = "EBC752C6-95D9-4DED-AD5D-85333C04496E";
shapes = (
{
closed = 1;
nodes = (
(56,1034,l),
(116,516,l),
(325,516,l),
(385,1034,l),
(385,1402,l),
(56,1402,l)
);
},
{
closed = 1;
nodes = (
(131,394,o),
(68,310,o),
(68,190,cs),
(68,68,o),
(131,-16,o),
(221,-16,cs),
(312,-16,o),
(375,68,o),
(375,190,cs),
(375,310,o),
(312,394,o),
(221,394,cs)
);
}
);
width = 441;
},
{
layerId = "A31F2A1B-1434-479A-A47A-09846372A702";
shapes = (
{
closed = 1;
nodes = (
(100,1038,l),
(138,440,l),
(282,440,l),
(320,1038,l),
(320,1382,l),
(100,1382,l)
);
},
{
closed = 1;
nodes = (
(138,236,o),
(84,184,o),
(84,110,cs),
(84,36,o),
(138,-18,o),
(210,-18,cs),
(282,-18,o),
(336,36,o),
(336,110,cs),
(336,184,o),
(282,236,o),
(210,236,cs)
);
}
);
width = 420;
},
{
layerId = "509FD652-F91B-436C-A4D5-5322A671A429";
shapes = (
{
closed = 1;
nodes = (
(71,1038,l),
(100,440,l),
(216,440,l),
(244,1038,l),
(244,1382,l),
(71,1382,l)
);
},
{
closed = 1;
nodes = (
(104,236,o),
(63,184,o),
(63,110,cs),
(63,36,o),
(104,-18,o),
(158,-18,cs),
(212,-18,o),
(252,36,o),
(252,110,cs),
(252,184,o),
(212,236,o),
(158,236,cs)
);
}
);
width = 315;
},
{
layerId = "AD6BCF41-EF37-4505-B0B8-48EA3C63FE3E";
shapes = (
{
closed = 1;
nodes = (
(172,1040,l),
(172,376,l),
(212,376,l),
(212,1040,l),
(212,1364,l),
(172,1364,l)
);
},
{
closed = 1;
nodes = (
(164,90,o),
(140,66,o),
(140,38,cs),
(140,10,o),
(164,-14,o),
(192,-14,cs),
(220,-14,o),
(244,10,o),
(244,38,cs),
(244,66,o),
(220,90,o),
(192,90,cs)
);
}
);
width = 384;
},
{
layerId = "8F81F910-5DBA-457E-82E0-752C82078E80";
shapes = (
{
closed = 1;
nodes = (
(125,1040,l),
(125,376,l),
(163,376,l),
(163,1040,l),
(163,1364,l),
(125,1364,l)
);
},
{
closed = 1;
nodes = (
(123,90,o),
(105,66,o),
(105,38,cs),
(105,10,o),
(123,-14,o),
(144,-14,cs),
(165,-14,o),
(183,10,o),
(183,38,cs),
(183,66,o),
(165,90,o),
(144,90,cs)
);
}
);
width = 288;
}
);
leftKerningGroup = exclam;
rightKerningGroup = exclam;
unicode = 33;
},
{
glyphname = numbersign;
layers = (
{
layerId = "15911918-BD0E-422E-8741-0FDE60C5A449";
name = "#instance";
shapes = (
{
closed = 1;
nodes = (
(71,416,l),
(942,416,l),
(941,456,l),
(69,456,l)
);
},
{
closed = 1;
nodes = (
(119,938,l),
(990,938,l),
(989,978,l),
(117,978,l)
);
},
{
closed = 1;
nodes = (
(251,0,l),
(289,0,l),
(418,1400,l),
(380,1400,l)
);
},
{
closed = 1;
nodes = (
(643,0,l),
(681,0,l),
(810,1400,l),
(772,1400,l)
);
}
);
width = 1062;
},
{
layerId = "CBB0ADCE-2C6B-4C18-8CFE-465C501777A2";
shapes = (
{
closed = 1;
nodes = (
(8,276,l),
(1376,276,l),
(1414,582,l),
(46,582,l)
);
},
{
closed = 1;
nodes = (
(76,800,l),
(1444,800,l),
(1480,1106,l),
(112,1106,l)
);
},
{
closed = 1;
nodes = (
(234,0,l),
(554,0,l),
(726,1400,l),
(408,1400,l)
);
},
{
closed = 1;
nodes = (
(762,0,l),
(1082,0,l),
(1256,1400,l),
(936,1400,l)
);
}
);
width = 1488;
},
{
layerId = "EBC752C6-95D9-4DED-AD5D-85333C04496E";
shapes = (
{
closed = 1;
nodes = (
(6,276,l),
(1032,276,l),
(1061,582,l),
(35,582,l)
);
},
{
closed = 1;
nodes = (
(57,800,l),
(1083,800,l),
(1110,1106,l),
(84,1106,l)
);
},
{
closed = 1;
nodes = (
(172,0,l),
(420,0,l),
(549,1400,l),
(302,1400,l)
);
},
{
closed = 1;
nodes = (
(568,0,l),
(816,0,l),
(946,1400,l),
(698,1400,l)
);
}
);
width = 1116;
},
{
layerId = "A31F2A1B-1434-479A-A47A-09846372A702";
shapes = (
{
closed = 1;
nodes = (
(54,352,l),
(1312,352,l),
(1328,514,l),
(70,514,l)
);
},
{
closed = 1;
nodes = (
(120,874,l),
(1378,874,l),
(1392,1036,l),
(136,1036,l)
);
},
{
closed = 1;
nodes = (
(292,0,l),
(460,0,l),
(634,1400,l),
(464,1400,l)
);
},
{
closed = 1;
nodes = (
(816,0,l),
(984,0,l),
(1158,1400,l),
(988,1400,l)
);
}
);
width = 1450;
},
{
layerId = "509FD652-F91B-436C-A4D5-5322A671A429";
shapes = (
{
closed = 1;
nodes = (
(41,352,l),
(984,352,l),
(996,514,l),
(53,514,l)
);
},
{
closed = 1;
nodes = (
(90,874,l),
(1034,874,l),
(1044,1036,l),
(102,1036,l)
);
},
{
closed = 1;
nodes = (
(215,0,l),
(349,0,l),
(480,1400,l),
(344,1400,l)
);
},
{
closed = 1;
nodes = (
(608,0,l),
(742,0,l),
(873,1400,l),
(737,1400,l)
);
}
);
width = 1088;
},
{
layerId = "AD6BCF41-EF37-4505-B0B8-48EA3C63FE3E";
shapes = (
{
closed = 1;
nodes = (
(94,416,l),
(1256,416,l),
(1254,456,l),
(92,456,l)
);
},
{
closed = 1;
nodes = (
(158,938,l),
(1320,938,l),
(1318,978,l),
(156,978,l)
);
},
{
closed = 1;
nodes = (
(340,0,l),
(380,0,l),
(552,1400,l),
(512,1400,l)
);
},
{
closed = 1;
nodes = (
(862,0,l),
(902,0,l),
(1074,1400,l),
(1034,1400,l)
);
}
);
width = 1416;
},
{
layerId = "8F81F910-5DBA-457E-82E0-752C82078E80";
shapes = (
{
closed = 1;
nodes = (
(71,416,l),
(942,416,l),
(941,456,l),
(69,456,l)
);
},
{
closed = 1;
nodes = (
(119,938,l),
(990,938,l),
(989,978,l),
(117,978,l)
);
},
{
closed = 1;
nodes = (
(251,0,l),
(289,0,l),
(418,1400,l),
(380,1400,l)
);
},
{
closed = 1;
nodes = (
(643,0,l),
(681,0,l),
(810,1400,l),
(772,1400,l)
);
}
);
width = 1062;
}
);
leftKerningGroup = numbersign;
rightKerningGroup = numbersign;
unicode = 35;
},
{
glyphname = dollar;
layers = (
{
layerId = "15911918-BD0E-422E-8741-0FDE60C5A449";
name = "#instance";
shapes = (
{
closed = 1;
nodes = (
(416,1374,l),
(454,1374,l),
(454,1608,l),
(416,1608,l)
);
},
{
closed = 1;
nodes = (
(416,-238,l),
(454,-238,l),
(454,22,l),
(416,22,l)
);
},
{
closed = 1;
nodes = (
(734,1306,l),
(656,1372,o),
(548,1408,o),
(453,1408,cs),
(308,1408,o),
(115,1330,o),
(115,1096,cs),
(115,580,o),
(743,826,o),
(743,338,cs),
(743,108,o),
(564,34,o),
(420,34,cs),
(299,34,o),
(167,100,o),
(83,220,c),
(62,192,l),
(152,68,o),
(291,-6,o),
(420,-6,cs),
(582,-6,o),
(781,82,o),
(781,338,cs),
(781,866,o),
(153,620,o),
(153,1094,cs),
(153,1304,o),
(326,1368,o),
(453,1368,cs),
(542,1368,o),
(645,1338,o),
(719,1274,c)
);
}
);
width = 890;
},
{
layerId = "CBB0ADCE-2C6B-4C18-8CFE-465C501777A2";
shapes = (
{
closed = 1;
nodes = (
(526,1158,l),
(858,1158,l),
(858,1728,l),
(526,1728,l)
);
},
{
closed = 1;
nodes = (
(526,-330,l),
(858,-330,l),
(858,236,l),
(526,236,l)
);
},
{
closed = 1;
nodes = (
(1316,1268,l),
(1158,1368,o),
(929,1436,o),
(707,1436,cs),
(343,1436,o),
(108,1258,o),
(108,975,cs),
(108,473,o),
(833,597,o),
(833,407,cs),
(833,353,o),
(789,330,o),
(721,330,cs),
(579,330,o),
(332,427,o),
(188,551,c),
(16,202,l),
(202,58,o),
(473,-26,o),
(717,-26,cs),
(1032,-26,o),
(1306,116,o),
(1306,431,cs),
(1306,947,o),
(581,833,o),
(581,1018,cs),
(581,1062,o),
(615,1080,o),
(667,1080,cs),
(789,1080,o),
(1006,997,o),
(1148,915,c)
);
}
);
width = 1328;
},
{
layerId = "EBC752C6-95D9-4DED-AD5D-85333C04496E";
shapes = (
{
closed = 1;
nodes = (
(391,1158,l),
(648,1158,l),
(648,1728,l),
(391,1728,l)
);
},
{
closed = 1;
nodes = (
(391,-330,l),
(648,-330,l),
(648,236,l),
(391,236,l)
);
},
{
closed = 1;
nodes = (
(987,1268,l),
(869,1368,o),
(697,1436,o),
(530,1436,cs),
(257,1436,o),
(77,1258,o),
(77,975,cs),
(77,473,o),
(621,597,o),
(621,407,cs),
(621,353,o),
(592,330,o),
(541,330,cs),
(434,330,o),
(249,427,o),
(141,551,c),
(12,202,l),
(152,58,o),
(355,-26,o),
(538,-26,cs),
(774,-26,o),
(984,116,o),
(984,431,cs),
(984,947,o),
(440,833,o),
(440,1018,cs),
(440,1062,o),
(461,1080,o),
(500,1080,cs),
(592,1080,o),
(755,997,o),
(861,915,c)
);
}
);
width = 996;
},
{
layerId = "A31F2A1B-1434-479A-A47A-09846372A702";
shapes = (
{
closed = 1;
nodes = (
(550,1266,l),
(726,1266,l),
(726,1662,l),
(550,1662,l)
);
},
{
closed = 1;
nodes = (
(550,-280,l),
(726,-280,l),
(726,142,l),
(550,142,l)
);
},
{
closed = 1;
nodes = (
(1134,1274,l),
(992,1368,o),
(814,1418,o),
(644,1418,cs),
(404,1418,o),
(134,1310,o),
(134,1030,cs),
(134,526,o),
(890,706,o),
(890,380,cs),
(890,238,o),
(744,198,o),
(628,198,cs),
(454,198,o),
(278,288,o),
(154,404,c),
(52,210,l),
(206,68,o),
(414,-14,o),
(624,-14,cs),
(874,-14,o),
(1152,104,o),
(1152,392,cs),
(1152,900,o),
(398,730,o),
(398,1048,cs),
(398,1170,o),
(526,1204,o),
(626,1204,cs),
(768,1204,o),
(916,1150,o),
(1036,1076,c)
);
}
);
width = 1244;
},
{
layerId = "509FD652-F91B-436C-A4D5-5322A671A429";
shapes = (
{
closed = 1;
nodes = (
(409,1266,l),
(549,1266,l),
(549,1662,l),
(409,1662,l)
);
},
{
closed = 1;
nodes = (
(409,-280,l),
(549,-280,l),
(549,142,l),
(409,142,l)
);
},
{
closed = 1;
nodes = (
(851,1274,l),
(744,1368,o),
(611,1418,o),
(483,1418,cs),
(303,1418,o),
(97,1310,o),
(97,1030,cs),
(97,526,o),
(664,706,o),
(664,380,cs),
(664,238,o),
(558,198,o),
(471,198,cs),
(341,198,o),
(209,288,o),
(116,404,c),
(39,210,l),
(155,68,o),
(311,-14,o),
(468,-14,cs),
(656,-14,o),
(868,104,o),
(868,392,cs),
(868,900,o),
(303,730,o),
(303,1048,cs),
(303,1170,o),
(395,1204,o),
(470,1204,cs),
(576,1204,o),
(687,1150,o),
(777,1076,c)
);
}
);
width = 933;
},
{
layerId = "AD6BCF41-EF37-4505-B0B8-48EA3C63FE3E";
shapes = (
{
closed = 1;
nodes = (
(560,1374,l),
(600,1374,l),
(600,1608,l),
(560,1608,l)
);
},
{
closed = 1;
nodes = (
(560,-238,l),
(600,-238,l),
(600,22,l),
(560,22,l)
);
},
{
closed = 1;
nodes = (
(978,1306,l),
(874,1372,o),
(730,1408,o),
(604,1408,cs),
(410,1408,o),
(158,1330,o),
(158,1096,cs),
(158,580,o),
(996,826,o),
(996,338,cs),
(996,108,o),
(752,34,o),
(560,34,cs),
(398,34,o),
(222,100,o),
(110,220,c),
(82,192,l),
(202,68,o),
(388,-6,o),
(560,-6,cs),
(776,-6,o),
(1036,82,o),
(1036,338,cs),
(1036,866,o),
(198,620,o),
(198,1094,cs),
(198,1304,o),
(434,1368,o),
(604,1368,cs),
(722,1368,o),
(860,1338,o),
(958,1274,c)
);
}
);
width = 1186;
},
{
layerId = "8F81F910-5DBA-457E-82E0-752C82078E80";
shapes = (
{
closed = 1;
nodes = (
(416,1374,l),
(454,1374,l),
(454,1608,l),
(416,1608,l)
);
},
{
closed = 1;
nodes = (
(416,-238,l),
(454,-238,l),
(454,22,l),
(416,22,l)
);
},
{
closed = 1;
nodes = (
(734,1306,l),
(656,1372,o),
(548,1408,o),
(453,1408,cs),
(308,1408,o),
(115,1330,o),
(115,1096,cs),
(115,580,o),
(743,826,o),
(743,338,cs),
(743,108,o),
(564,34,o),
(420,34,cs),
(299,34,o),
(167,100,o),
(83,220,c),
(62,192,l),
(152,68,o),
(291,-6,o),
(420,-6,cs),
(582,-6,o),
(781,82,o),
(781,338,cs),
(781,866,o),
(153,620,o),
(153,1094,cs),
(153,1304,o),
(326,1368,o),
(453,1368,cs),
(542,1368,o),
(645,1338,o),
(719,1274,c)
);
}
);
width = 890;
}
);
leftKerningGroup = S;
rightKerningGroup = S;
unicode = 36;
},
{
glyphname = percent;
layers = (
{
layerId = "15911918-BD0E-422E-8741-0FDE60C5A449";
name = "#instance";
shapes = (
{
closed = 1;
nodes = (
(215,1406,o),
(139,1270,o),
(139,1032,cs),
(139,790,o),
(215,658,o),
(342,658,cs),
(470,658,o),
(547,790,o),
(547,1032,cs),
(547,1270,o),
(470,1406,o),
(342,1406,cs)
);
},
{
closed = 1;
nodes = (
(453,1372,o),
(509,1252,o),
(509,1032,cs),
(509,812,o),
(453,694,o),
(342,694,cs),
(233,694,o),
(177,812,o),
(177,1032,cs),
(177,1252,o),
(233,1372,o),
(342,1372,cs)
);
},
{
closed = 1;
nodes = (
(211,0,l),
(258,0,l),
(1065,1398,l),
(1018,1398,l)
);
},
{
closed = 1;
nodes = (
(818,740,o),
(742,604,o),
(742,366,cs),
(742,124,o),
(818,-8,o),
(945,-8,cs),
(1073,-8,o),
(1150,124,o),
(1150,366,cs),
(1150,604,o),
(1073,740,o),
(945,740,cs)
);
},
{
closed = 1;
nodes = (
(1056,706,o),
(1112,586,o),
(1112,366,cs),
(1112,146,o),
(1056,28,o),
(945,28,cs),
(836,28,o),
(780,146,o),
(780,366,cs),
(780,586,o),
(836,706,o),
(945,706,cs)
);
}
);
width = 1287;
},
{
layerId = "CBB0ADCE-2C6B-4C18-8CFE-465C501777A2";
shapes = (
{
closed = 1;
nodes = (
(188,1410,o),
(48,1256,o),
(48,1022,cs),
(48,786,o),
(188,630,o),
(398,630,cs),
(606,630,o),
(744,786,o),
(744,1022,cs),
(744,1256,o),
(606,1410,o),
(398,1410,cs)
);
},
{
closed = 1;
nodes = (
(442,1180,o),
(476,1114,o),
(476,1022,cs),
(476,924,o),
(442,862,o),
(398,862,cs),
(352,862,o),
(320,924,o),
(320,1022,cs),
(320,1114,o),
(352,1180,o),
(398,1180,cs)
);
},
{
closed = 1;
nodes = (
(260,0,l),
(558,0,l),
(1532,1402,l),
(1234,1402,l)
);
},
{
closed = 1;
nodes = (
(1210,770,o),
(1070,616,o),
(1070,382,cs),
(1070,146,o),
(1210,-10,o),
(1420,-10,cs),
(1628,-10,o),
(1766,146,o),
(1766,382,cs),
(1766,616,o),
(1628,770,o),
(1420,770,cs)
);
},
{
closed = 1;
nodes = (
(1464,540,o),
(1498,474,o),
(1498,382,cs),
(1498,284,o),
(1464,222,o),
(1420,222,cs),
(1374,222,o),
(1342,284,o),
(1342,382,cs),
(1342,474,o),
(1374,540,o),
(1420,540,cs)
);
}
);
width = 1816;
},
{
layerId = "EBC752C6-95D9-4DED-AD5D-85333C04496E";
shapes = (
{
closed = 1;
nodes = (
(141,1410,o),
(32,1256,o),
(32,1022,cs),
(32,786,o),
(141,630,o),
(299,630,cs),
(455,630,o),
(562,786,o),
(562,1022,cs),
(562,1256,o),
(455,1410,o),
(299,1410,cs)
);
},
{
closed = 1;
nodes = (
(332,1180,o),
(353,1114,o),
(353,1022,cs),
(353,924,o),
(332,862,o),
(299,862,cs),
(264,862,o),
(244,924,o),
(244,1022,cs),
(244,1114,o),
(264,1180,o),
(299,1180,cs)
);
},
{
closed = 1;
nodes = (
(192,0,l),
(424,0,l),
(1154,1402,l),
(923,1402,l)
);
},
{
closed = 1;
nodes = (
(908,770,o),
(799,616,o),
(799,382,cs),
(799,146,o),
(908,-10,o),
(1065,-10,cs),
(1221,-10,o),
(1329,146,o),
(1329,382,cs),
(1329,616,o),
(1221,770,o),
(1065,770,cs)
);
},
{
closed = 1;
nodes = (
(1098,540,o),
(1120,474,o),
(1120,382,cs),
(1120,284,o),
(1098,222,o),
(1065,222,cs),
(1031,222,o),
(1011,284,o),
(1011,382,cs),
(1011,474,o),
(1031,540,o),
(1065,540,cs)
);
}
);
width = 1362;
},
{
layerId = "A31F2A1B-1434-479A-A47A-09846372A702";
shapes = (
{
closed = 1;
nodes = (
(230,1410,o),
(114,1268,o),
(114,1034,cs),
(114,798,o),
(230,656,o),
(418,656,cs),
(606,656,o),
(722,798,o),
(722,1034,cs),
(722,1268,o),
(606,1410,o),
(418,1410,cs)
);
},
{
closed = 1;
nodes = (
(514,1284,o),
(572,1190,o),
(572,1034,cs),
(572,872,o),
(514,782,o),
(418,782,cs),
(322,782,o),
(266,872,o),
(266,1034,cs),
(266,1190,o),
(322,1284,o),
(418,1284,cs)
);
},
{
closed = 1;
nodes = (
(260,0,l),
(442,0,l),
(1470,1400,l),
(1290,1400,l)
);
},
{
closed = 1;
nodes = (
(1130,750,o),
(1014,608,o),
(1014,374,cs),
(1014,138,o),
(1130,-4,o),
(1318,-4,cs),
(1506,-4,o),
(1622,138,o),
(1622,374,cs),
(1622,608,o),
(1506,750,o),
(1318,750,cs)
);
},
{
closed = 1;
nodes = (
(1414,624,o),
(1472,530,o),
(1472,374,cs),
(1472,212,o),
(1414,122,o),
(1318,122,cs),
(1222,122,o),
(1166,212,o),
(1166,374,cs),
(1166,530,o),
(1222,624,o),
(1318,624,cs)
);
}
);
width = 1736;
},
{
layerId = "509FD652-F91B-436C-A4D5-5322A671A429";
shapes = (
{
closed = 1;
nodes = (
(173,1410,o),
(82,1268,o),
(82,1034,cs),
(82,798,o),
(173,656,o),
(314,656,cs),
(455,656,o),
(546,798,o),
(546,1034,cs),
(546,1268,o),
(455,1410,o),
(314,1410,cs)
);
},
{
closed = 1;
nodes = (
(386,1284,o),
(425,1190,o),
(425,1034,cs),
(425,872,o),
(386,782,o),
(314,782,cs),
(242,782,o),
(204,872,o),
(204,1034,cs),
(204,1190,o),
(242,1284,o),
(314,1284,cs)
);
},
{
closed = 1;
nodes = (
(192,0,l),
(337,0,l),
(1108,1400,l),
(965,1400,l)
);
},
{
closed = 1;
nodes = (
(848,750,o),
(757,608,o),
(757,374,cs),
(757,138,o),
(848,-4,o),
(989,-4,cs),
(1130,-4,o),
(1221,138,o),
(1221,374,cs),
(1221,608,o),
(1130,750,o),
(989,750,cs)
);
},
{
closed = 1;
nodes = (
(1061,624,o),
(1100,530,o),
(1100,374,cs),
(1100,212,o),
(1061,122,o),
(989,122,cs),
(917,122,o),
(879,212,o),
(879,374,cs),
(879,530,o),
(917,624,o),
(989,624,cs)
);
}
);
width = 1302;
},
{
layerId = "AD6BCF41-EF37-4505-B0B8-48EA3C63FE3E";
shapes = (
{
closed = 1;
nodes = (
(286,1406,o),
(190,1270,o),
(190,1032,cs),
(190,790,o),
(286,658,o),
(456,658,cs),
(626,658,o),
(724,790,o),
(724,1032,cs),
(724,1270,o),
(626,1406,o),
(456,1406,cs)
);
},
{
closed = 1;
nodes = (
(604,1372,o),
(684,1252,o),
(684,1032,cs),
(684,812,o),
(604,694,o),
(456,694,cs),
(310,694,o),
(230,812,o),
(230,1032,cs),
(230,1252,o),
(310,1372,o),
(456,1372,cs)
);
},
{
closed = 1;
nodes = (
(286,0,l),
(338,0,l),
(1414,1398,l),
(1362,1398,l)
);
},
{
closed = 1;
nodes = (
(1090,740,o),
(994,604,o),
(994,366,cs),
(994,124,o),
(1090,-8,o),
(1260,-8,cs),
(1430,-8,o),
(1528,124,o),
(1528,366,cs),
(1528,604,o),
(1430,740,o),
(1260,740,cs)
);
},
{
closed = 1;
nodes = (
(1408,706,o),
(1488,586,o),
(1488,366,cs),
(1488,146,o),
(1408,28,o),
(1260,28,cs),
(1114,28,o),
(1034,146,o),
(1034,366,cs),
(1034,586,o),
(1114,706,o),
(1260,706,cs)
);
}
);
width = 1716;
},
{
layerId = "8F81F910-5DBA-457E-82E0-752C82078E80";
shapes = (
{
closed = 1;
nodes = (
(215,1406,o),
(139,1270,o),
(139,1032,cs),
(139,790,o),
(215,658,o),
(342,658,cs),
(470,658,o),
(547,790,o),
(547,1032,cs),
(547,1270,o),
(470,1406,o),
(342,1406,cs)
);
},
{
closed = 1;
nodes = (
(453,1372,o),
(509,1252,o),
(509,1032,cs),
(509,812,o),
(453,694,o),
(342,694,cs),
(233,694,o),
(177,812,o),
(177,1032,cs),
(177,1252,o),
(233,1372,o),
(342,1372,cs)
);
},
{
closed = 1;
nodes = (
(211,0,l),
(258,0,l),
(1065,1398,l),
(1018,1398,l)
);
},
{
closed = 1;
nodes = (
(818,740,o),
(742,604,o),
(742,366,cs),
(742,124,o),
(818,-8,o),
(945,-8,cs),
(1073,-8,o),
(1150,124,o),
(1150,366,cs),
(1150,604,o),
(1073,740,o),
(945,740,cs)
);
},
{
closed = 1;
nodes = (
(1056,706,o),
(1112,586,o),
(1112,366,cs),
(1112,146,o),
(1056,28,o),
(945,28,cs),
(836,28,o),
(780,146,o),
(780,366,cs),
(780,586,o),
(836,706,o),
(945,706,cs)
);
}
);
width = 1287;
}
);
leftKerningGroup = percent;
rightKerningGroup = percent;
unicode = 37;
},
{
color = 0;
glyphname = ampersand;
layers = (
{
layerId = "15911918-BD0E-422E-8741-0FDE60C5A449";
name = "#instance";
shapes = (
{
closed = 1;
nodes = (
(941,6,l),
(383,818,ls),
(279,970,o),
(258,1040,o),
(258,1136,cs),
(258,1274,o),
(332,1368,o),
(450,1368,cs),
(524,1368,o),
(572,1338,o),
(624,1262,c),
(647,1290,l),
(593,1370,o),
(531,1406,o),
(450,1406,cs),
(317,1406,o),
(220,1298,o),
(220,1136,cs),
(220,1030,o),
(249,954,o),
(356,800,c),
(918,-20,l)
);
},
{
closed = 1;
nodes = (
(377,790,l),
(156,618,o),
(80,492,o),
(80,336,cs),
(80,128,o),
(219,-6,o),
(410,-6,cs),
(645,-6,o),
(809,194,o),
(866,634,c),
(837,640,l),
(786,224,o),
(633,30,o),
(410,30,cs),
(236,30,o),
(118,148,o),
(118,336,cs),
(118,482,o),
(177,590,o),
(396,762,c)
);
}
);
width = 951;
},
{
layerId = "A2232FC4-B7B0-4431-B8B0-E0AFEA3FDB24";
associatedMasterId = "CBB0ADCE-2C6B-4C18-8CFE-465C501777A2";
name = "22. 7. 23 14:30";
shapes = (
{
closed = 1;
nodes = (
(1494,248,l),
(758,874,ls),
(640,974,o),
(614,1006,o),
(614,1052,cs),
(614,1098,o),
(662,1132,o),
(750,1132,cs),
(772,1132,o),
(792,1132,o),
(812,1130,c),
(870,1420,l),
(830,1422,o),
(790,1424,o),
(748,1424,cs),
(420,1424,o),
(204,1270,o),
(204,1046,cs),
(204,928,o),
(268,814,o),
(404,702,cs),
(1252,-26,l)
);
},
{
closed = 1;
nodes = (
(550,880,l),
(382,812,o),
(52,684,o),
(52,374,cs),
(52,140,o),
(300,-32,o),
(636,-32,cs),
(1068,-32,o),
(1402,262,o),
(1534,784,c),
(1132,784,l),
(1078,482,o),
(884,304,o),
(670,304,cs),
(558,304,o),
(494,358,o),
(494,424,cs),
(494,554,o),
(650,604,o),
(750,644,c)
);
}
);
width = 1554;
},
{
background = {
shapes = (
{
closed = 1;
nodes = (
(1494,248,l),
(758,874,ls),
(640,974,o),
(614,1006,o),
(614,1052,cs),
(614,1100,o),
(650,1132,o),
(702,1132,cs),
(778,1132,o),
(824,1080,o),
(862,1012,c),
(1172,1198,l),
(1082,1358,o),
(912,1424,o),
(706,1424,cs),
(420,1424,o),
(204,1270,o),
(204,1046,cs),
(204,928,o),
(270,816,o),
(404,702,cs),
(1252,-26,l)
);
},
{
closed = 1;
nodes = (
(550,880,l),
(300,778,o),
(52,666,o),
(52,384,cs),
(52,114,o),
(300,-32,o),
(636,-32,cs),
(1068,-32,o),
(1402,262,o),
(1494,676,c),
(1132,784,l),
(1078,482,o),
(884,304,o),
(690,304,cs),
(558,304,o),
(494,358,o),
(494,430,cs),
(494,554,o),
(626,600,o),
(750,644,c)
);
}
);
};
layerId = "CBB0ADCE-2C6B-4C18-8CFE-465C501777A2";
shapes = (
{
closed = 1;
nodes = (
(1494,248,l),
(758,874,ls),
(640,974,o),
(614,1006,o),
(614,1052,cs),
(614,1100,o),
(650,1132,o),
(706,1132,cs),
(780,1132,o),
(826,1080,o),
(870,1018,c),
(1172,1198,l),
(1082,1358,o),
(912,1424,o),
(706,1424,cs),
(420,1424,o),
(204,1270,o),
(204,1046,cs),
(204,928,o),
(270,816,o),
(404,702,cs),
(1252,-26,l)
);
},
{
closed = 1;
nodes = (
(550,880,l),
(300,778,o),
(52,666,o),
(52,384,cs),
(52,114,o),
(300,-32,o),
(636,-32,cs),
(1068,-32,o),
(1402,262,o),
(1494,676,c),
(1132,784,l),
(1078,482,o),
(884,304,o),
(690,304,cs),
(558,304,o),
(494,358,o),
(494,430,cs),
(494,554,o),
(626,600,o),
(750,644,c)
);
}
);
width = 1554;
},
{
background = {
shapes = (
{
closed = 1;
nodes = (
(1494,248,l),
(758,874,ls),
(640,974,o),
(614,1006,o),
(614,1052,cs),
(614,1100,o),
(650,1132,o),
(702,1132,cs),
(778,1132,o),
(824,1080,o),
(862,1012,c),
(1172,1198,l),
(1082,1358,o),
(912,1424,o),
(706,1424,cs),
(420,1424,o),
(204,1270,o),
(204,1046,cs),
(204,928,o),
(270,816,o),
(404,702,cs),
(1252,-26,l)
);
},
{
closed = 1;
nodes = (
(550,880,l),
(300,778,o),
(52,666,o),
(52,384,cs),
(52,114,o),
(300,-32,o),
(636,-32,cs),
(1068,-32,o),
(1402,262,o),
(1494,676,c),
(1132,784,l),
(1078,482,o),
(884,304,o),
(690,304,cs),
(558,304,o),
(494,358,o),
(494,430,cs),
(494,554,o),
(626,600,o),
(750,644,c)
);
}
);
};
layerId = "EBC752C6-95D9-4DED-AD5D-85333C04496E";
shapes = (
{
closed = 1;
nodes = (
(1121,248,l),
(569,874,ls),
(480,974,o),
(465,1006,o),
(465,1052,cs),
(465,1100,o),
(488,1132,o),
(530,1132,cs),
(585,1132,o),
(620,1080,o),
(653,1018,c),
(879,1198,l),
(812,1358,o),
(684,1424,o),
(530,1424,cs),
(315,1424,o),
(149,1270,o),
(149,1046,cs),
(149,928,o),
(203,816,o),
(303,702,cs),
(939,-26,l)
);
},
{
closed = 1;
nodes = (
(413,880,l),
(225,778,o),
(35,666,o),
(35,384,cs),
(35,114,o),
(225,-32,o),
(477,-32,cs),
(801,-32,o),
(1052,262,o),
(1121,676,c),
(849,784,l),
(809,482,o),
(663,304,o),
(518,304,cs),
(419,304,o),
(375,358,o),
(375,430,cs),
(375,554,o),
(470,600,o),
(563,644,c)
);
}
);
width = 1166;
},
{
background = {
shapes = (
{
closed = 1;
nodes = (
(1358,124,l),
(618,846,ls),
(490,972,o),
(458,1024,o),
(458,1096,cs),
(458,1188,o),
(518,1254,o),
(644,1254,cs),
(734,1254,o),
(800,1210,o),
(844,1150,c),
(982,1256,l),
(902,1366,o),
(798,1414,o),
(644,1414,cs),
(418,1414,o),
(256,1284,o),
(256,1092,cs),
(256,980,o),
(306,888,o),
(444,752,cs),
(1236,-22,l)
);
},
{
closed = 1;
nodes = (
(490,818,l),
(202,688,o),
(86,542,o),
(86,350,cs),
(86,134,o),
(296,-18,o),
(586,-18,cs),
(958,-18,o),
(1218,218,o),
(1302,664,c),
(1122,700,l),
(1058,338,o),
(902,166,o),
(600,166,cs),
(420,166,o),
(302,250,o),
(302,374,cs),
(302,492,o),
(372,594,o),
(608,692,c)
);
}
);
};
layerId = "A31F2A1B-1434-479A-A47A-09846372A702";
shapes = (
{
closed = 1;
nodes = (
(1358,124,l),
(618,846,ls),
(490,972,o),
(458,1024,o),
(458,1096,cs),
(458,1188,o),
(518,1254,o),
(642,1254,cs),
(732,1254,o),
(800,1210,o),
(854,1146,c),
(982,1256,l),
(896,1366,o),
(788,1414,o),
(644,1414,cs),
(418,1414,o),
(256,1284,o),
(256,1092,cs),
(256,980,o),
(306,888,o),
(444,752,cs),
(1236,-22,l)
);
},
{
closed = 1;
nodes = (
(490,818,l),
(202,688,o),
(86,542,o),
(86,350,cs),
(86,134,o),
(296,-18,o),
(586,-18,cs),
(958,-18,o),
(1218,218,o),
(1302,664,c),
(1122,700,l),
(1058,338,o),
(902,166,o),
(600,166,cs),
(420,166,o),
(302,250,o),
(302,374,cs),
(302,492,o),
(372,594,o),
(608,692,c)
);
}
);
width = 1392;
},
{
background = {
shapes = (
{
closed = 1;
nodes = (
(1358,124,l),
(618,846,ls),
(490,972,o),
(458,1024,o),
(458,1096,cs),
(458,1188,o),
(518,1254,o),
(644,1254,cs),
(734,1254,o),
(800,1210,o),
(844,1150,c),
(982,1256,l),
(902,1366,o),
(798,1414,o),
(644,1414,cs),
(418,1414,o),
(256,1284,o),
(256,1092,cs),
(256,980,o),
(306,888,o),
(444,752,cs),
(1236,-22,l)
);
},
{
closed = 1;
nodes = (
(490,818,l),
(202,688,o),
(86,542,o),
(86,350,cs),
(86,134,o),
(296,-18,o),
(586,-18,cs),
(958,-18,o),
(1218,218,o),
(1302,664,c),
(1122,700,l),
(1058,338,o),
(902,166,o),
(600,166,cs),
(420,166,o),
(302,250,o),
(302,374,cs),
(302,492,o),
(372,594,o),
(608,692,c)
);
}
);
};
layerId = "509FD652-F91B-436C-A4D5-5322A671A429";
shapes = (
{
closed = 1;
nodes = (
(1019,124,l),
(464,846,ls),
(368,972,o),
(348,1024,o),
(348,1096,cs),
(348,1188,o),
(389,1254,o),
(482,1254,cs),
(549,1254,o),
(600,1210,o),
(641,1146,c),
(737,1256,l),
(672,1366,o),
(591,1414,o),
(483,1414,cs),
(314,1414,o),
(188,1284,o),
(188,1092,cs),
(188,980,o),
(230,888,o),
(333,752,cs),
(927,-22,l)
);
},
{
closed = 1;
nodes = (
(368,818,l),
(152,688,o),
(61,542,o),
(61,350,cs),
(61,134,o),
(222,-18,o),
(440,-18,cs),
(719,-18,o),
(914,218,o),
(977,664,c),
(842,700,l),
(794,338,o),
(677,166,o),
(450,166,cs),
(315,166,o),
(231,250,o),
(231,374,cs),
(231,492,o),
(279,594,o),
(456,692,c)
);
}
);
width = 1044;
},
{
layerId = "A4BFD56A-5B0C-44CD-885D-24E1CC1FDBC0";
associatedMasterId = "AD6BCF41-EF37-4505-B0B8-48EA3C63FE3E";
name = "22. 7. 23 14:11";
shapes = (
{
closed = 1;
nodes = (
(1254,6,l),
(510,818,ls),
(372,970,o),
(338,1040,o),
(338,1136,cs),
(338,1274,o),
(442,1368,o),
(620,1368,cs),
(672,1368,o),
(720,1362,o),
(760,1354,c),
(774,1390,l),
(728,1400,o),
(676,1406,o),
(620,1406,cs),
(422,1406,o),
(298,1298,o),
(298,1136,cs),
(298,1030,o),
(332,954,o),
(474,800,cs),
(1224,-20,l)
);
},
{
closed = 1;
nodes = (
(502,790,l),
(208,618,o),
(112,490,o),
(112,336,cs),
(112,130,o),
(292,-6,o),
(546,-6,cs),
(860,-6,o),
(1076,194,o),
(1152,640,c),
(1116,640,l),
(1044,224,o),
(844,28,o),
(546,28,cs),
(314,28,o),
(152,150,o),
(152,336,cs),
(152,482,o),
(236,590,o),
(528,762,c)
);
}
);
width = 1268;
},
{
background = {
shapes = (
{
closed = 1;
nodes = (
(860,-6,o),
(1074,176,o),
(1150,572,c),
(1116,580,l),
(1044,204,o),
(844,28,o),
(546,28,cs),
(314,28,o),
(152,150,o),
(152,336,cs),
(152,482,o),
(234,586,o),
(520,758,cs),
(796,924,o),
(882,1016,o),
(882,1156,cs),
(882,1312,o),
(772,1406,o),
(600,1406,cs),
(414,1406,o),
(298,1298,o),
(298,1136,cs),
(298,1030,o),
(332,954,o),
(474,800,cs),
(1208,-2,l),
(1258,2,l),
(510,818,ls),
(372,970,o),
(338,1040,o),
(338,1136,cs),
(338,1274,o),
(434,1368,o),
(600,1368,cs),
(756,1368,o),
(844,1284,o),
(844,1156,cs),
(844,1024,o),
(760,944,o),
(494,786,cs),
(206,614,o),
(112,490,o),
(112,336,cs),
(112,130,o),
(292,-6,o),
(546,-6,cs)
);
}
);
};
layerId = "AD6BCF41-EF37-4505-B0B8-48EA3C63FE3E";
shapes = (
{
closed = 1;
nodes = (
(1254,6,l),
(510,818,ls),
(372,970,o),
(338,1040,o),
(338,1136,cs),
(338,1274,o),
(442,1368,o),
(600,1368,cs),
(698,1368,o),
(762,1338,o),
(832,1262,c),
(862,1290,l),
(790,1370,o),
(708,1406,o),
(600,1406,cs),
(422,1406,o),
(298,1298,o),
(298,1136,cs),
(298,1030,o),
(332,954,o),
(474,800,cs),
(1224,-20,l)
);
},
{
closed = 1;
nodes = (
(502,790,l),
(208,618,o),
(112,492,o),
(112,336,cs),
(112,128,o),
(292,-6,o),
(546,-6,cs),
(860,-6,o),
(1078,194,o),
(1154,634,c),
(1116,640,l),
(1048,224,o),
(844,30,o),
(546,30,cs),
(314,30,o),
(152,148,o),
(152,336,cs),
(152,482,o),
(236,590,o),
(528,762,c)
);
}
);
width = 1268;
},
{
background = {
shapes = (
{
closed = 1;
nodes = (
(860,-6,o),
(1074,176,o),
(1150,572,c),
(1116,580,l),
(1044,204,o),
(844,28,o),
(546,28,cs),
(314,28,o),
(152,150,o),
(152,336,cs),
(152,482,o),
(234,586,o),
(520,758,cs),
(796,924,o),
(882,1016,o),
(882,1156,cs),
(882,1312,o),
(772,1406,o),
(600,1406,cs),
(414,1406,o),
(298,1298,o),
(298,1136,cs),
(298,1030,o),
(332,954,o),
(474,800,cs),
(1208,-2,l),
(1258,2,l),
(510,818,ls),
(372,970,o),
(338,1040,o),
(338,1136,cs),
(338,1274,o),
(434,1368,o),
(600,1368,cs),
(756,1368,o),
(844,1284,o),
(844,1156,cs),
(844,1024,o),
(760,944,o),
(494,786,cs),
(206,614,o),
(112,490,o),
(112,336,cs),
(112,130,o),
(292,-6,o),
(546,-6,cs)
);
}
);
};
layerId = "8F81F910-5DBA-457E-82E0-752C82078E80";
shapes = (
{
closed = 1;
nodes = (
(941,6,l),
(383,818,ls),
(279,970,o),
(258,1040,o),
(258,1136,cs),
(258,1274,o),
(332,1368,o),
(450,1368,cs),
(524,1368,o),
(572,1338,o),
(624,1262,c),
(647,1290,l),
(593,1370,o),
(531,1406,o),
(450,1406,cs),
(317,1406,o),
(220,1298,o),
(220,1136,cs),
(220,1030,o),
(249,954,o),
(356,800,cs),
(918,-20,l)
);
},
{
closed = 1;
nodes = (
(377,790,l),
(156,618,o),
(80,492,o),
(80,336,cs),
(80,128,o),
(219,-6,o),
(410,-6,cs),
(645,-6,o),
(809,194,o),
(866,634,c),
(837,640,l),
(786,224,o),
(633,30,o),
(410,30,cs),
(236,30,o),
(118,148,o),
(118,336,cs),
(118,482,o),
(177,590,o),
(396,762,c)
);
}
);
width = 951;
}
);
unicode = 38;
},
{
glyphname = quotesingle;
layers = (
{
layerId = "CBB0ADCE-2C6B-4C18-8CFE-465C501777A2";
shapes = (
{
closed = 1;
nodes = (
(120,796,l),
(456,796,l),
(456,1400,l),
(120,1400,l)
);
}
);
width = 576;
},
{
layerId = "EBC752C6-95D9-4DED-AD5D-85333C04496E";
shapes = (
{
closed = 1;
nodes = (
(90,796,l),
(342,796,l),
(342,1400,l),
(90,1400,l)
);
}
);
width = 432;
},
{
layerId = "A31F2A1B-1434-479A-A47A-09846372A702";
shapes = (
{
closed = 1;
nodes = (
(120,916,l),
(296,916,l),
(296,1400,l),
(120,1400,l)
);
}
);
width = 416;
},
{
layerId = "509FD652-F91B-436C-A4D5-5322A671A429";
shapes = (
{
closed = 1;
nodes = (
(90,916,l),
(222,916,l),
(222,1400,l),
(90,1400,l)
);
}
);
width = 312;
},
{
layerId = "AD6BCF41-EF37-4505-B0B8-48EA3C63FE3E";
shapes = (
{
closed = 1;
nodes = (
(120,1020,l),
(160,1020,l),
(160,1400,l),
(120,1400,l)
);
}
);
width = 280;
},
{
layerId = "8F81F910-5DBA-457E-82E0-752C82078E80";
shapes = (
{
closed = 1;
nodes = (
(90,1020,l),
(120,1020,l),
(120,1400,l),
(90,1400,l)
);
}
);
width = 210;
}
);
leftKerningGroup = quotesingle;
rightKerningGroup = quotesingle;
unicode = 39;
},
{
glyphname = parenleft;
layers = (
{
layerId = "15911918-BD0E-422E-8741-0FDE60C5A449";
name = "#instance";
shapes = (
{
closed = 1;
nodes = (
(324,1484,l),
(215,1266,o),
(150,960,o),
(150,618,cs),
(150,276,o),
(215,-30,o),
(324,-248,c),
(354,-248,l),
(245,-30,o),
(189,276,o),
(189,618,cs),
(189,960,o),
(245,1266,o),
(354,1484,c)
);
}
);
width = 414;
},
{
layerId = "CBB0ADCE-2C6B-4C18-8CFE-465C501777A2";
shapes = (
{
closed = 1;
nodes = (
(360,1484,l),
(188,1244,o),
(94,938,o),
(94,618,cs),
(94,298,o),
(188,-8,o),
(360,-248,c),
(762,-248,l),
(616,-8,o),
(516,298,o),
(516,618,cs),
(516,938,o),
(616,1244,o),
(762,1484,c)
);
}
);
width = 740;
},
{
layerId = "EBC752C6-95D9-4DED-AD5D-85333C04496E";
shapes = (
{
closed = 1;
nodes = (
(270,1484,l),
(141,1244,o),
(66,938,o),
(66,618,cs),
(66,298,o),
(141,-8,o),
(270,-248,c),
(572,-248,l),
(462,-8,o),
(391,298,o),
(391,618,cs),
(391,938,o),
(462,1244,o),
(572,1484,c)
);
}
);
width = 555;
},
{
layerId = "A31F2A1B-1434-479A-A47A-09846372A702";
shapes = (
{
closed = 1;
nodes = (
(384,1484,l),
(226,1256,o),
(140,950,o),
(140,618,cs),
(140,286,o),
(226,-20,o),
(384,-248,c),
(592,-248,l),
(446,-20,o),
(356,286,o),
(356,618,cs),
(356,950,o),
(446,1256,o),
(592,1484,c)
);
}
);
width = 624;
},
{
layerId = "509FD652-F91B-436C-A4D5-5322A671A429";
shapes = (
{
closed = 1;
nodes = (
(288,1484,l),
(170,1256,o),
(100,950,o),
(100,618,cs),
(100,286,o),
(170,-20,o),
(288,-248,c),
(444,-248,l),
(335,-20,o),
(271,286,o),
(271,618,cs),
(271,950,o),
(335,1256,o),
(444,1484,c)
);
}
);
width = 468;
},
{
layerId = "AD6BCF41-EF37-4505-B0B8-48EA3C63FE3E";
shapes = (
{
closed = 1;
nodes = (
(432,1484,l),
(286,1266,o),
(206,960,o),
(206,618,cs),
(206,276,o),
(286,-30,o),
(432,-248,c),
(472,-248,l),
(326,-30,o),
(246,276,o),
(246,618,cs),
(246,960,o),
(326,1266,o),
(472,1484,c)
);
}
);
width = 552;
},
{
layerId = "8F81F910-5DBA-457E-82E0-752C82078E80";
shapes = (
{
closed = 1;
nodes = (
(324,1484,l),
(215,1266,o),
(150,960,o),
(150,618,cs),
(150,276,o),
(215,-30,o),
(324,-248,c),
(354,-248,l),
(245,-30,o),
(189,276,o),
(189,618,cs),
(189,960,o),
(245,1266,o),
(354,1484,c)
);
}
);
width = 414;
}
);
leftKerningGroup = parenleft;
rightKerningGroup = parenleft;
unicode = 40;
},
{
glyphname = parenright;
layers = (
{
layerId = "15911918-BD0E-422E-8741-0FDE60C5A449";
name = "#instance";
shapes = (
{
closed = 1;
nodes = (
(90,1484,l),
(200,1266,o),
(264,960,o),
(264,618,cs),
(264,276,o),
(200,-30,o),
(90,-248,c),
(60,-248,l),
(170,-30,o),
(226,276,o),
(226,618,cs),
(226,960,o),
(170,1266,o),
(60,1484,c)
);
}
);
width = 414;
},
{
layerId = "CBB0ADCE-2C6B-4C18-8CFE-465C501777A2";
shapes = (
{
closed = 1;
nodes = (
(380,1484,l),
(552,1244,o),
(646,938,o),
(646,618,cs),
(646,298,o),
(552,-8,o),
(380,-248,c),
(-22,-248,l),
(124,-8,o),
(224,298,o),
(224,618,cs),
(224,938,o),
(124,1244,o),
(-22,1484,c)
);
}
);
width = 740;
},
{
layerId = "EBC752C6-95D9-4DED-AD5D-85333C04496E";
shapes = (
{
closed = 1;
nodes = (
(285,1484,l),
(414,1244,o),
(489,938,o),
(489,618,cs),
(489,298,o),
(414,-8,o),
(285,-248,c),
(-17,-248,l),
(93,-8,o),
(164,298,o),
(164,618,cs),
(164,938,o),
(93,1244,o),
(-17,1484,c)
);
}
);
width = 555;
},
{
layerId = "A31F2A1B-1434-479A-A47A-09846372A702";
shapes = (
{
closed = 1;
nodes = (
(240,1484,l),
(398,1256,o),
(484,950,o),
(484,618,cs),
(484,286,o),
(398,-20,o),
(240,-248,c),
(32,-248,l),
(178,-20,o),
(268,286,o),
(268,618,cs),
(268,950,o),
(178,1256,o),
(32,1484,c)
);
}
);
width = 624;
},
{
layerId = "509FD652-F91B-436C-A4D5-5322A671A429";
shapes = (
{
closed = 1;
nodes = (
(180,1484,l),
(299,1256,o),
(367,950,o),
(367,618,cs),
(367,286,o),
(299,-20,o),
(180,-248,c),
(24,-248,l),
(134,-20,o),
(197,286,o),
(197,618,cs),
(197,950,o),
(134,1256,o),
(24,1484,c)
);
}
);
width = 468;
},
{
layerId = "AD6BCF41-EF37-4505-B0B8-48EA3C63FE3E";
shapes = (
{
closed = 1;
nodes = (
(120,1484,l),
(266,1266,o),
(346,960,o),
(346,618,cs),
(346,276,o),
(266,-30,o),
(120,-248,c),
(80,-248,l),
(226,-30,o),
(306,276,o),
(306,618,cs),
(306,960,o),
(226,1266,o),
(80,1484,c)
);
}
);
width = 552;
},
{
layerId = "8F81F910-5DBA-457E-82E0-752C82078E80";
shapes = (
{
closed = 1;
nodes = (
(90,1484,l),
(200,1266,o),
(264,960,o),
(264,618,cs),
(264,276,o),
(200,-30,o),
(90,-248,c),
(60,-248,l),
(170,-30,o),
(226,276,o),
(226,618,cs),
(226,960,o),
(170,1266,o),
(60,1484,c)
);
}
);
width = 414;
}
);
leftKerningGroup = parenright;
rightKerningGroup = parenright;
unicode = 41;
},
{
glyphname = asterisk;
layers = (
{
layerId = "15911918-BD0E-422E-8741-0FDE60C5A449";
name = "#instance";
shapes = (
{
closed = 1;
nodes = (
(206,1212,l),
(59,1330,l),
(45,1296,l),
(195,1180,l),
(45,1064,l),
(59,1030,l),
(206,1148,l),
(206,914,l),
(241,914,l),
(241,1148,l),
(389,1030,l),
(402,1064,l),
(251,1180,l),
(402,1296,l),
(389,1330,l),
(241,1212,l),
(241,1446,l),
(206,1446,l)
);
}
);
width = 447;
},
{
layerId = "CBB0ADCE-2C6B-4C18-8CFE-465C501777A2";
shapes = (
{
closed = 1;
nodes = (
(300,1260,l),
(150,1354,l),
(40,1160,l),
(196,1078,l),
(40,992,l),
(150,804,l),
(302,896,l),
(296,718,l),
(516,718,l),
(510,894,l),
(662,800,l),
(772,992,l),
(614,1078,l),
(772,1160,l),
(662,1350,l),
(512,1260,l),
(516,1436,l),
(296,1436,l)
);
}
);
width = 812;
},
{
layerId = "EBC752C6-95D9-4DED-AD5D-85333C04496E";
shapes = (
{
closed = 1;
nodes = (
(221,1260,l),
(113,1354,l),
(30,1160,l),
(147,1078,l),
(30,992,l),
(113,804,l),
(223,896,l),
(218,718,l),
(391,718,l),
(387,894,l),
(497,800,l),
(579,992,l),
(461,1078,l),
(579,1160,l),
(497,1350,l),
(388,1260,l),
(391,1436,l),
(218,1436,l)
);
}
);
width = 609;
},
{
layerId = "A31F2A1B-1434-479A-A47A-09846372A702";
shapes = (
{
closed = 1;
nodes = (
(290,1234,l),
(112,1342,l),
(50,1234,l),
(230,1132,l),
(50,1030,l),
(112,926,l),
(290,1032,l),
(288,824,l),
(408,824,l),
(406,1030,l),
(584,924,l),
(644,1030,l),
(464,1132,l),
(644,1234,l),
(584,1340,l),
(406,1234,l),
(408,1442,l),
(288,1442,l)
);
}
);
width = 696;
},
{
layerId = "509FD652-F91B-436C-A4D5-5322A671A429";
shapes = (
{
closed = 1;
nodes = (
(214,1234,l),
(84,1342,l),
(38,1234,l),
(173,1132,l),
(38,1030,l),
(84,926,l),
(214,1032,l),
(212,824,l),
(310,824,l),
(309,1030,l),
(438,924,l),
(483,1030,l),
(348,1132,l),
(483,1234,l),
(438,1340,l),
(309,1234,l),
(310,1442,l),
(212,1442,l)
);
}
);
width = 522;
},
{
layerId = "AD6BCF41-EF37-4505-B0B8-48EA3C63FE3E";
shapes = (
{
closed = 1;
nodes = (
(280,1212,l),
(78,1330,l),
(60,1296,l),
(260,1180,l),
(60,1064,l),
(78,1030,l),
(280,1148,l),
(280,914,l),
(316,914,l),
(316,1148,l),
(518,1030,l),
(536,1064,l),
(334,1180,l),
(536,1296,l),
(518,1330,l),
(316,1212,l),
(316,1446,l),
(280,1446,l)
);
}
);
width = 596;
},
{
layerId = "8F81F910-5DBA-457E-82E0-752C82078E80";
shapes = (
{
closed = 1;
nodes = (
(206,1212,l),
(59,1330,l),
(45,1296,l),
(195,1180,l),
(45,1064,l),
(59,1030,l),
(206,1148,l),
(206,914,l),
(241,914,l),
(241,1148,l),
(389,1030,l),
(402,1064,l),
(251,1180,l),
(402,1296,l),
(389,1330,l),
(241,1212,l),
(241,1446,l),
(206,1446,l)
);
}
);
width = 447;
}
);
leftKerningGroup = asterisk;
rightKerningGroup = asterisk;
unicode = 42;
},
{
glyphname = plus;
layers = (
{
layerId = "15911918-BD0E-422E-8741-0FDE60C5A449";
name = "#instance";
shapes = (
{
closed = 1;
nodes = (
(60,620,l),
(660,620,l),
(660,660,l),
(60,660,l)
);
},
{
closed = 1;
nodes = (
(341,240,l),
(379,240,l),
(379,1040,l),
(341,1040,l)
);
}
);
width = 720;
},
{
layerId = "CBB0ADCE-2C6B-4C18-8CFE-465C501777A2";
shapes = (
{
closed = 1;
nodes = (
(60,518,l),
(980,518,l),
(980,798,l),
(60,798,l)
);
},
{
closed = 1;
nodes = (
(380,198,l),
(660,198,l),
(660,1118,l),
(380,1118,l)
);
}
);
width = 1040;
},
{
layerId = "EBC752C6-95D9-4DED-AD5D-85333C04496E";
shapes = (
{
closed = 1;
nodes = (
(45,518,l),
(735,518,l),
(735,798,l),
(45,798,l)
);
},
{
closed = 1;
nodes = (
(281,198,l),
(499,198,l),
(499,1118,l),
(281,1118,l)
);
}
);
width = 780;
},
{
layerId = "A31F2A1B-1434-479A-A47A-09846372A702";
shapes = (
{
closed = 1;
nodes = (
(70,572,l),
(926,572,l),
(926,724,l),
(70,724,l)
);
},
{
closed = 1;
nodes = (
(424,220,l),
(574,220,l),
(574,1076,l),
(424,1076,l)
);
}
);
width = 996;
},
{
layerId = "509FD652-F91B-436C-A4D5-5322A671A429";
shapes = (
{
closed = 1;
nodes = (
(53,572,l),
(695,572,l),
(695,724,l),
(53,724,l)
);
},
{
closed = 1;
nodes = (
(314,220,l),
(435,220,l),
(435,1076,l),
(314,1076,l)
);
}
);
width = 747;
},
{
layerId = "AD6BCF41-EF37-4505-B0B8-48EA3C63FE3E";
shapes = (
{
closed = 1;
nodes = (
(80,620,l),
(880,620,l),
(880,660,l),
(80,660,l)
);
},
{
closed = 1;
nodes = (
(460,240,l),
(500,240,l),
(500,1040,l),
(460,1040,l)
);
}
);
width = 960;
},
{
layerId = "8F81F910-5DBA-457E-82E0-752C82078E80";
shapes = (
{
closed = 1;
nodes = (
(60,620,l),
(660,620,l),
(660,660,l),
(60,660,l)
);
},
{
closed = 1;
nodes = (
(341,240,l),
(379,240,l),
(379,1040,l),
(341,1040,l)
);
}
);
width = 720;
}
);
leftKerningGroup = hyphen;
rightKerningGroup = hyphen;
unicode = 43;
},
{
glyphname = comma;
layers = (
{
layerId = "CBB0ADCE-2C6B-4C18-8CFE-465C501777A2";
shapes = (
{
closed = 1;
nodes = (
(208,192,l),
(20,-260,l),
(228,-260,l),
(422,32,ls),
(452,78,o),
(476,130,o),
(476,192,cs),
(476,324,o),
(380,394,o),
(272,394,cs),
(152,394,o),
(66,310,o),
(66,190,cs),
(66,76,o),
(148,-20,o),
(336,-12,c)
);
}
);
width = 540;
},
{
layerId = "EBC752C6-95D9-4DED-AD5D-85333C04496E";
shapes = (
{
closed = 1;
nodes = (
(156,192,l),
(15,-260,l),
(171,-260,l),
(317,32,ls),
(339,78,o),
(357,130,o),
(357,192,cs),
(357,324,o),
(285,394,o),
(204,394,cs),
(114,394,o),
(50,310,o),
(50,190,cs),
(50,76,o),
(111,-20,o),
(252,-12,c)
);
}
);
width = 405;
},
{
layerId = "A31F2A1B-1434-479A-A47A-09846372A702";
shapes = (
{
closed = 1;
nodes = (
(240,92,l),
(128,-220,l),
(246,-220,l),
(360,8,ls),
(376,40,o),
(394,70,o),
(394,108,cs),
(394,186,o),
(336,230,o),
(272,230,cs),
(200,230,o),
(148,180,o),
(148,108,cs),
(148,42,o),
(194,-14,o),
(294,-14,c)
);
}
);
width = 540;
},
{
layerId = "509FD652-F91B-436C-A4D5-5322A671A429";
shapes = (
{
closed = 1;
nodes = (
(180,92,l),
(96,-220,l),
(185,-220,l),
(270,8,ls),
(282,40,o),
(296,70,o),
(296,108,cs),
(296,186,o),
(252,230,o),
(204,230,cs),
(150,230,o),
(111,180,o),
(111,108,cs),
(111,42,o),
(146,-14,o),
(221,-14,c)
);
}
);
width = 405;
},
{
layerId = "AD6BCF41-EF37-4505-B0B8-48EA3C63FE3E";
shapes = (
{
closed = 1;
nodes = (
(270,8,l),
(186,-240,l),
(226,-240,l),
(312,-14,ls),
(320,6,o),
(326,20,o),
(326,38,cs),
(326,66,o),
(302,90,o),
(274,90,cs),
(246,90,o),
(222,66,o),
(222,38,cs),
(222,10,o),
(246,-14,o),
(274,-14,c)
);
}
);
width = 540;
},
{
layerId = "8F81F910-5DBA-457E-82E0-752C82078E80";
shapes = (
{
closed = 1;
nodes = (
(203,8,l),
(140,-240,l),
(170,-240,l),
(234,-14,ls),
(240,6,o),
(245,20,o),
(245,38,cs),
(245,66,o),
(227,90,o),
(206,90,cs),
(185,90,o),
(167,66,o),
(167,38,cs),
(167,10,o),
(185,-14,o),
(206,-14,c)
);
}
);
width = 405;
}
);
leftKerningGroup = period;
rightKerningGroup = period;
unicode = 44;
},
{
glyphname = hyphen;
layers = (
{
layerId = "CBB0ADCE-2C6B-4C18-8CFE-465C501777A2";
shapes = (
{
closed = 1;
nodes = (
(100,478,l),
(660,478,l),
(660,758,l),
(100,758,l)
);
}
);
width = 760;
},
{
layerId = "EBC752C6-95D9-4DED-AD5D-85333C04496E";
shapes = (
{
closed = 1;
nodes = (
(75,478,l),
(495,478,l),
(495,758,l),
(75,758,l)
);
}
);
width = 570;
},
{
layerId = "A31F2A1B-1434-479A-A47A-09846372A702";
shapes = (
{
closed = 1;
nodes = (
(122,532,l),
(614,532,l),
(614,684,l),
(122,684,l)
);
}
);
width = 736;
},
{
layerId = "509FD652-F91B-436C-A4D5-5322A671A429";
shapes = (
{
closed = 1;
nodes = (
(92,532,l),
(461,532,l),
(461,684,l),
(92,684,l)
);
}
);
width = 552;
},
{
layerId = "AD6BCF41-EF37-4505-B0B8-48EA3C63FE3E";
shapes = (
{
closed = 1;
nodes = (
(140,580,l),
(574,580,l),
(574,620,l),
(140,620,l)
);
}
);
width = 714;
},
{
layerId = "8F81F910-5DBA-457E-82E0-752C82078E80";
shapes = (
{
closed = 1;
nodes = (
(105,580,l),
(431,580,l),
(431,620,l),
(105,620,l)
);
}
);
width = 536;
}
);
leftKerningGroup = hyphen;
rightKerningGroup = hyphen;
unicode = 45;
},
{
glyphname = period;
layers = (
{
layerId = "15911918-BD0E-422E-8741-0FDE60C5A449";
name = "#instance";
shapes = (
{
closed = 1;
nodes = (
(182,90,o),
(160,66,o),
(160,38,cs),
(160,10,o),
(182,-14,o),
(203,-14,cs),
(224,-14,o),
(247,10,o),
(247,38,cs),
(247,66,o),
(224,90,o),
(203,90,cs)
);
}
);
width = 405;
},
{
layerId = "CBB0ADCE-2C6B-4C18-8CFE-465C501777A2";
shapes = (
{
closed = 1;
nodes = (
(148,394,o),
(64,310,o),
(64,190,cs),
(64,68,o),
(148,-16,o),
(268,-16,cs),
(390,-16,o),
(474,68,o),
(474,190,cs),
(474,310,o),
(390,394,o),
(268,394,cs)
);
}
);
width = 540;
},
{
layerId = "EBC752C6-95D9-4DED-AD5D-85333C04496E";
shapes = (
{
closed = 1;
nodes = (
(111,394,o),
(44,310,o),
(44,190,cs),
(44,68,o),
(111,-16,o),
(201,-16,cs),
(293,-16,o),
(361,68,o),
(361,190,cs),
(361,310,o),
(293,394,o),
(201,394,cs)
);
}
);
width = 405;
},
{
layerId = "A31F2A1B-1434-479A-A47A-09846372A702";
shapes = (
{
closed = 1;
nodes = (
(200,236,o),
(146,184,o),
(146,110,cs),
(146,36,o),
(200,-18,o),
(272,-18,cs),
(344,-18,o),
(398,36,o),
(398,110,cs),
(398,184,o),
(344,236,o),
(272,236,cs)
);
}
);
width = 540;
},
{
layerId = "509FD652-F91B-436C-A4D5-5322A671A429";
shapes = (
{
closed = 1;
nodes = (
(150,236,o),
(106,184,o),
(106,110,cs),
(106,36,o),
(150,-18,o),
(204,-18,cs),
(258,-18,o),
(304,36,o),
(304,110,cs),
(304,184,o),
(258,236,o),
(204,236,cs)
);
}
);
width = 405;
},
{
layerId = "AD6BCF41-EF37-4505-B0B8-48EA3C63FE3E";
shapes = (
{
closed = 1;
nodes = (
(242,90,o),
(218,66,o),
(218,38,cs),
(218,10,o),
(242,-14,o),
(270,-14,cs),
(298,-14,o),
(322,10,o),
(322,38,cs),
(322,66,o),
(298,90,o),
(270,90,cs)
);
}
);
width = 540;
},
{
layerId = "8F81F910-5DBA-457E-82E0-752C82078E80";
shapes = (
{
closed = 1;
nodes = (
(182,90,o),
(160,66,o),
(160,38,cs),
(160,10,o),
(182,-14,o),
(203,-14,cs),
(224,-14,o),
(247,10,o),
(247,38,cs),
(247,66,o),
(224,90,o),
(203,90,cs)
);
}
);
width = 405;
}
);
leftKerningGroup = period;
rightKerningGroup = period;
unicode = 46;
},
{
glyphname = slash;
layers = (
{
layerId = "15911918-BD0E-422E-8741-0FDE60C5A449";
name = "#instance";
shapes = (
{
closed = 1;
nodes = (
(2,-260,l),
(43,-260,l),
(502,1652,l),
(461,1652,l)
);
}
);
width = 441;
},
{
layerId = "CBB0ADCE-2C6B-4C18-8CFE-465C501777A2";
shapes = (
{
closed = 1;
nodes = (
(-100,-208,l),
(276,-208,l),
(934,1612,l),
(558,1612,l)
);
}
);
width = 746;
},
{
layerId = "EBC752C6-95D9-4DED-AD5D-85333C04496E";
shapes = (
{
closed = 1;
nodes = (
(-79,-208,l),
(212,-208,l),
(706,1612,l),
(415,1612,l)
);
}
);
width = 560;
},
{
layerId = "A31F2A1B-1434-479A-A47A-09846372A702";
shapes = (
{
closed = 1;
nodes = (
(-42,-236,l),
(154,-236,l),
(788,1634,l),
(592,1634,l)
);
}
);
width = 662;
},
{
layerId = "509FD652-F91B-436C-A4D5-5322A671A429";
shapes = (
{
closed = 1;
nodes = (
(-36,-236,l),
(121,-236,l),
(596,1634,l),
(440,1634,l)
);
}
);
width = 497;
},
{
layerId = "AD6BCF41-EF37-4505-B0B8-48EA3C63FE3E";
shapes = (
{
closed = 1;
nodes = (
(8,-260,l),
(50,-260,l),
(662,1652,l),
(620,1652,l)
);
}
);
width = 588;
},
{
layerId = "8F81F910-5DBA-457E-82E0-752C82078E80";
shapes = (
{
closed = 1;
nodes = (
(2,-260,l),
(43,-260,l),
(502,1652,l),
(461,1652,l)
);
}
);
width = 441;
}
);
leftKerningGroup = slash;
rightKerningGroup = slash;
unicode = 47;
},
{
glyphname = zero;
layers = (
{
layerId = "15911918-BD0E-422E-8741-0FDE60C5A449";
name = "#instance";
shapes = (
{
closed = 1;
nodes = (
(131,1402,o),
(77,955,o),
(77,700,cs),
(77,445,o),
(131,-4,o),
(477,-4,cs),
(821,-4,o),
(874,441,o),
(874,698,cs),
(874,958,o),
(820,1402,o),
(476,1402,cs)
);
},
{
closed = 1;
nodes = (
(796,1362,o),
(836,938,o),
(836,700,cs),
(836,463,o),
(796,36,o),
(477,36,cs),
(157,36,o),
(115,466,o),
(115,702,cs),
(115,935,o),
(156,1362,o),
(477,1362,cs)
);
}
);
width = 951;
},
{
layerId = "CBB0ADCE-2C6B-4C18-8CFE-465C501777A2";
shapes = (
{
closed = 1;
nodes = (
(204,1416,o),
(56,1086,o),
(56,703,cs),
(56,320,o),
(203,-14,o),
(634,-14,cs),
(1064,-14,o),
(1212,319,o),
(1212,702,cs),
(1212,1086,o),
(1065,1416,o),
(634,1416,cs)
);
},
{
closed = 1;
nodes = (
(762,1078,o),
(740,778,o),
(740,702,cs),
(740,625,o),
(761,324,o),
(634,324,cs),
(507,324,o),
(528,625,o),
(528,702,cs),
(528,778,o),
(506,1078,o),
(634,1078,cs)
);
}
);
width = 1268;
},
{
layerId = "EBC752C6-95D9-4DED-AD5D-85333C04496E";
shapes = (
{
closed = 1;
nodes = (
(106,1416,o),
(38,989,o),
(38,703,cs),
(38,418,o),
(106,-14,o),
(476,-14,cs),
(844,-14,o),
(913,418,o),
(913,704,cs),
(913,987,o),
(845,1416,o),
(476,1416,cs)
);
},
{
closed = 1;
nodes = (
(573,1078,o),
(551,756,o),
(551,702,cs),
(551,647,o),
(573,324,o),
(476,324,cs),
(377,324,o),
(400,646,o),
(400,702,cs),
(400,758,o),
(377,1078,o),
(476,1078,cs)
);
}
);
width = 951;
},
{
layerId = "A31F2A1B-1434-479A-A47A-09846372A702";
shapes = (
{
closed = 1;
nodes = (
(220,1410,o),
(94,1059,o),
(94,700,cs),
(94,341,o),
(220,-10,o),
(636,-10,cs),
(1051,-10,o),
(1176,342,o),
(1176,700,cs),
(1176,1058,o),
(1051,1410,o),
(636,1410,cs)
);
},
{
closed = 1;
nodes = (
(907,1232,o),
(930,901,o),
(930,703,cs),
(930,500,o),
(906,168,o),
(636,168,cs),
(367,168,o),
(340,500,o),
(340,702,cs),
(340,901,o),
(366,1232,o),
(636,1232,cs)
);
}
);
width = 1268;
},
{
layerId = "509FD652-F91B-436C-A4D5-5322A671A429";
shapes = (
{
closed = 1;
nodes = (
(125,1410,o),
(67,964,o),
(67,700,cs),
(67,436,o),
(125,-10,o),
(477,-10,cs),
(830,-10,o),
(886,436,o),
(886,700,cs),
(886,964,o),
(830,1410,o),
(477,1410,cs)
);
},
{
closed = 1;
nodes = (
(696,1232,o),
(694,845,o),
(694,700,cs),
(694,556,o),
(695,168,o),
(477,168,cs),
(260,168,o),
(259,556,o),
(259,708,cs),
(259,844,o),
(259,1232,o),
(477,1232,cs)
);
}
);
width = 951;
},
{
layerId = "AD6BCF41-EF37-4505-B0B8-48EA3C63FE3E";
shapes = (
{
closed = 1;
nodes = (
(226,1402,o),
(108,1046,o),
(108,700,cs),
(108,354,o),
(226,-4,o),
(635,-4,cs),
(1042,-4,o),
(1160,350,o),
(1160,700,cs),
(1160,1050,o),
(1041,1402,o),
(635,1402,cs)
);
},
{
closed = 1;
nodes = (
(1014,1362,o),
(1120,1024,o),
(1120,700,cs),
(1120,378,o),
(1014,36,o),
(635,36,cs),
(254,36,o),
(148,382,o),
(148,702,cs),
(148,1020,o),
(253,1362,o),
(635,1362,cs)
);
}
);
width = 1268;
},
{
layerId = "8F81F910-5DBA-457E-82E0-752C82078E80";
shapes = (
{
closed = 1;
nodes = (
(131,1402,o),
(77,955,o),
(77,700,cs),
(77,445,o),
(131,-4,o),
(477,-4,cs),
(821,-4,o),
(874,441,o),
(874,698,cs),
(874,958,o),
(820,1402,o),
(476,1402,cs)
);
},
{
closed = 1;
nodes = (
(796,1362,o),
(836,938,o),
(836,700,cs),
(836,463,o),
(796,36,o),
(477,36,cs),
(157,36,o),
(115,466,o),
(115,702,cs),
(115,935,o),
(156,1362,o),
(477,1362,cs)
);
}
);
width = 951;
}
);
leftKerningGroup = zero;
rightKerningGroup = zero;
unicode = 48;
},
{
color = 3;
glyphname = one;
layers = (
{
background = {
shapes = (
{
closed = 1;
nodes = (
(988,0,l),
(988,1400,l),
(266,1400,l),
(266,1044,l),
(718,1044,l),
(516,1236,l),
(516,0,l)
);
},
{
closed = 1;
nodes = (
(236,0,l),
(1228,0,l),
(1228,356,l),
(236,356,l)
);
}
);
};
layerId = "CBB0ADCE-2C6B-4C18-8CFE-465C501777A2";
shapes = (
{
closed = 1;
nodes = (
(922,1400,l),
(450,1400,l),
(450,1240,l),
(200,1240,l),
(200,884,l),
(652,884,l),
(450,1236,l),
(450,144,l),
(662,356,l),
(170,356,l),
(170,0,l),
(1162,0,l),
(1162,356,l),
(710,356,l),
(922,144,l)
);
}
);
width = 1268;
},
{
background = {
shapes = (
{
closed = 1;
nodes = (
(988,0,l),
(988,1400,l),
(266,1400,l),
(266,1044,l),
(718,1044,l),
(516,1236,l),
(516,0,l)
);
},
{
closed = 1;
nodes = (
(236,0,l),
(1228,0,l),
(1228,356,l),
(236,356,l)
);
}
);
};
layerId = "EBC752C6-95D9-4DED-AD5D-85333C04496E";
shapes = (
{
closed = 1;
nodes = (
(696,1400,l),
(334,1400,l),
(334,1240,l),
(150,1240,l),
(150,884,l),
(489,884,l),
(334,1236,l),
(334,144,l),
(497,356,l),
(128,356,l),
(128,0,l),
(872,0,l),
(872,356,l),
(533,356,l),
(696,144,l)
);
}
);
width = 951;
},
{
background = {
shapes = (
{
closed = 1;
nodes = (
(868,0,l),
(868,1400,l),
(306,1400,l),
(306,1208,l),
(738,1208,l),
(640,1310,l),
(640,0,l)
);
},
{
closed = 1;
nodes = (
(282,0,l),
(1186,0,l),
(1186,192,l),
(282,192,l)
);
}
);
};
layerId = "A31F2A1B-1434-479A-A47A-09846372A702";
shapes = (
{
closed = 1;
nodes = (
(802,1400,l),
(572,1400,l),
(572,1200,l),
(240,1200,l),
(240,1002,l),
(672,1002,l),
(572,1310,l),
(572,96,l),
(674,198,l),
(216,198,l),
(216,0,l),
(1120,0,l),
(1120,198,l),
(700,198,l),
(802,96,l)
);
}
);
width = 1268;
},
{
background = {
shapes = (
{
closed = 1;
nodes = (
(868,0,l),
(868,1400,l),
(306,1400,l),
(306,1208,l),
(738,1208,l),
(640,1310,l),
(640,0,l)
);
},
{
closed = 1;
nodes = (
(282,0,l),
(1186,0,l),
(1186,192,l),
(282,192,l)
);
}
);
};
layerId = "509FD652-F91B-436C-A4D5-5322A671A429";
shapes = (
{
closed = 1;
nodes = (
(606,1400,l),
(425,1400,l),
(425,1200,l),
(180,1200,l),
(180,1002,l),
(504,1002,l),
(425,1310,l),
(425,96,l),
(506,198,l),
(162,198,l),
(162,0,l),
(840,0,l),
(840,198,l),
(525,198,l),
(606,96,l)
);
}
);
width = 951;
},
{
background = {
shapes = (
{
closed = 1;
nodes = (
(362,1358,l),
(754,1358,l),
(736,1376,l),
(736,0,l),
(774,0,l),
(774,1398,l),
(362,1398,l)
);
}
);
};
layerId = "AD6BCF41-EF37-4505-B0B8-48EA3C63FE3E";
shapes = (
{
closed = 1;
nodes = (
(708,1400,l),
(670,1400,l),
(670,1170,l),
(270,1170,l),
(270,1136,l),
(688,1136,l),
(670,1378,l),
(670,20,l),
(688,38,l),
(250,38,l),
(250,0,l),
(1088,0,l),
(1088,38,l),
(690,38,l),
(708,20,l)
);
}
);
width = 1268;
},
{
background = {
shapes = (
{
closed = 1;
nodes = (
(362,1358,l),
(754,1358,l),
(736,1376,l),
(736,0,l),
(774,0,l),
(774,1398,l),
(362,1398,l)
);
}
);
};
layerId = "8F81F910-5DBA-457E-82E0-752C82078E80";
shapes = (
{
closed = 1;
nodes = (
(535,1400,l),
(499,1400,l),
(499,1170,l),
(203,1170,l),
(203,1138,l),
(516,1138,l),
(499,1378,l),
(499,20,l),
(516,38,l),
(188,38,l),
(188,0,l),
(816,0,l),
(816,38,l),
(518,38,l),
(535,20,l)
);
}
);
width = 951;
}
);
leftKerningGroup = one;
rightKerningGroup = one;
unicode = 49;
},
{
glyphname = two;
layers = (
{
layerId = "15911918-BD0E-422E-8741-0FDE60C5A449";
name = "#instance";
shapes = (
{
closed = 1;
nodes = (
(119,58,l),
(119,0,l),
(894,0,l),
(894,40,l),
(134,40,l),
(137,26,l),
(602,628,ls),
(690,741,o),
(808,930,o),
(808,1078,cs),
(808,1284,o),
(674,1404,o),
(470,1404,cs),
(336,1404,o),
(204,1325,o),
(122,1222,c),
(143,1194,l),
(223,1290,o),
(342,1364,o),
(470,1364,cs),
(651,1364,o),
(770,1265,o),
(770,1078,cs),
(770,939,o),
(663,762,o),
(581,656,cs)
);
}
);
width = 951;
},
{
layerId = "CBB0ADCE-2C6B-4C18-8CFE-465C501777A2";
shapes = (
{
closed = 1;
nodes = (
(88,292,l),
(88,0,l),
(1186,0,l),
(1186,356,l),
(474,356,l),
(534,214,l),
(892,570,ls),
(1014,692,o),
(1166,863,o),
(1166,1046,cs),
(1166,1313,o),
(885,1424,o),
(658,1424,cs),
(429,1424,o),
(219,1333,o),
(32,1206,c),
(204,872,l),
(303,952,o),
(454,1052,o),
(586,1052,cs),
(636,1052,o),
(680,1034,o),
(680,978,cs),
(680,920,o),
(613,841,o),
(576,800,c)
);
}
);
width = 1268;
},
{
layerId = "EBC752C6-95D9-4DED-AD5D-85333C04496E";
shapes = (
{
closed = 1;
nodes = (
(66,292,l),
(66,0,l),
(890,0,l),
(890,356,l),
(356,356,l),
(401,214,l),
(669,570,ls),
(770,705,o),
(879,871,o),
(879,1046,cs),
(879,1267,o),
(714,1424,o),
(494,1424,cs),
(314,1424,o),
(153,1323,o),
(24,1206,c),
(153,872,l),
(219,943,o),
(337,1052,o),
(440,1052,cs),
(487,1052,o),
(506,1024,o),
(506,978,cs),
(506,921,o),
(463,846,o),
(432,800,c)
);
}
);
width = 951;
},
{
layerId = "A31F2A1B-1434-479A-A47A-09846372A702";
shapes = (
{
closed = 1;
nodes = (
(126,166,l),
(126,0,l),
(1190,0,l),
(1190,186,l),
(314,186,l),
(344,112,l),
(844,602,ls),
(956,713,o),
(1116,897,o),
(1116,1064,cs),
(1116,1320,o),
(857,1414,o),
(640,1414,cs),
(444,1414,o),
(254,1335,o),
(102,1214,c),
(196,1046,l),
(305,1141,o),
(460,1220,o),
(608,1220,cs),
(728,1220,o),
(870,1176,o),
(870,1032,cs),
(870,928,o),
(752,791,o),
(682,722,cs)
);
}
);
width = 1268;
},
{
layerId = "509FD652-F91B-436C-A4D5-5322A671A429";
shapes = (
{
closed = 1;
nodes = (
(95,166,l),
(95,0,l),
(893,0,l),
(893,186,l),
(236,186,l),
(258,112,l),
(633,602,ls),
(727,726,o),
(841,903,o),
(841,1064,cs),
(841,1278,o),
(691,1414,o),
(480,1414,cs),
(323,1414,o),
(181,1325,o),
(77,1214,c),
(147,1046,l),
(220,1132,o),
(338,1220,o),
(456,1220,cs),
(574,1220,o),
(649,1153,o),
(649,1032,cs),
(649,932,o),
(570,799,o),
(512,722,cs)
);
}
);
width = 951;
},
{
layerId = "AD6BCF41-EF37-4505-B0B8-48EA3C63FE3E";
shapes = (
{
closed = 1;
nodes = (
(158,58,l),
(158,0,l),
(1192,0,l),
(1192,40,l),
(178,40,l),
(182,26,l),
(802,628,ls),
(907,729,o),
(1072,923,o),
(1072,1078,cs),
(1072,1325,o),
(834,1404,o),
(626,1404,cs),
(460,1404,o),
(283,1336,o),
(162,1222,c),
(190,1194,l),
(307,1299,o),
(469,1364,o),
(626,1364,cs),
(809,1364,o),
(1032,1300,o),
(1032,1078,cs),
(1032,932,o),
(872,751,o),
(774,656,cs)
);
}
);
width = 1268;
},
{
layerId = "8F81F910-5DBA-457E-82E0-752C82078E80";
shapes = (
{
closed = 1;
nodes = (
(119,58,l),
(119,0,l),
(894,0,l),
(894,40,l),
(134,40,l),
(137,26,l),
(602,628,ls),
(690,741,o),
(808,930,o),
(808,1078,cs),
(808,1284,o),
(674,1404,o),
(470,1404,cs),
(336,1404,o),
(204,1325,o),
(122,1222,c),
(143,1194,l),
(223,1290,o),
(342,1364,o),
(470,1364,cs),
(651,1364,o),
(770,1265,o),
(770,1078,cs),
(770,939,o),
(663,762,o),
(581,656,cs)
);
}
);
width = 951;
}
);
leftKerningGroup = two;
rightKerningGroup = two;
unicode = 50;
},
{
glyphname = three;
layers = (
{
layerId = "CBB0ADCE-2C6B-4C18-8CFE-465C501777A2";
shapes = (
{
closed = 1;
nodes = (
(410,862,l),
(526,862,ls),
(652,862,o),
(704,894,o),
(704,971,cs),
(704,1039,o),
(646,1073,o),
(531,1073,cs),
(434,1073,o),
(325,1046,o),
(246,1003,c),
(105,1349,l),
(213,1403,o),
(379,1437,o),
(543,1437,cs),
(912,1437,o),
(1160,1268,o),
(1160,1016,cs),
(1160,901,o),
(1083,801,o),
(967,766,c),
(1106,717,o),
(1202,573,o),
(1202,415,cs),
(1202,161,o),
(960,-20,o),
(622,-20,cs),
(402,-20,o),
(168,54,o),
(36,166,c),
(200,476,l),
(299,383,o),
(452,322,o),
(587,322,cs),
(696,322,o),
(750,362,o),
(750,443,cs),
(750,528,o),
(676,570,o),
(526,570,cs),
(410,570,l)
);
}
);
width = 1268;
},
{
layerId = "EBC752C6-95D9-4DED-AD5D-85333C04496E";
shapes = (
{
closed = 1;
nodes = (
(308,862,l),
(395,862,ls),
(489,862,o),
(524,894,o),
(524,971,cs),
(524,1039,o),
(485,1073,o),
(398,1073,cs),
(326,1073,o),
(244,1046,o),
(185,1003,c),
(79,1349,l),
(160,1403,o),
(284,1437,o),
(407,1437,cs),
(684,1437,o),
(874,1268,o),
(874,1016,cs),
(874,901,o),
(812,801,o),
(725,766,c),
(830,717,o),
(906,573,o),
(906,415,cs),
(906,161,o),
(720,-20,o),
(467,-20,cs),
(302,-20,o),
(126,54,o),
(27,166,c),
(150,476,l),
(224,383,o),
(339,322,o),
(440,322,cs),
(522,322,o),
(559,362,o),
(559,443,cs),
(559,528,o),
(507,570,o),
(395,570,cs),
(308,570,l)
);
}
);
width = 951;
},
{
layerId = "A31F2A1B-1434-479A-A47A-09846372A702";
shapes = (
{
closed = 1;
nodes = (
(434,834,l),
(588,834,ls),
(781,834,o),
(896,896,o),
(896,999,cs),
(896,1144,o),
(784,1226,o),
(587,1226,cs),
(486,1226,o),
(361,1196,o),
(262,1148,c),
(185,1332,l),
(315,1391,o),
(468,1425,o),
(609,1425,cs),
(910,1425,o),
(1128,1273,o),
(1128,1063,cs),
(1128,908,o),
(1038,782,o),
(904,749,c),
(1058,723,o),
(1158,595,o),
(1158,423,cs),
(1158,165,o),
(937,-10,o),
(613,-10,cs),
(422,-10,o),
(217,50,o),
(100,140,c),
(198,320,l),
(293,234,o),
(452,178,o),
(602,178,cs),
(801,178,o),
(928,277,o),
(928,431,cs),
(928,580,o),
(802,656,o),
(555,656,cs),
(434,656,l)
);
}
);
width = 1268;
},
{
layerId = "509FD652-F91B-436C-A4D5-5322A671A429";
shapes = (
{
closed = 1;
nodes = (
(326,834,l),
(441,834,ls),
(586,834,o),
(668,896,o),
(668,999,cs),
(668,1144,o),
(588,1226,o),
(440,1226,cs),
(365,1226,o),
(271,1196,o),
(197,1148,c),
(139,1332,l),
(236,1391,o),
(351,1425,o),
(457,1425,cs),
(683,1425,o),
(850,1273,o),
(850,1063,cs),
(850,908,o),
(779,782,o),
(678,749,c),
(794,723,o),
(873,595,o),
(873,423,cs),
(873,165,o),
(703,-10,o),
(460,-10,cs),
(317,-10,o),
(163,50,o),
(75,140,c),
(149,320,l),
(220,234,o),
(339,178,o),
(452,178,cs),
(601,178,o),
(692,277,o),
(692,431,cs),
(692,580,o),
(602,656,o),
(416,656,cs),
(326,656,l)
);
}
);
width = 951;
},
{
layerId = "AD6BCF41-EF37-4505-B0B8-48EA3C63FE3E";
shapes = (
{
closed = 1;
nodes = (
(450,790,l),
(595,790,ls),
(918,790,o),
(1032,863,o),
(1032,1070,cs),
(1032,1268,o),
(891,1376,o),
(632,1376,cs),
(495,1376,o),
(353,1332,o),
(272,1272,c),
(250,1303,l),
(336,1371,o),
(486,1414,o),
(643,1414,cs),
(915,1414,o),
(1072,1289,o),
(1072,1072,cs),
(1072,907,o),
(970,785,o),
(816,767,c),
(1010,735,o),
(1136,593,o),
(1136,406,cs),
(1136,162,o),
(927,-4,o),
(618,-4,cs),
(450,-4,o),
(270,43,o),
(168,114,c),
(192,146,l),
(293,79,o),
(460,36,o),
(618,36,cs),
(907,36,o),
(1096,185,o),
(1096,411,cs),
(1096,630,o),
(921,750,o),
(595,750,cs),
(450,750,l)
);
}
);
width = 1268;
},
{
layerId = "8F81F910-5DBA-457E-82E0-752C82078E80";
shapes = (
{
closed = 1;
nodes = (
(338,790,l),
(446,790,ls),
(689,790,o),
(770,863,o),
(770,1070,cs),
(770,1268,o),
(668,1376,o),
(474,1376,cs),
(371,1376,o),
(265,1332,o),
(204,1272,c),
(188,1303,l),
(252,1371,o),
(365,1414,o),
(482,1414,cs),
(686,1414,o),
(808,1289,o),
(808,1072,cs),
(808,907,o),
(728,785,o),
(612,767,c),
(758,735,o),
(856,593,o),
(856,406,cs),
(856,162,o),
(695,-4,o),
(464,-4,cs),
(338,-4,o),
(203,43,o),
(126,114,c),
(144,146,l),
(220,79,o),
(345,36,o),
(464,36,cs),
(680,36,o),
(818,185,o),
(818,411,cs),
(818,630,o),
(691,750,o),
(446,750,cs),
(338,750,l)
);
}
);
width = 951;
}
);
leftKerningGroup = three;
rightKerningGroup = three;
unicode = 51;
},
{
glyphname = four;
layers = (
{
layerId = "15911918-BD0E-422E-8741-0FDE60C5A449";
name = "#instance";
shapes = (
{
closed = 1;
nodes = (
(858,416,l),
(858,456,l),
(681,456,l),
(681,1400,l),
(641,1400,l),
(96,466,l),
(96,416,l),
(643,416,l),
(643,0,l),
(681,0,l),
(681,416,l)
);
},
{
closed = 1;
nodes = (
(128,456,l),
(643,1351,l),
(643,456,l)
);
}
);
width = 951;
},
{
layerId = "CBB0ADCE-2C6B-4C18-8CFE-465C501777A2";
shapes = (
{
closed = 1;
nodes = (
(1222,270,l),
(1222,602,l),
(1062,602,l),
(1062,1400,l),
(554,1400,l),
(44,572,l),
(44,270,l),
(642,270,l),
(642,0,l),
(1062,0,l),
(1062,270,l)
);
},
{
closed = 1;
nodes = (
(444,602,l),
(642,950,l),
(642,602,l)
);
}
);
width = 1268;
},
{
layerId = "EBC752C6-95D9-4DED-AD5D-85333C04496E";
shapes = (
{
closed = 1;
nodes = (
(917,270,l),
(917,602,l),
(801,602,l),
(801,1400,l),
(416,1400,l),
(33,572,l),
(33,270,l),
(478,270,l),
(478,0,l),
(801,0,l),
(801,270,l)
);
},
{
closed = 1;
nodes = (
(333,602,l),
(478,950,l),
(478,602,l)
);
}
);
width = 951;
},
{
layerId = "A31F2A1B-1434-479A-A47A-09846372A702";
shapes = (
{
closed = 1;
nodes = (
(1192,348,l),
(1192,548,l),
(984,548,l),
(985,1400,l),
(708,1400,l),
(82,516,l),
(82,348,l),
(764,348,l),
(764,0,l),
(984,0,l),
(984,348,l)
);
},
{
closed = 1;
nodes = (
(346,548,l),
(765,1153,l),
(764,548,l)
);
}
);
width = 1268;
},
{
layerId = "509FD652-F91B-436C-A4D5-5322A671A429";
shapes = (
{
closed = 1;
nodes = (
(894,348,l),
(894,548,l),
(742,548,l),
(743,1400,l),
(531,1400,l),
(62,516,l),
(62,348,l),
(569,348,l),
(569,0,l),
(742,0,l),
(742,348,l)
);
},
{
closed = 1;
nodes = (
(260,548,l),
(570,1153,l),
(569,548,l)
);
}
);
width = 951;
},
{
layerId = "AD6BCF41-EF37-4505-B0B8-48EA3C63FE3E";
shapes = (
{
closed = 1;
nodes = (
(1144,416,l),
(1144,456,l),
(902,456,l),
(902,1400,l),
(854,1400,l),
(128,466,l),
(128,416,l),
(862,416,l),
(862,0,l),
(902,0,l),
(902,416,l)
);
},
{
closed = 1;
nodes = (
(170,456,l),
(862,1351,l),
(862,456,l)
);
}
);
width = 1268;
},
{
layerId = "8F81F910-5DBA-457E-82E0-752C82078E80";
shapes = (
{
closed = 1;
nodes = (
(858,416,l),
(858,456,l),
(681,456,l),
(681,1400,l),
(641,1400,l),
(96,466,l),
(96,416,l),
(643,416,l),
(643,0,l),
(681,0,l),
(681,416,l)
);
},
{
closed = 1;
nodes = (
(128,456,l),
(643,1351,l),
(643,456,l)
);
}
);
width = 951;
}
);
leftKerningGroup = four;
rightKerningGroup = four;
unicode = 52;
},
{
color = 1;
glyphname = five;
layers = (
{
layerId = "15911918-BD0E-422E-8741-0FDE60C5A449";
name = "#instance";
shapes = (
{
closed = 1;
nodes = (
(278,1378,l),
(262,1360,l),
(832,1360,l),
(832,1400,l),
(242,1400,l),
(224,722,l),
(312,766,o),
(426,794,o),
(514,794,cs),
(710,794,o),
(838,656,o),
(838,446,cs),
(838,196,o),
(710,36,o),
(512,36,cs),
(402,36,o),
(270,86,o),
(172,164,c),
(156,132,l),
(258,50,o),
(392,-4,o),
(512,-4,cs),
(728,-4,o),
(876,172,o),
(876,426,cs),
(876,680,o),
(730,834,o),
(516,834,cs),
(432,834,o),
(330,810,o),
(248,774,c),
(262,760,l)
);
}
);
width = 951;
},
{
layerId = "8F81F910-5DBA-457E-82E0-752C82078E80";
shapes = (
{
closed = 1;
nodes = (
(278,1378,l),
(262,1360,l),
(832,1360,l),
(832,1400,l),
(242,1400,l),
(224,722,l),
(312,766,o),
(426,794,o),
(514,794,cs),
(710,794,o),
(838,656,o),
(838,446,cs),
(838,196,o),
(710,36,o),
(512,36,cs),
(402,36,o),
(270,86,o),
(172,164,c),
(156,132,l),
(258,50,o),
(392,-4,o),
(512,-4,cs),
(728,-4,o),
(876,172,o),
(876,426,cs),
(876,680,o),
(730,834,o),
(516,834,cs),
(432,834,o),
(330,810,o),
(248,774,c),
(262,760,l)
);
}
);
width = 951;
},
{
layerId = "509FD652-F91B-436C-A4D5-5322A671A429";
shapes = (
{
closed = 1;
nodes = (
(349,1304,l),
(271,1200,l),
(831,1200,l),
(831,1400,l),
(181,1400,l),
(161,666,l),
(235,678,o),
(393,696,o),
(441,696,cs),
(605,696,o),
(683,594,o),
(683,446,cs),
(683,290,o),
(597,190,o),
(453,190,cs),
(351,190,o),
(243,240,o),
(153,332,c),
(81,154,l),
(189,56,o),
(341,-10,o),
(479,-10,cs),
(717,-10,o),
(879,180,o),
(879,444,cs),
(879,704,o),
(723,896,o),
(473,896,cs),
(429,896,o),
(325,890,o),
(291,882,c),
(333,780,l)
);
}
);
width = 951;
},
{
layerId = "EBC752C6-95D9-4DED-AD5D-85333C04496E";
shapes = (
{
closed = 1;
nodes = (
(458,1246,l),
(302,1044,l),
(858,1044,l),
(858,1400,l),
(140,1400,l),
(116,560,l),
(176,572,o),
(372,580,o),
(404,580,cs),
(496,580,o),
(528,520,o),
(528,442,cs),
(528,364,o),
(494,320,o),
(420,320,cs),
(324,320,o),
(230,390,o),
(148,482,c),
(24,164,l),
(140,54,o),
(310,-20,o),
(470,-20,cs),
(732,-20,o),
(910,176,o),
(910,458,cs),
(910,732,o),
(742,918,o),
(494,918,cs),
(468,918,o),
(382,916,o),
(264,898,c),
(442,696,l)
);
}
);
width = 951;
},
{
background = {
shapes = (
{
closed = 1;
nodes = (
(561,1046,l),
(1115,1046,l),
(1115,1402,l),
(137,1402,l),
(137,560,l),
(217,560,o),
(469,560,o),
(531,560,cs),
(631,560,o),
(681,522,o),
(681,446,cs),
(681,364,o),
(631,322,o),
(531,322,cs),
(407,322,o),
(293,388,o),
(193,518,c),
(9,166,l),
(163,54,o),
(389,-20,o),
(587,-20,cs),
(947,-20,o),
(1181,176,o),
(1181,478,cs),
(1181,734,o),
(961,898,o),
(623,898,cs),
(615,898,o),
(569,898,o),
(561,898,c)
);
}
);
};
layerId = "CBB0ADCE-2C6B-4C18-8CFE-465C501777A2";
shapes = (
{
closed = 1;
nodes = (
(605,1246,l),
(403,1044,l),
(1143,1044,l),
(1143,1400,l),
(191,1400,l),
(161,560,l),
(241,572,o),
(495,580,o),
(539,580,cs),
(661,580,o),
(709,520,o),
(709,442,cs),
(709,364,o),
(659,320,o),
(559,320,cs),
(431,320,o),
(307,390,o),
(197,482,c),
(31,164,l),
(187,54,o),
(413,-20,o),
(627,-20,cs),
(975,-20,o),
(1209,176,o),
(1209,458,cs),
(1209,732,o),
(989,918,o),
(659,918,cs),
(625,918,o),
(509,916,o),
(353,898,c),
(585,696,l)
);
}
);
width = 1268;
},
{
background = {
shapes = (
{
closed = 1;
nodes = (
(402,1198,l),
(1038,1198,l),
(1036,1400,l),
(184,1400,l),
(184,668,l),
(278,678,o),
(468,686,o),
(552,686,c),
(732,686,o),
(842,596,o),
(842,448,c),
(842,286,o),
(732,188,o),
(550,188,c),
(424,188,o),
(284,240,o),
(172,332,c),
(78,152,l),
(216,56,o),
(410,-8,o),
(576,-8,c),
(890,-8,o),
(1094,178,o),
(1094,462,c),
(1094,706,o),
(898,888,o),
(594,888,c),
(544,888,o),
(458,886,o),
(402,884,c)
);
}
);
};
layerId = "A31F2A1B-1434-479A-A47A-09846372A702";
shapes = (
{
closed = 1;
nodes = (
(460,1304,l),
(362,1200,l),
(1108,1200,l),
(1108,1400,l),
(248,1400,l),
(220,666,l),
(320,678,o),
(524,696,o),
(588,696,cs),
(808,696,o),
(916,594,o),
(916,446,cs),
(916,290,o),
(796,190,o),
(604,190,cs),
(468,190,o),
(324,240,o),
(206,332,c),
(110,154,l),
(254,56,o),
(456,-10,o),
(640,-10,cs),
(956,-10,o),
(1168,180,o),
(1168,444,cs),
(1168,704,o),
(964,896,o),
(632,896,cs),
(574,896,o),
(434,890,o),
(388,882,c),
(440,780,l)
);
}
);
width = 1268;
},
{
background = {
shapes = (
{
closed = 1;
nodes = (
(296,1358,l),
(1002,1358,l),
(1002,1398,l),
(256,1398,l),
(256,722,l),
(364,766,o),
(500,794,o),
(602,794,c),
(850,794,o),
(1012,658,o),
(1012,448,c),
(1012,202,o),
(850,44,o),
(598,44,c),
(470,44,o),
(308,94,o),
(188,172,c),
(168,140,l),
(292,58,o),
(460,4,o),
(598,4,c),
(874,4,o),
(1052,178,o),
(1052,448,c),
(1052,682,o),
(876,834,o),
(602,834,c),
(514,834,o),
(394,812,o),
(296,778,c)
);
}
);
};
layerId = "AD6BCF41-EF37-4505-B0B8-48EA3C63FE3E";
shapes = (
{
closed = 1;
nodes = (
(366,1378,l),
(350,1360,l),
(1110,1360,l),
(1110,1400,l),
(328,1400,l),
(304,722,l),
(422,766,o),
(568,794,o),
(686,794,cs),
(948,794,o),
(1124,656,o),
(1124,446,cs),
(1124,196,o),
(948,36,o),
(684,36,cs),
(536,36,o),
(360,86,o),
(230,164,c),
(210,132,l),
(344,50,o),
(524,-4,o),
(684,-4,cs),
(972,-4,o),
(1164,172,o),
(1164,426,cs),
(1164,680,o),
(974,834,o),
(690,834,cs),
(578,834,o),
(442,810,o),
(332,774,c),
(344,760,l)
);
}
);
width = 1268;
}
);
leftKerningGroup = five;
rightKerningGroup = five;
unicode = 53;
},
{
glyphname = six;
layers = (
{
layerId = "15911918-BD0E-422E-8741-0FDE60C5A449";
name = "#instance";
shapes = (
{
closed = 1;
nodes = (
(798,1314,l),
(754,1341,o),
(706,1363,o),
(658,1379,cs),
(610,1394,o),
(562,1402,o),
(518,1402,cs),
(175,1402,o),
(103,917,o),
(103,664,cs),
(103,408,o),
(165,-4,o),
(503,-4,cs),
(754,-4,o),
(849,230,o),
(849,446,cs),
(849,662,o),
(757,878,o),
(509,878,cs),
(285,878,o),
(172,703,o),
(143,500,c),
(126,758,o),
(138,1362,o),
(521,1362,cs),
(563,1362,o),
(608,1355,o),
(655,1340,cs),
(701,1325,o),
(744,1304,o),
(783,1278,c)
);
},
{
closed = 1;
nodes = (
(728,838,o),
(811,642,o),
(811,450,cs),
(811,252,o),
(723,36,o),
(495,36,cs),
(285,36,o),
(172,245,o),
(172,434,cs),
(172,633,o),
(290,838,o),
(509,838,cs)
);
}
);
width = 951;
},
{
layerId = "CBB0ADCE-2C6B-4C18-8CFE-465C501777A2";
shapes = (
{
closed = 1;
nodes = (
(1180,1300,l),
(1121,1339,o),
(1046,1369,o),
(965,1390,cs),
(884,1410,o),
(796,1422,o),
(712,1422,cs),
(278,1422,o),
(50,1092,o),
(50,684,cs),
(50,297,o),
(249,-20,o),
(666,-20,cs),
(966,-20,o),
(1198,158,o),
(1198,472,cs),
(1198,740,o),
(1031,934,o),
(756,934,cs),
(645,934,o),
(547,902,o),
(470,820,c),
(470,995,o),
(564,1084,o),
(738,1084,cs),
(792,1084,o),
(842,1076,o),
(888,1061,c),
(933,1045,o),
(975,1022,o),
(1012,992,c)
);
},
{
closed = 1;
nodes = (
(743,614,o),
(788,564,o),
(788,474,cs),
(788,383,o),
(743,332,o),
(650,332,cs),
(559,332,o),
(510,381,o),
(510,472,cs),
(510,564,o),
(560,614,o),
(652,614,cs)
);
}
);
width = 1268;
},
{
layerId = "EBC752C6-95D9-4DED-AD5D-85333C04496E";
shapes = (
{
closed = 1;
nodes = (
(885,1300,l),
(841,1339,o),
(785,1369,o),
(724,1390,cs),
(663,1410,o),
(597,1422,o),
(534,1422,cs),
(151,1422,o),
(34,992,o),
(34,684,cs),
(34,393,o),
(135,-20,o),
(500,-20,cs),
(776,-20,o),
(903,226,o),
(903,472,cs),
(903,677,o),
(813,934,o),
(567,934,cs),
(475,934,o),
(405,894,o),
(353,820,c),
(353,956,o),
(396,1084,o),
(554,1084,cs),
(594,1084,o),
(632,1076,o),
(666,1061,c),
(700,1045,o),
(731,1022,o),
(759,992,c)
);
},
{
closed = 1;
nodes = (
(572,614,o),
(587,543,o),
(587,474,cs),
(587,404,o),
(571,332,o),
(488,332,cs),
(405,332,o),
(387,401,o),
(387,472,cs),
(387,542,o),
(406,614,o),
(489,614,cs)
);
}
);
width = 951;
},
{
layerId = "A31F2A1B-1434-479A-A47A-09846372A702";
shapes = (
{
closed = 1;
nodes = (
(1112,1304,l),
(1055,1336,o),
(985,1362,o),
(912,1381,cs),
(839,1400,o),
(763,1410,o),
(694,1410,cs),
(272,1410,o),
(90,1047,o),
(90,670,cs),
(90,306,o),
(259,-10,o),
(660,-10,cs),
(948,-10,o),
(1154,161,o),
(1154,458,cs),
(1154,736,o),
(978,904,o),
(702,904,cs),
(541,904,o),
(400,844,o),
(320,698,c),
(312,961,o),
(404,1224,o),
(710,1224,cs),
(763,1224,o),
(818,1216,o),
(873,1201,cs),
(928,1186,o),
(977,1164,o),
(1020,1136,c)
);
},
{
closed = 1;
nodes = (
(825,728,o),
(934,629,o),
(934,460,cs),
(934,287,o),
(818,182,o),
(648,182,cs),
(491,182,o),
(355,285,o),
(358,450,c),
(356,623,o),
(494,728,o),
(658,728,cs)
);
}
);
width = 1268;
},
{
layerId = "509FD652-F91B-436C-A4D5-5322A671A429";
shapes = (
{
closed = 1;
nodes = (
(834,1304,l),
(791,1336,o),
(739,1362,o),
(684,1381,cs),
(629,1400,o),
(572,1410,o),
(521,1410,cs),
(157,1410,o),
(64,950,o),
(64,670,cs),
(64,398,o),
(147,-10,o),
(495,-10,cs),
(759,-10,o),
(870,226,o),
(870,458,cs),
(870,673,o),
(777,904,o),
(527,904,cs),
(386,904,o),
(292,825,o),
(240,698,c),
(235,891,o),
(273,1224,o),
(533,1224,cs),
(572,1224,o),
(614,1216,o),
(655,1201,cs),
(696,1186,o),
(733,1164,o),
(765,1136,c)
);
},
{
closed = 1;
nodes = (
(645,728,o),
(697,591,o),
(697,460,cs),
(697,325,o),
(641,182,o),
(486,182,cs),
(340,182,o),
(271,319,o),
(273,450,c),
(271,587,o),
(341,728,o),
(494,728,cs)
);
}
);
width = 951;
},
{
layerId = "AD6BCF41-EF37-4505-B0B8-48EA3C63FE3E";
shapes = (
{
closed = 1;
nodes = (
(1064,1314,l),
(1005,1341,o),
(941,1363,o),
(877,1379,cs),
(813,1394,o),
(749,1402,o),
(690,1402,cs),
(285,1402,o),
(142,1008,o),
(142,664,cs),
(142,317,o),
(275,-4,o),
(670,-4,cs),
(947,-4,o),
(1126,167,o),
(1126,446,cs),
(1126,723,o),
(950,878,o),
(678,878,cs),
(430,878,o),
(239,750,o),
(190,500,c),
(158,859,o),
(231,1362,o),
(694,1362,cs),
(751,1362,o),
(811,1355,o),
(873,1340,cs),
(935,1325,o),
(992,1304,o),
(1044,1278,c)
);
},
{
closed = 1;
nodes = (
(918,838,o),
(1086,697,o),
(1086,450,cs),
(1086,195,o),
(911,36,o),
(660,36,cs),
(433,36,o),
(224,196,o),
(224,434,cs),
(224,684,o),
(444,838,o),
(678,838,cs)
);
}
);
width = 1268;
},
{
layerId = "8F81F910-5DBA-457E-82E0-752C82078E80";
shapes = (
{
closed = 1;
nodes = (
(798,1314,l),
(754,1341,o),
(706,1363,o),
(658,1379,cs),
(610,1394,o),
(562,1402,o),
(518,1402,cs),
(175,1402,o),
(103,917,o),
(103,664,cs),
(103,408,o),
(165,-4,o),
(503,-4,cs),
(754,-4,o),
(849,230,o),
(849,446,cs),
(849,662,o),
(757,878,o),
(509,878,cs),
(285,878,o),
(172,703,o),
(143,500,c),
(126,758,o),
(138,1362,o),
(521,1362,cs),
(563,1362,o),
(608,1355,o),
(655,1340,cs),
(701,1325,o),
(744,1304,o),
(783,1278,c)
);
},
{
closed = 1;
nodes = (
(728,838,o),
(811,642,o),
(811,450,cs),
(811,252,o),
(723,36,o),
(495,36,cs),
(285,36,o),
(172,245,o),
(172,434,cs),
(172,633,o),
(290,838,o),
(509,838,cs)
);
}
);
width = 951;
}
);
leftKerningGroup = zero;
rightKerningGroup = six;
unicode = 54;
},
{
glyphname = seven;
layers = (
{
layerId = "CBB0ADCE-2C6B-4C18-8CFE-465C501777A2";
shapes = (
{
closed = 1;
nodes = (
(62,1044,l),
(737,1044,l),
(719,1071,l),
(248,0,l),
(736,0,l),
(1218,1092,l),
(1218,1400,l),
(62,1400,l)
);
}
);
width = 1268;
},
{
layerId = "EBC752C6-95D9-4DED-AD5D-85333C04496E";
shapes = (
{
closed = 1;
nodes = (
(47,1044,l),
(553,1044,l),
(539,1071,l),
(186,0,l),
(552,0,l),
(914,1092,l),
(914,1400,l),
(47,1400,l)
);
}
);
width = 951;
},
{
layerId = "A31F2A1B-1434-479A-A47A-09846372A702";
shapes = (
{
closed = 1;
nodes = (
(114,1202,l),
(948,1200,l),
(931,1227,l),
(340,0,l),
(590,0,l),
(1180,1230,l),
(1180,1400,l),
(114,1400,l)
);
}
);
width = 1268;
},
{
layerId = "509FD652-F91B-436C-A4D5-5322A671A429";
shapes = (
{
closed = 1;
nodes = (
(86,1202,l),
(711,1200,l),
(698,1227,l),
(255,0,l),
(443,0,l),
(885,1230,l),
(885,1400,l),
(86,1400,l)
);
}
);
width = 951;
},
{
layerId = "AD6BCF41-EF37-4505-B0B8-48EA3C63FE3E";
shapes = (
{
closed = 1;
nodes = (
(164,1360,l),
(1146,1360,l),
(1129,1387,l),
(422,0,l),
(466,0,l),
(1152,1350,l),
(1152,1400,l),
(164,1400,l)
);
}
);
width = 1268;
},
{
layerId = "8F81F910-5DBA-457E-82E0-752C82078E80";
shapes = (
{
closed = 1;
nodes = (
(123,1360,l),
(860,1360,l),
(847,1387,l),
(317,0,l),
(350,0,l),
(864,1350,l),
(864,1400,l),
(123,1400,l)
);
}
);
width = 951;
}
);
leftKerningGroup = seven;
rightKerningGroup = seven;
unicode = 55;
},
{
glyphname = eight;
layers = (
{
layerId = "15911918-BD0E-422E-8741-0FDE60C5A449";
name = "#instance";
shapes = (
{
closed = 1;
nodes = (
(270,1402,o),
(154,1271,o),
(154,1070,cs),
(154,925,o),
(215,808,o),
(354,752,c),
(185,699,o),
(104,562,o),
(104,390,cs),
(104,156,o),
(233,-4,o),
(476,-4,cs),
(716,-4,o),
(846,159,o),
(846,390,cs),
(846,561,o),
(765,699,o),
(596,752,c),
(735,808,o),
(796,925,o),
(796,1070,cs),
(796,1270,o),
(682,1402,o),
(476,1402,cs)
);
},
{
closed = 1;
nodes = (
(681,726,o),
(808,600,o),
(808,392,cs),
(808,180,o),
(695,36,o),
(476,36,cs),
(256,36,o),
(142,181,o),
(142,394,cs),
(142,600,o),
(269,726,o),
(474,726,cs)
);
},
{
closed = 1;
nodes = (
(659,1362,o),
(758,1246,o),
(758,1066,cs),
(758,886,o),
(661,766,o),
(476,766,cs),
(291,766,o),
(192,885,o),
(192,1066,cs),
(192,1246,o),
(293,1362,o),
(476,1362,cs)
);
}
);
width = 951;
},
{
layerId = "CBB0ADCE-2C6B-4C18-8CFE-465C501777A2";
shapes = (
{
closed = 1;
nodes = (
(394,1422,o),
(120,1323,o),
(120,1044,cs),
(120,930,o),
(192,816,o),
(282,750,c),
(146,683,o),
(46,543,o),
(46,388,cs),
(46,81,o),
(380,-20,o),
(632,-20,cs),
(891,-20,o),
(1220,83,o),
(1220,396,cs),
(1220,544,o),
(1136,680,o),
(1006,750,c),
(1090,813,o),
(1146,925,o),
(1146,1030,cs),
(1146,1315,o),
(875,1422,o),
(630,1422,cs)
);
},
{
closed = 1;
nodes = (
(723,568,o),
(788,533,o),
(788,436,cs),
(788,340,o),
(718,310,o),
(632,310,cs),
(548,310,o),
(480,342,o),
(480,436,cs),
(480,533,o),
(545,568,o),
(634,568,cs)
);
},
{
closed = 1;
nodes = (
(711,1122,o),
(762,1090,o),
(762,1006,cs),
(762,925,o),
(706,898,o),
(632,898,cs),
(560,898,o),
(504,928,o),
(504,1006,cs),
(504,1088,o),
(555,1122,o),
(632,1122,cs)
);
}
);
width = 1268;
},
{
layerId = "EBC752C6-95D9-4DED-AD5D-85333C04496E";
shapes = (
{
closed = 1;
nodes = (
(242,1422,o),
(86,1276,o),
(86,1044,cs),
(86,939,o),
(137,823,o),
(212,750,c),
(95,674,o),
(31,524,o),
(31,388,cs),
(31,128,o),
(225,-20,o),
(474,-20,cs),
(729,-20,o),
(919,133,o),
(919,396,cs),
(919,528,o),
(864,670,o),
(755,750,c),
(823,818,o),
(864,936,o),
(864,1030,cs),
(864,1265,o),
(710,1422,o),
(473,1422,cs)
);
},
{
closed = 1;
nodes = (
(560,568,o),
(587,514,o),
(587,436,cs),
(587,358,o),
(556,310,o),
(474,310,cs),
(394,310,o),
(364,360,o),
(364,436,cs),
(364,515,o),
(391,568,o),
(476,568,cs)
);
},
{
closed = 1;
nodes = (
(548,1122,o),
(568,1073,o),
(568,1006,cs),
(568,941,o),
(543,898,o),
(474,898,cs),
(407,898,o),
(382,943,o),
(382,1006,cs),
(382,1070,o),
(402,1122,o),
(474,1122,cs)
);
}
);
width = 951;
},
{
layerId = "A31F2A1B-1434-479A-A47A-09846372A702";
shapes = (
{
closed = 1;
nodes = (
(409,1410,o),
(168,1316,o),
(168,1056,cs),
(168,911,o),
(257,807,o),
(384,748,c),
(220,693,o),
(100,568,o),
(100,388,cs),
(100,92,o),
(382,-10,o),
(634,-10,cs),
(888,-10,o),
(1168,94,o),
(1168,392,cs),
(1168,568,o),
(1055,692,o),
(894,748,c),
(1019,804,o),
(1098,909,o),
(1098,1048,cs),
(1098,1313,o),
(862,1410,o),
(632,1410,cs)
);
},
{
closed = 1;
nodes = (
(788,650,o),
(946,590,o),
(946,410,cs),
(946,229,o),
(792,166,o),
(634,166,cs),
(475,166,o),
(322,230,o),
(322,412,cs),
(322,591,o),
(477,650,o),
(632,650,cs)
);
},
{
closed = 1;
nodes = (
(772,1248,o),
(898,1192,o),
(898,1036,cs),
(898,880,o),
(772,824,o),
(634,824,cs),
(497,824,o),
(368,880,o),
(368,1036,cs),
(368,1192,o),
(497,1248,o),
(634,1248,cs)
);
}
);
width = 1268;
},
{
layerId = "509FD652-F91B-436C-A4D5-5322A671A429";
shapes = (
{
closed = 1;
nodes = (
(258,1410,o),
(122,1270,o),
(122,1056,cs),
(122,930,o),
(179,815,o),
(288,748,c),
(144,684,o),
(71,541,o),
(71,388,cs),
(71,142,o),
(231,-10,o),
(476,-10,cs),
(723,-10,o),
(880,146,o),
(880,392,cs),
(880,542,o),
(813,683,o),
(671,748,c),
(777,811,o),
(828,929,o),
(828,1048,cs),
(828,1266,o),
(696,1410,o),
(474,1410,cs)
);
},
{
closed = 1;
nodes = (
(624,650,o),
(706,559,o),
(706,410,cs),
(706,262,o),
(627,166,o),
(476,166,cs),
(322,166,o),
(246,262,o),
(246,412,cs),
(246,560,o),
(324,650,o),
(474,650,cs)
);
},
{
closed = 1;
nodes = (
(608,1248,o),
(670,1163,o),
(670,1036,cs),
(670,909,o),
(608,824,o),
(476,824,cs),
(345,824,o),
(280,909,o),
(280,1036,cs),
(280,1163,o),
(345,1248,o),
(476,1248,cs)
);
}
);
width = 951;
},
{
layerId = "AD6BCF41-EF37-4505-B0B8-48EA3C63FE3E";
shapes = (
{
closed = 1;
nodes = (
(421,1402,o),
(210,1314,o),
(210,1070,cs),
(210,899,o),
(316,799,o),
(472,752,c),
(285,708,o),
(144,595,o),
(144,390,cs),
(144,104,o),
(381,-4,o),
(634,-4,cs),
(887,-4,o),
(1122,105,o),
(1122,390,cs),
(1122,595,o),
(982,708,o),
(794,752,c),
(951,799,o),
(1056,898,o),
(1056,1070,cs),
(1056,1315,o),
(848,1402,o),
(634,1402,cs)
);
},
{
closed = 1;
nodes = (
(844,726,o),
(1082,642,o),
(1082,392,cs),
(1082,132,o),
(863,36,o),
(634,36,cs),
(405,36,o),
(184,134,o),
(184,394,cs),
(184,642,o),
(422,726,o),
(632,726,cs)
);
},
{
closed = 1;
nodes = (
(824,1362,o),
(1016,1285,o),
(1016,1066,cs),
(1016,845,o),
(827,766,o),
(634,766,cs),
(443,766,o),
(250,847,o),
(250,1066,cs),
(250,1284,o),
(445,1362,o),
(634,1362,cs)
);
}
);
width = 1268;
},
{
layerId = "8F81F910-5DBA-457E-82E0-752C82078E80";
shapes = (
{
closed = 1;
nodes = (
(270,1402,o),
(154,1271,o),
(154,1070,cs),
(154,925,o),
(215,808,o),
(354,752,c),
(185,699,o),
(104,562,o),
(104,390,cs),
(104,156,o),
(233,-4,o),
(476,-4,cs),
(716,-4,o),
(846,159,o),
(846,390,cs),
(846,561,o),
(765,699,o),
(596,752,c),
(735,808,o),
(796,925,o),
(796,1070,cs),
(796,1270,o),
(682,1402,o),
(476,1402,cs)
);
},
{
closed = 1;
nodes = (
(681,726,o),
(808,600,o),
(808,392,cs),
(808,180,o),
(695,36,o),
(476,36,cs),
(256,36,o),
(142,181,o),
(142,394,cs),
(142,600,o),
(269,726,o),
(474,726,cs)
);
},
{
closed = 1;
nodes = (
(659,1362,o),
(758,1246,o),
(758,1066,cs),
(758,886,o),
(661,766,o),
(476,766,cs),
(291,766,o),
(192,885,o),
(192,1066,cs),
(192,1246,o),
(293,1362,o),
(476,1362,cs)
);
}
);
width = 951;
}
);
leftKerningGroup = eight;
rightKerningGroup = eight;
unicode = 56;
},
{
glyphname = nine;
layers = (
{
layerId = "15911918-BD0E-422E-8741-0FDE60C5A449";
name = "#instance";
shapes = (
{
closed = 1;
nodes = (
(146,84,l),
(190,57,o),
(236,35,o),
(284,20,cs),
(331,4,o),
(379,-4,o),
(422,-4,cs),
(763,-4,o),
(834,488,o),
(834,738,cs),
(834,992,o),
(774,1402,o),
(438,1402,cs),
(187,1402,o),
(95,1171,o),
(95,956,cs),
(95,743,o),
(186,522,o),
(432,522,cs),
(653,522,o),
(763,702,o),
(790,902,c),
(807,647,o),
(800,36,o),
(419,36,cs),
(334,36,o),
(238,68,o),
(161,120,c)
);
},
{
closed = 1;
nodes = (
(654,1362,o),
(764,1154,o),
(764,968,cs),
(764,771,o),
(651,562,o),
(432,562,cs),
(214,562,o),
(133,762,o),
(133,952,cs),
(133,1148,o),
(220,1362,o),
(446,1362,cs)
);
}
);
width = 951;
},
{
layerId = "CBB0ADCE-2C6B-4C18-8CFE-465C501777A2";
shapes = (
{
closed = 1;
nodes = (
(88,104,l),
(148,67,o),
(224,36,o),
(305,14,cs),
(385,-9,o),
(473,-20,o),
(554,-20,cs),
(991,-20,o),
(1218,309,o),
(1218,720,cs),
(1218,1109,o),
(1023,1422,o),
(604,1422,cs),
(302,1422,o),
(72,1248,o),
(72,932,cs),
(72,667,o),
(239,468,o),
(512,468,cs),
(617,468,o),
(727,503,o),
(798,584,c),
(798,407,o),
(703,320,o),
(528,320,cs),
(421,320,o),
(331,349,o),
(256,412,c)
);
},
{
closed = 1;
nodes = (
(710,1072,o),
(758,1024,o),
(758,932,cs),
(758,840,o),
(708,790,o),
(616,790,cs),
(526,790,o),
(482,842,o),
(482,930,cs),
(482,1021,o),
(525,1072,o),
(618,1072,cs)
);
}
);
width = 1268;
},
{
layerId = "EBC752C6-95D9-4DED-AD5D-85333C04496E";
shapes = (
{
closed = 1;
nodes = (
(66,104,l),
(111,67,o),
(168,36,o),
(229,14,cs),
(289,-9,o),
(355,-20,o),
(416,-20,cs),
(800,-20,o),
(918,410,o),
(918,720,cs),
(918,1012,o),
(819,1422,o),
(453,1422,cs),
(174,1422,o),
(50,1181,o),
(50,932,cs),
(50,730,o),
(141,468,o),
(384,468,cs),
(472,468,o),
(546,511,o),
(595,584,c),
(595,447,o),
(554,320,o),
(396,320,cs),
(316,320,o),
(248,349,o),
(192,412,c)
);
},
{
closed = 1;
nodes = (
(546,1072,o),
(565,1002,o),
(565,932,cs),
(565,861,o),
(545,790,o),
(462,790,cs),
(381,790,o),
(366,862,o),
(366,930,cs),
(366,1000,o),
(380,1072,o),
(464,1072,cs)
);
}
);
width = 951;
},
{
layerId = "A31F2A1B-1434-479A-A47A-09846372A702";
shapes = (
{
closed = 1;
nodes = (
(144,96,l),
(201,64,o),
(271,38,o),
(343,19,cs),
(415,0,o),
(491,-10,o),
(560,-10,cs),
(982,-10,o),
(1162,354,o),
(1162,730,cs),
(1162,1095,o),
(998,1410,o),
(594,1410,cs),
(306,1410,o),
(104,1237,o),
(104,942,cs),
(104,667,o),
(278,496,o),
(552,496,cs),
(714,496,o),
(852,556,o),
(932,702,c),
(939,441,o),
(849,176,o),
(544,176,cs),
(437,176,o),
(323,208,o),
(236,264,c)
);
},
{
closed = 1;
nodes = (
(765,1218,o),
(897,1117,o),
(894,950,c),
(896,779,o),
(760,672,o),
(596,672,cs),
(431,672,o),
(324,774,o),
(324,940,cs),
(324,1111,o),
(436,1218,o),
(606,1218,cs)
);
}
);
width = 1268;
},
{
layerId = "509FD652-F91B-436C-A4D5-5322A671A429";
shapes = (
{
closed = 1;
nodes = (
(108,96,l),
(151,64,o),
(203,38,o),
(257,19,cs),
(311,0,o),
(368,-10,o),
(420,-10,cs),
(782,-10,o),
(876,451,o),
(876,730,cs),
(876,1001,o),
(795,1410,o),
(446,1410,cs),
(183,1410,o),
(74,1172,o),
(74,942,cs),
(74,730,o),
(166,496,o),
(414,496,cs),
(555,496,o),
(643,575,o),
(695,702,c),
(699,510,o),
(668,176,o),
(408,176,cs),
(328,176,o),
(242,208,o),
(177,264,c)
);
},
{
closed = 1;
nodes = (
(603,1218,o),
(667,1081,o),
(667,950,c),
(667,815,o),
(599,672,o),
(447,672,cs),
(298,672,o),
(247,812,o),
(247,940,cs),
(247,1073,o),
(301,1218,o),
(455,1218,cs)
);
}
);
width = 951;
},
{
layerId = "AD6BCF41-EF37-4505-B0B8-48EA3C63FE3E";
shapes = (
{
closed = 1;
nodes = (
(194,84,l),
(253,57,o),
(315,35,o),
(378,20,cs),
(441,4,o),
(505,-4,o),
(562,-4,cs),
(968,-4,o),
(1106,396,o),
(1106,738,cs),
(1106,1083,o),
(977,1402,o),
(584,1402,cs),
(308,1402,o),
(132,1234,o),
(132,956,cs),
(132,682,o),
(306,522,o),
(576,522,cs),
(820,522,o),
(1014,655,o),
(1058,902,c),
(1090,546,o),
(1020,36,o),
(558,36,cs),
(445,36,o),
(317,68,o),
(214,120,c)
);
},
{
closed = 1;
nodes = (
(819,1362,o),
(1024,1203,o),
(1024,968,cs),
(1024,720,o),
(811,562,o),
(576,562,cs),
(337,562,o),
(172,708,o),
(172,952,cs),
(172,1205,o),
(345,1362,o),
(594,1362,cs)
);
}
);
width = 1268;
},
{
layerId = "8F81F910-5DBA-457E-82E0-752C82078E80";
shapes = (
{
closed = 1;
nodes = (
(146,84,l),
(190,57,o),
(236,35,o),
(284,20,cs),
(331,4,o),
(379,-4,o),
(422,-4,cs),
(763,-4,o),
(834,488,o),
(834,738,cs),
(834,992,o),
(774,1402,o),
(438,1402,cs),
(187,1402,o),
(95,1171,o),
(95,956,cs),
(95,743,o),
(186,522,o),
(432,522,cs),
(653,522,o),
(763,702,o),
(790,902,c),
(807,647,o),
(800,36,o),
(419,36,cs),
(334,36,o),
(238,68,o),
(161,120,c)
);
},
{
closed = 1;
nodes = (
(654,1362,o),
(764,1154,o),
(764,968,cs),
(764,771,o),
(651,562,o),
(432,562,cs),
(214,562,o),
(133,762,o),
(133,952,cs),
(133,1148,o),
(220,1362,o),
(446,1362,cs)
);
}
);
width = 951;
}
);
leftKerningGroup = nine;
rightKerningGroup = zero;
unicode = 57;
},
{
glyphname = less;
layers = (
{
layerId = "15911918-BD0E-422E-8741-0FDE60C5A449";
name = "#instance";
shapes = (
{
closed = 1;
nodes = (
(56,682,l),
(56,630,l),
(660,258,l),
(660,302,l),
(93,656,l),
(660,1010,l),
(660,1054,l)
);
}
);
width = 720;
},
{
layerId = "CBB0ADCE-2C6B-4C18-8CFE-465C501777A2";
shapes = (
{
closed = 1;
nodes = (
(60,824,l),
(60,468,l),
(980,98,l),
(980,410,l),
(348,646,l),
(980,882,l),
(980,1194,l)
);
}
);
width = 1040;
},
{
layerId = "EBC752C6-95D9-4DED-AD5D-85333C04496E";
shapes = (
{
closed = 1;
nodes = (
(41,824,l),
(41,468,l),
(735,98,l),
(735,410,l),
(265,646,l),
(735,882,l),
(735,1194,l)
);
}
);
width = 780;
},
{
layerId = "A31F2A1B-1434-479A-A47A-09846372A702";
shapes = (
{
closed = 1;
nodes = (
(70,748,l),
(70,556,l),
(926,184,l),
(926,352,l),
(224,652,l),
(926,950,l),
(926,1118,l)
);
}
);
width = 996;
},
{
layerId = "509FD652-F91B-436C-A4D5-5322A671A429";
shapes = (
{
closed = 1;
nodes = (
(49,748,l),
(49,556,l),
(695,184,l),
(695,352,l),
(172,652,l),
(695,950,l),
(695,1118,l)
);
}
);
width = 747;
},
{
layerId = "AD6BCF41-EF37-4505-B0B8-48EA3C63FE3E";
shapes = (
{
closed = 1;
nodes = (
(80,682,l),
(80,630,l),
(880,258,l),
(880,302,l),
(118,656,l),
(880,1010,l),
(880,1054,l)
);
}
);
width = 960;
},
{
layerId = "8F81F910-5DBA-457E-82E0-752C82078E80";
shapes = (
{
closed = 1;
nodes = (
(56,682,l),
(56,630,l),
(660,258,l),
(660,302,l),
(93,656,l),
(660,1010,l),
(660,1054,l)
);
}
);
width = 720;
}
);
leftKerningGroup = less;
rightKerningGroup = less;
unicode = 60;
},
{
glyphname = equal;
layers = (
{
layerId = "CBB0ADCE-2C6B-4C18-8CFE-465C501777A2";
shapes = (
{
closed = 1;
nodes = (
(60,738,l),
(980,738,l),
(980,1018,l),
(60,1018,l)
);
},
{
closed = 1;
nodes = (
(60,298,l),
(980,298,l),
(980,578,l),
(60,578,l)
);
}
);
width = 1040;
},
{
layerId = "EBC752C6-95D9-4DED-AD5D-85333C04496E";
shapes = (
{
closed = 1;
nodes = (
(45,738,l),
(735,738,l),
(735,1018,l),
(45,1018,l)
);
},
{
closed = 1;
nodes = (
(45,298,l),
(735,298,l),
(735,578,l),
(45,578,l)
);
}
);
width = 780;
},
{
layerId = "A31F2A1B-1434-479A-A47A-09846372A702";
shapes = (
{
closed = 1;
nodes = (
(70,782,l),
(926,782,l),
(926,932,l),
(70,932,l)
);
},
{
closed = 1;
nodes = (
(70,364,l),
(926,364,l),
(926,514,l),
(70,514,l)
);
}
);
width = 996;
},
{
layerId = "509FD652-F91B-436C-A4D5-5322A671A429";
shapes = (
{
closed = 1;
nodes = (
(53,782,l),
(695,782,l),
(695,932,l),
(53,932,l)
);
},
{
closed = 1;
nodes = (
(53,364,l),
(695,364,l),
(695,514,l),
(53,514,l)
);
}
);
width = 747;
},
{
layerId = "AD6BCF41-EF37-4505-B0B8-48EA3C63FE3E";
shapes = (
{
closed = 1;
nodes = (
(80,820,l),
(880,820,l),
(880,860,l),
(80,860,l)
);
},
{
closed = 1;
nodes = (
(80,420,l),
(880,420,l),
(880,460,l),
(80,460,l)
);
}
);
width = 960;
},
{
layerId = "8F81F910-5DBA-457E-82E0-752C82078E80";
shapes = (
{
closed = 1;
nodes = (
(60,820,l),
(660,820,l),
(660,860,l),
(60,860,l)
);
},
{
closed = 1;
nodes = (
(60,420,l),
(660,420,l),
(660,460,l),
(60,460,l)
);
}
);
width = 720;
}
);
leftKerningGroup = equal;
rightKerningGroup = equal;
unicode = 61;
},
{
glyphname = greater;
layers = (
{
layerId = "15911918-BD0E-422E-8741-0FDE60C5A449";
name = "#instance";
shapes = (
{
closed = 1;
nodes = (
(664,630,l),
(664,682,l),
(60,1054,l),
(60,1010,l),
(628,656,l),
(60,302,l),
(60,258,l)
);
}
);
width = 720;
},
{
layerId = "CBB0ADCE-2C6B-4C18-8CFE-465C501777A2";
shapes = (
{
closed = 1;
nodes = (
(980,468,l),
(980,824,l),
(60,1194,l),
(60,882,l),
(692,646,l),
(60,410,l),
(60,98,l)
);
}
);
width = 1040;
},
{
layerId = "EBC752C6-95D9-4DED-AD5D-85333C04496E";
shapes = (
{
closed = 1;
nodes = (
(739,468,l),
(739,824,l),
(45,1194,l),
(45,882,l),
(515,646,l),
(45,410,l),
(45,98,l)
);
}
);
width = 780;
},
{
layerId = "A31F2A1B-1434-479A-A47A-09846372A702";
shapes = (
{
closed = 1;
nodes = (
(926,554,l),
(926,746,l),
(70,1118,l),
(70,950,l),
(772,650,l),
(70,352,l),
(70,184,l)
);
}
);
width = 996;
},
{
layerId = "509FD652-F91B-436C-A4D5-5322A671A429";
shapes = (
{
closed = 1;
nodes = (
(699,554,l),
(699,746,l),
(53,1118,l),
(53,950,l),
(575,650,l),
(53,352,l),
(53,184,l)
);
}
);
width = 747;
},
{
layerId = "AD6BCF41-EF37-4505-B0B8-48EA3C63FE3E";
shapes = (
{
closed = 1;
nodes = (
(880,630,l),
(880,682,l),
(80,1054,l),
(80,1010,l),
(842,656,l),
(80,302,l),
(80,258,l)
);
}
);
width = 960;
},
{
layerId = "8F81F910-5DBA-457E-82E0-752C82078E80";
shapes = (
{
closed = 1;
nodes = (
(664,630,l),
(664,682,l),
(60,1054,l),
(60,1010,l),
(628,656,l),
(60,302,l),
(60,258,l)
);
}
);
width = 720;
}
);
leftKerningGroup = greater;
rightKerningGroup = greater;
unicode = 62;
},
{
glyphname = question;
layers = (
{
layerId = "15911918-BD0E-422E-8741-0FDE60C5A449";
name = "#instance";
shapes = (
{
closed = 1;
nodes = (
(327,380,l),
(315,414,o),
(311,450,o),
(311,478,cs),
(311,556,o),
(365,603,o),
(431,655,cs),
(572,767,l),
(647,825,o),
(702,925,o),
(702,1072,cs),
(702,1270,o),
(573,1406,o),
(375,1406,cs),
(222,1406,o),
(108,1342,o),
(30,1226,c),
(51,1198,l),
(128,1312,o),
(231,1368,o),
(375,1368,cs),
(566,1368,o),
(664,1242,o),
(664,1070,cs),
(664,949,o),
(627,860,o),
(563,807,cs),
(427,696,ls),
(350,633,o),
(281,583,o),
(281,488,cs),
(281,452,o),
(285,412,o),
(302,366,c)
);
},
{
closed = 1;
nodes = (
(336,-6,o),
(358,18,o),
(358,46,cs),
(358,74,o),
(336,98,o),
(315,98,cs),
(294,98,o),
(272,74,o),
(272,46,cs),
(272,18,o),
(294,-6,o),
(315,-6,cs)
);
}
);
width = 831;
},
{
layerId = "CBB0ADCE-2C6B-4C18-8CFE-465C501777A2";
shapes = (
{
closed = 1;
nodes = (
(784,563,l),
(782,574,o),
(778,586,o),
(778,604,cs),
(778,645,o),
(831,666,o),
(892,705,cs),
(1026,790,ls),
(1099,836,o),
(1146,924,o),
(1146,1050,cs),
(1146,1300,o),
(912,1432,o),
(598,1432,cs),
(278,1432,o),
(76,1300,o),
(-26,1108,c),
(330,930,l),
(372,1014,o),
(452,1066,o),
(538,1066,cs),
(612,1066,o),
(672,1034,o),
(672,972,cs),
(672,924,o),
(637,887,o),
(589,856,cs),
(483,787,ls),
(420,746,o),
(368,694,o),
(368,616,cs),
(368,586,o),
(370,550,o),
(384,508,c)
);
},
{
closed = 1;
nodes = (
(740,-20,o),
(848,88,o),
(848,220,cs),
(848,354,o),
(740,456,o),
(584,456,cs),
(428,456,o),
(320,354,o),
(320,220,cs),
(320,88,o),
(428,-20,o),
(584,-20,cs)
);
}
);
width = 1212;
},
{
layerId = "EBC752C6-95D9-4DED-AD5D-85333C04496E";
shapes = (
{
closed = 1;
nodes = (
(588,563,l),
(587,574,o),
(584,586,o),
(584,604,cs),
(584,645,o),
(623,666,o),
(669,705,cs),
(770,790,ls),
(824,836,o),
(864,924,o),
(864,1050,cs),
(864,1300,o),
(684,1432,o),
(449,1432,cs),
(209,1432,o),
(57,1300,o),
(-20,1108,c),
(248,930,l),
(279,1014,o),
(339,1066,o),
(404,1066,cs),
(459,1066,o),
(500,1034,o),
(500,972,cs),
(500,924,o),
(478,887,o),
(442,856,cs),
(362,787,ls),
(315,746,o),
(276,694,o),
(276,616,cs),
(276,586,o),
(278,550,o),
(288,508,c)
);
},
{
closed = 1;
nodes = (
(555,-20,o),
(640,88,o),
(640,220,cs),
(640,354,o),
(555,456,o),
(438,456,cs),
(321,456,o),
(236,354,o),
(236,220,cs),
(236,88,o),
(321,-20,o),
(438,-20,cs)
);
}
);
width = 909;
},
{
layerId = "A31F2A1B-1434-479A-A47A-09846372A702";
shapes = (
{
closed = 1;
nodes = (
(619,455,l),
(608,484,o),
(598,510,o),
(598,534,cs),
(598,606,o),
(657,649,o),
(730,695,cs),
(886,793,ls),
(968,845,o),
(1024,930,o),
(1024,1058,cs),
(1024,1284,o),
(834,1418,o),
(542,1418,cs),
(304,1418,o),
(126,1332,o),
(14,1186,c),
(182,1068,l),
(258,1168,o),
(370,1224,o),
(526,1224,cs),
(692,1224,o),
(794,1142,o),
(794,1022,cs),
(794,956,o),
(746,912,o),
(680,874,cs),
(534,790,ls),
(447,740,o),
(376,666,o),
(376,546,cs),
(376,508,o),
(390,464,o),
(416,410,c)
);
},
{
closed = 1;
nodes = (
(608,-12,o),
(668,52,o),
(668,130,cs),
(668,210,o),
(608,272,o),
(524,272,cs),
(440,272,o),
(380,210,o),
(380,130,cs),
(380,52,o),
(440,-12,o),
(524,-12,cs)
);
}
);
width = 1154;
},
{
layerId = "509FD652-F91B-436C-A4D5-5322A671A429";
shapes = (
{
closed = 1;
nodes = (
(464,455,l),
(456,484,o),
(449,510,o),
(449,534,cs),
(449,606,o),
(493,649,o),
(548,695,cs),
(665,793,ls),
(726,845,o),
(772,930,o),
(772,1058,cs),
(772,1284,o),
(626,1418,o),
(407,1418,cs),
(228,1418,o),
(95,1332,o),
(11,1186,c),
(137,1068,l),
(194,1168,o),
(278,1224,o),
(395,1224,cs),
(519,1224,o),
(592,1142,o),
(592,1022,cs),
(592,956,o),
(560,912,o),
(510,874,cs),
(401,790,ls),
(335,740,o),
(282,666,o),
(282,546,cs),
(282,508,o),
(293,464,o),
(312,410,c)
);
},
{
closed = 1;
nodes = (
(456,-12,o),
(505,52,o),
(505,130,cs),
(505,210,o),
(456,272,o),
(393,272,cs),
(330,272,o),
(281,210,o),
(281,130,cs),
(281,52,o),
(330,-12,o),
(393,-12,cs)
);
}
);
width = 866;
},
{
layerId = "AD6BCF41-EF37-4505-B0B8-48EA3C63FE3E";
shapes = (
{
closed = 1;
nodes = (
(436,380,l),
(420,414,o),
(414,450,o),
(414,478,cs),
(414,556,o),
(486,603,o),
(574,655,cs),
(763,767,ls),
(862,825,o),
(930,925,o),
(930,1072,cs),
(930,1270,o),
(764,1406,o),
(500,1406,cs),
(296,1406,o),
(144,1342,o),
(40,1226,c),
(68,1198,l),
(170,1312,o),
(308,1368,o),
(500,1368,cs),
(754,1368,o),
(890,1242,o),
(890,1070,cs),
(890,949,o),
(836,860,o),
(750,807,cs),
(569,696,ls),
(467,633,o),
(374,583,o),
(374,488,cs),
(374,452,o),
(380,412,o),
(402,366,c)
);
},
{
closed = 1;
nodes = (
(448,-6,o),
(472,18,o),
(472,46,cs),
(472,74,o),
(448,98,o),
(420,98,cs),
(392,98,o),
(368,74,o),
(368,46,cs),
(368,18,o),
(392,-6,o),
(420,-6,cs)
);
}
);
width = 1108;
},
{
layerId = "8F81F910-5DBA-457E-82E0-752C82078E80";
shapes = (
{
closed = 1;
nodes = (
(327,380,l),
(315,414,o),
(311,450,o),
(311,478,cs),
(311,556,o),
(365,603,o),
(431,655,cs),
(572,767,ls),
(647,825,o),
(702,925,o),
(702,1072,cs),
(702,1270,o),
(573,1406,o),
(375,1406,cs),
(222,1406,o),
(108,1342,o),
(30,1226,c),
(51,1198,l),
(128,1312,o),
(231,1368,o),
(375,1368,cs),
(566,1368,o),
(664,1242,o),
(664,1070,cs),
(664,949,o),
(627,860,o),
(563,807,cs),
(427,696,ls),
(350,633,o),
(281,583,o),
(281,488,cs),
(281,452,o),
(285,412,o),
(302,366,c)
);
},
{
closed = 1;
nodes = (
(336,-6,o),
(358,18,o),
(358,46,cs),
(358,74,o),
(336,98,o),
(315,98,cs),
(294,98,o),
(272,74,o),
(272,46,cs),
(272,18,o),
(294,-6,o),
(315,-6,cs)
);
}
);
width = 831;
}
);
leftKerningGroup = question;
rightKerningGroup = question;
unicode = 63;
},
{
glyphname = at;
layers = (
{
layerId = "15911918-BD0E-422E-8741-0FDE60C5A449";
name = "#instance";
shapes = (
{
closed = 1;
nodes = (
(1102,1050,l),
(1064,1050,l),
(1064,746,l),
(1009,932,o),
(882,1054,o),
(719,1054,cs),
(500,1054,o),
(335,834,o),
(335,532,cs),
(335,232,o),
(500,12,o),
(719,12,cs),
(882,12,o),
(1009,134,o),
(1064,320,c),
(1064,192,ls),
(1064,56,o),
(1131,-32,o),
(1208,-32,cs),
(1346,-32,o),
(1438,184,o),
(1438,518,cs),
(1438,1052,o),
(1151,1442,o),
(761,1442,cs),
(365,1442,o),
(71,1056,o),
(71,524,cs),
(71,14,o),
(356,-356,o),
(741,-356,cs),
(827,-356,o),
(945,-318,o),
(1022,-264,c),
(1010,-228,l),
(939,-278,o),
(825,-316,o),
(741,-316,cs),
(374,-316,o),
(109,38,o),
(109,524,cs),
(109,1032,o),
(381,1402,o),
(761,1402,cs),
(1133,1402,o),
(1400,1030,o),
(1400,518,cs),
(1400,208,o),
(1328,8,o),
(1211,8,cs),
(1151,8,o),
(1102,80,o),
(1102,192,cs)
);
},
{
closed = 1;
nodes = (
(921,1014,o),
(1068,810,o),
(1068,532,cs),
(1068,254,o),
(921,52,o),
(719,52,cs),
(516,52,o),
(373,254,o),
(373,532,cs),
(373,810,o),
(516,1014,o),
(719,1014,cs)
);
}
);
width = 1509;
},
{
layerId = "CBB0ADCE-2C6B-4C18-8CFE-465C501777A2";
shapes = (
{
closed = 1;
nodes = (
(1282,982,l),
(1012,982,l),
(1012,900,l),
(1012,900,o),
(926,1006,o),
(782,1006,cs),
(546,1006,o),
(398,792,o),
(398,542,cs),
(398,266,o),
(604,86,o),
(812,86,cs),
(904,86,o),
(1002,124,o),
(1076,228,c),
(1080,214,ls),
(1110,110,o),
(1196,66,o),
(1316,66,cs),
(1538,66,o),
(1700,258,o),
(1700,552,cs),
(1700,1038,o),
(1346,1396,o),
(878,1396,cs),
(408,1396,o),
(30,1018,o),
(30,536,cs),
(30,62,o),
(386,-290,o),
(854,-290,cs),
(1010,-290,o),
(1208,-232,o),
(1324,-138,c),
(1222,34,l),
(1110,-54,o),
(966,-92,o),
(854,-92,cs),
(510,-92,o),
(246,178,o),
(246,536,cs),
(246,900,o),
(530,1198,o),
(878,1198,cs),
(1268,1198,o),
(1486,910,o),
(1486,546,cs),
(1486,368,o),
(1412,244,o),
(1342,244,cs),
(1306,244,o),
(1282,264,o),
(1282,332,cs)
);
},
{
closed = 1;
nodes = (
(938,758,o),
(994,664,o),
(994,550,cs),
(994,430,o),
(940,328,o),
(840,328,cs),
(748,328,o),
(694,434,o),
(694,552,cs),
(694,662,o),
(750,758,o),
(838,758,cs)
);
}
);
width = 1730;
},
{
layerId = "EBC752C6-95D9-4DED-AD5D-85333C04496E";
shapes = (
{
closed = 1;
nodes = (
(966,982,l),
(755,982,l),
(755,900,l),
(755,900,o),
(695,1006,o),
(587,1006,cs),
(410,1006,o),
(295,792,o),
(295,542,cs),
(295,266,o),
(453,86,o),
(609,86,cs),
(678,86,o),
(748,124,o),
(803,228,c),
(806,214,ls),
(828,110,o),
(897,66,o),
(987,66,cs),
(1154,66,o),
(1279,258,o),
(1279,552,cs),
(1279,1038,o),
(1010,1396,o),
(659,1396,cs),
(306,1396,o),
(19,1018,o),
(19,536,cs),
(19,62,o),
(290,-290,o),
(641,-290,cs),
(758,-290,o),
(906,-232,o),
(993,-138,c),
(917,34,l),
(833,-54,o),
(725,-92,o),
(641,-92,cs),
(383,-92,o),
(189,178,o),
(189,536,cs),
(189,900,o),
(398,1198,o),
(659,1198,cs),
(951,1198,o),
(1111,910,o),
(1111,546,cs),
(1111,368,o),
(1059,244,o),
(1007,244,cs),
(980,244,o),
(966,264,o),
(966,332,cs)
);
},
{
closed = 1;
nodes = (
(704,758,o),
(746,664,o),
(746,550,cs),
(746,430,o),
(705,328,o),
(630,328,cs),
(561,328,o),
(525,434,o),
(525,552,cs),
(525,662,o),
(563,758,o),
(629,758,cs)
);
}
);
width = 1298;
},
{
layerId = "A31F2A1B-1434-479A-A47A-09846372A702";
shapes = (
{
closed = 1;
nodes = (
(1428,996,l),
(1212,996,l),
(1212,864,l),
(1192,908,o),
(1072,1016,o),
(896,1016,cs),
(630,1016,o),
(456,802,o),
(456,538,cs),
(456,258,o),
(674,68,o),
(918,68,cs),
(1056,68,o),
(1180,128,o),
(1262,250,c),
(1266,208,l),
(1288,96,o),
(1376,44,o),
(1498,44,cs),
(1722,44,o),
(1880,240,o),
(1880,544,cs),
(1880,1042,o),
(1500,1404,o),
(986,1404,cs),
(470,1404,o),
(68,1026,o),
(68,534,cs),
(68,52,o),
(452,-308,o),
(960,-308,cs),
(1112,-308,o),
(1310,-254,o),
(1428,-170,c),
(1346,-26,l),
(1234,-106,o),
(1078,-144,o),
(960,-144,cs),
(552,-144,o),
(240,142,o),
(240,534,cs),
(240,932,o),
(570,1246,o),
(986,1246,cs),
(1430,1246,o),
(1708,938,o),
(1708,538,cs),
(1708,330,o),
(1618,186,o),
(1520,186,cs),
(1466,186,o),
(1428,218,o),
(1428,296,cs)
);
},
{
closed = 1;
nodes = (
(1096,820,o),
(1198,698,o),
(1198,546,cs),
(1198,388,o),
(1100,262,o),
(942,262,cs),
(790,262,o),
(690,392,o),
(690,548,cs),
(690,698,o),
(790,820,o),
(938,820,cs)
);
}
);
width = 1948;
},
{
layerId = "509FD652-F91B-436C-A4D5-5322A671A429";
shapes = (
{
closed = 1;
nodes = (
(1075,996,l),
(905,996,l),
(905,864,l),
(890,908,o),
(804,1016,o),
(672,1016,cs),
(473,1016,o),
(338,802,o),
(338,538,cs),
(338,258,o),
(506,68,o),
(689,68,cs),
(792,68,o),
(881,128,o),
(943,250,c),
(946,208,l),
(962,96,o),
(1032,44,o),
(1124,44,cs),
(1292,44,o),
(1414,240,o),
(1414,544,cs),
(1414,1042,o),
(1125,1404,o),
(740,1404,cs),
(353,1404,o),
(47,1026,o),
(47,534,cs),
(47,52,o),
(339,-308,o),
(720,-308,cs),
(834,-308,o),
(983,-254,o),
(1071,-170,c),
(1010,-26,l),
(926,-106,o),
(809,-144,o),
(720,-144,cs),
(414,-144,o),
(184,142,o),
(184,534,cs),
(184,932,o),
(428,1246,o),
(740,1246,cs),
(1073,1246,o),
(1277,938,o),
(1277,538,cs),
(1277,330,o),
(1214,186,o),
(1140,186,cs),
(1100,186,o),
(1075,218,o),
(1075,296,cs)
);
},
{
closed = 1;
nodes = (
(822,820,o),
(899,698,o),
(899,546,cs),
(899,388,o),
(825,262,o),
(707,262,cs),
(593,262,o),
(522,392,o),
(522,548,cs),
(522,698,o),
(593,820,o),
(704,820,cs)
);
}
);
width = 1461;
},
{
layerId = "AD6BCF41-EF37-4505-B0B8-48EA3C63FE3E";
shapes = (
{
closed = 1;
nodes = (
(1464,1050,l),
(1424,1050,l),
(1424,746,l),
(1350,932,o),
(1176,1054,o),
(958,1054,cs),
(666,1054,o),
(452,834,o),
(452,532,cs),
(452,232,o),
(666,12,o),
(958,12,cs),
(1176,12,o),
(1350,134,o),
(1424,320,c),
(1424,192,ls),
(1424,56,o),
(1508,-32,o),
(1610,-32,cs),
(1794,-32,o),
(1912,184,o),
(1912,518,cs),
(1912,1052,o),
(1534,1442,o),
(1014,1442,cs),
(486,1442,o),
(100,1056,o),
(100,524,cs),
(100,14,o),
(474,-356,o),
(988,-356,cs),
(1102,-356,o),
(1260,-318,o),
(1362,-264,c),
(1346,-228,l),
(1252,-278,o),
(1100,-316,o),
(988,-316,cs),
(498,-316,o),
(140,38,o),
(140,524,cs),
(140,1032,o),
(508,1402,o),
(1014,1402,cs),
(1510,1402,o),
(1872,1030,o),
(1872,518,cs),
(1872,208,o),
(1770,8,o),
(1614,8,cs),
(1534,8,o),
(1464,80,o),
(1464,192,cs)
);
},
{
closed = 1;
nodes = (
(1228,1014,o),
(1424,810,o),
(1424,532,cs),
(1424,254,o),
(1228,52,o),
(958,52,cs),
(688,52,o),
(492,254,o),
(492,532,cs),
(492,810,o),
(688,1014,o),
(958,1014,cs)
);
}
);
width = 2012;
},
{
layerId = "8F81F910-5DBA-457E-82E0-752C82078E80";
shapes = (
{
closed = 1;
nodes = (
(1102,1050,l),
(1064,1050,l),
(1064,746,l),
(1009,932,o),
(882,1054,o),
(719,1054,cs),
(500,1054,o),
(335,834,o),
(335,532,cs),
(335,232,o),
(500,12,o),
(719,12,cs),
(882,12,o),
(1009,134,o),
(1064,320,c),
(1064,192,ls),
(1064,56,o),
(1131,-32,o),
(1208,-32,cs),
(1346,-32,o),
(1438,184,o),
(1438,518,cs),
(1438,1052,o),
(1151,1442,o),
(761,1442,cs),
(365,1442,o),
(71,1056,o),
(71,524,cs),
(71,14,o),
(356,-356,o),
(741,-356,cs),
(827,-356,o),
(945,-318,o),
(1022,-264,c),
(1010,-228,l),
(939,-278,o),
(825,-316,o),
(741,-316,cs),
(374,-316,o),
(109,38,o),
(109,524,cs),
(109,1032,o),
(381,1402,o),
(761,1402,cs),
(1133,1402,o),
(1400,1030,o),
(1400,518,cs),
(1400,208,o),
(1328,8,o),
(1211,8,cs),
(1151,8,o),
(1102,80,o),
(1102,192,cs)
);
},
{
closed = 1;
nodes = (
(921,1014,o),
(1068,810,o),
(1068,532,cs),
(1068,254,o),
(921,52,o),
(719,52,cs),
(516,52,o),
(373,254,o),
(373,532,cs),
(373,810,o),
(516,1014,o),
(719,1014,cs)
);
}
);
width = 1509;
}
);
leftKerningGroup = O;
rightKerningGroup = O;
unicode = 64;
},
{
glyphname = A;
layers = (
{
anchors = (
{
name = bottom;
position = "{780, 0}";
},
{
name = ogonek;
position = "{1452, 0}";
},
{
name = top;
position = "{798, 1400}";
},
{
name = topleft;
position = "{256, 1400}";
}
);
layerId = "CBB0ADCE-2C6B-4C18-8CFE-465C501777A2";
shapes = (
{
closed = 1;
nodes = (
(-20,0,l),
(455,0,l),
(795,939,l),
(1122,0,l),
(1616,0,l),
(1046,1400,l),
(571,1400,l)
);
},
{
closed = 1;
nodes = (
(379,198,l),
(1182,198,l),
(1182,529,l),
(379,529,l)
);
}
);
width = 1596;
},
{
anchors = (
{
name = bottom;
position = "{585, 0}";
},
{
name = ogonek;
position = "{1089, 0}";
},
{
name = top;
position = "{599, 1400}";
},
{
name = topleft;
position = "{192, 1400}";
}
);
layerId = "EBC752C6-95D9-4DED-AD5D-85333C04496E";
shapes = (
{
closed = 1;
nodes = (
(-19,0,l),
(345,0,l),
(596,939,l),
(838,0,l),
(1216,0,l),
(789,1400,l),
(424,1400,l)
);
},
{
closed = 1;
nodes = (
(284,198,l),
(887,198,l),
(887,529,l),
(284,529,l)
);
}
);
width = 1197;
},
{
anchors = (
{
name = bottom;
position = "{730, 0}";
},
{
name = ogonek;
position = "{1474, 0}";
},
{
name = top;
position = "{738, 1398}";
},
{
name = topleft;
position = "{250, 1400}";
}
);
layerId = "A31F2A1B-1434-479A-A47A-09846372A702";
shapes = (
{
closed = 1;
nodes = (
(2,0,l),
(248,0,l),
(734,1162,l),
(1222,0,l),
(1474,0,l),
(862,1400,l),
(620,1400,l)
);
},
{
closed = 1;
nodes = (
(310,324,l),
(1148,324,l),
(1148,524,l),
(310,524,l)
);
}
);
width = 1476;
},
{
anchors = (
{
name = bottom;
position = "{548, 0}";
},
{
name = ogonek;
position = "{1106, 0}";
},
{
name = top;
position = "{554, 1398}";
},
{
name = topleft;
position = "{188, 1400}";
}
);
layerId = "509FD652-F91B-436C-A4D5-5322A671A429";
shapes = (
{
closed = 1;
nodes = (
(-2,0,l),
(190,0,l),
(551,1162,l),
(913,0,l),
(1110,0,l),
(651,1400,l),
(461,1400,l)
);
},
{
closed = 1;
nodes = (
(233,324,l),
(861,324,l),
(861,524,l),
(233,524,l)
);
}
);
width = 1107;
},
{
anchors = (
{
name = bottom;
position = "{684, 0}";
},
{
name = ogonek;
position = "{1354, 0}";
},
{
name = top;
position = "{686, 1400}";
},
{
name = topleft;
position = "{210, 1400}";
}
);
layerId = "AD6BCF41-EF37-4505-B0B8-48EA3C63FE3E";
shapes = (
{
closed = 1;
nodes = (
(20,0,l),
(68,0,l),
(683,1354,l),
(1308,0,l),
(1354,0,l),
(705,1400,l),
(661,1400,l)
);
},
{
closed = 1;
nodes = (
(250,427,l),
(1120,427,l),
(1120,467,l),
(250,467,l)
);
}
);
width = 1374;
},
{
anchors = (
{
name = bottom;
position = "{513, 0}";
},
{
name = ogonek;
position = "{1016, 0}";
},
{
name = top;
position = "{515, 1400}";
},
{
name = topleft;
position = "{158, 1400}";
}
);
layerId = "8F81F910-5DBA-457E-82E0-752C82078E80";
shapes = (
{
closed = 1;
nodes = (
(11,0,l),
(55,0,l),
(512,1354,l),
(977,0,l),
(1020,0,l),
(533,1400,l),
(492,1400,l)
);
},
{
closed = 1;
nodes = (
(188,427,l),
(840,427,l),
(840,467,l),
(188,467,l)
);
}
);
width = 1031;
}
);
leftKerningGroup = A;
rightKerningGroup = A;
unicode = 65;
},
{
glyphname = B;
layers = (
{
layerId = "15911918-BD0E-422E-8741-0FDE60C5A449";
name = "#instance";
shapes = (
{
closed = 1;
nodes = (
(188,1400,l),
(188,0,l),
(615,0,ls),
(854,0,o),
(994,136,o),
(994,374,cs),
(994,572,o),
(894,702,o),
(728,730,c),
(860,760,o),
(939,878,o),
(939,1054,cs),
(939,1274,o),
(818,1400,o),
(615,1400,cs)
);
},
{
closed = 1;
nodes = (
(226,746,l),
(226,1360,l),
(615,1360,ls),
(800,1360,o),
(901,1248,o),
(901,1054,cs),
(901,858,o),
(800,746,o),
(615,746,cs)
);
},
{
closed = 1;
nodes = (
(226,40,l),
(226,706,l),
(615,706,ls),
(836,706,o),
(958,586,o),
(958,376,cs),
(958,162,o),
(836,40,o),
(615,40,cs)
);
}
);
width = 1098;
},
{
layerId = "CBB0ADCE-2C6B-4C18-8CFE-465C501777A2";
shapes = (
{
closed = 1;
nodes = (
(100,1400,l),
(100,0,l),
(842,0,ls),
(1184,0,o),
(1406,154,o),
(1406,394,cs),
(1406,570,o),
(1296,708,o),
(1128,746,c),
(1272,790,o),
(1364,908,o),
(1364,1046,cs),
(1364,1260,o),
(1146,1400,o),
(808,1400,cs)
);
},
{
closed = 1;
nodes = (
(562,860,l),
(562,1060,l),
(782,1060,ls),
(846,1060,o),
(888,1022,o),
(888,962,cs),
(888,900,o),
(846,860,o),
(782,860,cs)
);
},
{
closed = 1;
nodes = (
(562,340,l),
(562,554,l),
(782,554,ls),
(868,554,o),
(924,514,o),
(924,452,cs),
(924,384,o),
(868,340,o),
(782,340,cs)
);
}
);
width = 1446;
},
{
layerId = "EBC752C6-95D9-4DED-AD5D-85333C04496E";
shapes = (
{
closed = 1;
nodes = (
(71,1400,l),
(71,0,l),
(632,0,ls),
(888,0,o),
(1059,154,o),
(1059,394,cs),
(1059,570,o),
(972,708,o),
(846,746,c),
(954,790,o),
(1027,908,o),
(1027,1046,cs),
(1027,1260,o),
(860,1400,o),
(606,1400,cs)
);
},
{
closed = 1;
nodes = (
(426,860,l),
(426,1060,l),
(587,1060,ls),
(635,1060,o),
(662,1022,o),
(662,962,cs),
(662,900,o),
(635,860,o),
(587,860,cs)
);
},
{
closed = 1;
nodes = (
(426,340,l),
(426,554,l),
(587,554,ls),
(651,554,o),
(689,514,o),
(689,452,cs),
(689,384,o),
(651,340,o),
(587,340,cs)
);
}
);
width = 1085;
},
{
layerId = "A31F2A1B-1434-479A-A47A-09846372A702";
shapes = (
{
closed = 1;
nodes = (
(184,1400,l),
(184,0,l),
(806,0,ls),
(1122,0,o),
(1316,144,o),
(1316,384,cs),
(1316,572,o),
(1204,706,o),
(1016,738,c),
(1168,774,o),
(1262,892,o),
(1262,1050,cs),
(1262,1268,o),
(1082,1400,o),
(792,1400,cs)
);
},
{
closed = 1;
nodes = (
(420,818,l),
(420,1198,l),
(780,1198,l),
(930,1200,o),
(1020,1132,o),
(1020,1012,cs),
(1020,888,o),
(930,818,o),
(780,818,cs)
);
},
{
closed = 1;
nodes = (
(420,202,l),
(420,616,l),
(780,616,l),
(964,618,o),
(1074,540,o),
(1074,412,cs),
(1074,276,o),
(964,200,o),
(780,202,c)
);
}
);
width = 1412;
},
{
layerId = "509FD652-F91B-436C-A4D5-5322A671A429";
shapes = (
{
closed = 1;
nodes = (
(134,1400,l),
(134,0,l),
(605,0,ls),
(842,0,o),
(991,144,o),
(991,384,cs),
(991,572,o),
(903,706,o),
(762,738,c),
(876,774,o),
(951,892,o),
(951,1050,cs),
(951,1268,o),
(812,1400,o),
(594,1400,cs)
);
},
{
closed = 1;
nodes = (
(319,818,l),
(319,1198,l),
(585,1198,l),
(698,1200,o),
(761,1132,o),
(761,1012,cs),
(761,888,o),
(698,818,o),
(585,818,cs)
);
},
{
closed = 1;
nodes = (
(319,202,l),
(319,616,l),
(585,616,l),
(723,618,o),
(802,540,o),
(802,412,cs),
(802,276,o),
(723,200,o),
(585,202,c)
);
}
);
width = 1059;
},
{
layerId = "AD6BCF41-EF37-4505-B0B8-48EA3C63FE3E";
shapes = (
{
closed = 1;
nodes = (
(256,1400,l),
(256,0,l),
(820,0,ls),
(1138,0,o),
(1320,136,o),
(1320,374,cs),
(1320,572,o),
(1192,702,o),
(970,730,c),
(1146,760,o),
(1246,878,o),
(1246,1054,cs),
(1246,1274,o),
(1090,1400,o),
(820,1400,cs)
);
},
{
closed = 1;
nodes = (
(296,746,l),
(296,1360,l),
(820,1360,ls),
(1066,1360,o),
(1206,1248,o),
(1206,1054,cs),
(1206,858,o),
(1066,746,o),
(820,746,cs)
);
},
{
closed = 1;
nodes = (
(296,40,l),
(296,706,l),
(820,706,ls),
(1114,706,o),
(1282,586,o),
(1282,376,cs),
(1282,162,o),
(1114,40,o),
(820,40,cs)
);
}
);
width = 1464;
},
{
layerId = "8F81F910-5DBA-457E-82E0-752C82078E80";
shapes = (
{
closed = 1;
nodes = (
(188,1400,l),
(188,0,l),
(615,0,ls),
(854,0,o),
(994,136,o),
(994,374,cs),
(994,572,o),
(894,702,o),
(728,730,c),
(860,760,o),
(939,878,o),
(939,1054,cs),
(939,1274,o),
(818,1400,o),
(615,1400,cs)
);
},
{
closed = 1;
nodes = (
(226,746,l),
(226,1360,l),
(615,1360,ls),
(800,1360,o),
(901,1248,o),
(901,1054,cs),
(901,858,o),
(800,746,o),
(615,746,cs)
);
},
{
closed = 1;
nodes = (
(226,40,l),
(226,706,l),
(615,706,ls),
(836,706,o),
(958,586,o),
(958,376,cs),
(958,162,o),
(836,40,o),
(615,40,cs)
);
}
);
width = 1098;
}
);
leftKerningGroup = H;
rightKerningGroup = B;
unicode = 66;
},
{
glyphname = C;
layers = (
{
anchors = (
{
name = bottom;
position = "{734, 0}";
},
{
name = top;
position = "{786, 1400}";
}
);
layerId = "CBB0ADCE-2C6B-4C18-8CFE-465C501777A2";
shapes = (
{
closed = 1;
nodes = (
(1380,1170,l),
(1236,1328,o),
(1002,1430,o),
(789,1430,cs),
(349,1430,o),
(30,1124,o),
(30,705,cs),
(30,280,o),
(341,-32,o),
(771,-32,cs),
(987,-32,o),
(1224,80,o),
(1380,252,c),
(1112,537,l),
(1020,437,o),
(895,373,o),
(795,373,cs),
(627,373,o),
(505,515,o),
(505,711,cs),
(505,905,o),
(627,1044,o),
(795,1044,cs),
(903,1044,o),
(1028,969,o),
(1112,853,c)
);
}
);
width = 1374;
},
{
anchors = (
{
name = bottom;
position = "{551, 0}";
},
{
name = top;
position = "{590, 1400}";
}
);
layerId = "EBC752C6-95D9-4DED-AD5D-85333C04496E";
shapes = (
{
closed = 1;
nodes = (
(1035,1170,l),
(927,1328,o),
(752,1430,o),
(592,1430,cs),
(262,1430,o),
(19,1124,o),
(19,705,cs),
(19,280,o),
(256,-32,o),
(578,-32,cs),
(740,-32,o),
(918,80,o),
(1035,252,c),
(834,537,l),
(765,437,o),
(671,373,o),
(596,373,cs),
(470,373,o),
(383,515,o),
(383,711,cs),
(383,905,o),
(470,1044,o),
(596,1044,cs),
(677,1044,o),
(771,969,o),
(834,853,c)
);
}
);
width = 1031;
},
{
anchors = (
{
name = bottom;
position = "{766, 0}";
},
{
name = top;
position = "{844, 1400}";
}
);
layerId = "A31F2A1B-1434-479A-A47A-09846372A702";
shapes = (
{
closed = 1;
nodes = (
(1336,1198,l),
(1200,1332,o),
(1002,1414,o),
(804,1414,cs),
(390,1414,o),
(68,1102,o),
(68,702,cs),
(68,300,o),
(386,-16,o),
(796,-16,cs),
(994,-16,o),
(1196,74,o),
(1338,214,c),
(1198,360,l),
(1092,256,o),
(948,192,o),
(808,192,cs),
(528,192,o),
(308,420,o),
(308,704,cs),
(308,990,o),
(528,1216,o),
(808,1216,cs),
(950,1216,o),
(1096,1148,o),
(1198,1036,c)
);
}
);
width = 1394;
},
{
anchors = (
{
name = bottom;
position = "{575, 0}";
},
{
name = top;
position = "{633, 1400}";
}
);
layerId = "509FD652-F91B-436C-A4D5-5322A671A429";
shapes = (
{
closed = 1;
nodes = (
(1002,1198,l),
(900,1332,o),
(752,1414,o),
(603,1414,cs),
(293,1414,o),
(47,1102,o),
(47,702,cs),
(47,300,o),
(290,-16,o),
(597,-16,cs),
(746,-16,o),
(897,74,o),
(1004,214,c),
(899,360,l),
(819,256,o),
(711,192,o),
(606,192,cs),
(396,192,o),
(235,420,o),
(235,704,cs),
(235,990,o),
(396,1216,o),
(606,1216,cs),
(713,1216,o),
(822,1148,o),
(899,1036,c)
);
}
);
width = 1046;
},
{
anchors = (
{
name = bottom;
position = "{796, 0}";
},
{
name = top;
position = "{818, 1400}";
}
);
layerId = "AD6BCF41-EF37-4505-B0B8-48EA3C63FE3E";
shapes = (
{
closed = 1;
nodes = (
(1300,1226,l),
(1172,1340,o),
(1003,1408,o),
(819,1408,cs),
(425,1408,o),
(100,1090,o),
(100,701,cs),
(100,314,o),
(425,-6,o),
(819,-6,cs),
(1003,-6,o),
(1174,64,o),
(1302,178,c),
(1274,204,l),
(1154,96,o),
(993,32,o),
(819,32,cs),
(445,32,o),
(138,334,o),
(138,701,cs),
(138,1069,o),
(445,1370,o),
(819,1370,cs),
(993,1370,o),
(1154,1308,o),
(1274,1200,c)
);
}
);
width = 1412;
},
{
anchors = (
{
name = bottom;
position = "{597, 0}";
},
{
name = top;
position = "{614, 1400}";
}
);
layerId = "8F81F910-5DBA-457E-82E0-752C82078E80";
shapes = (
{
closed = 1;
nodes = (
(975,1226,l),
(879,1340,o),
(752,1408,o),
(614,1408,cs),
(319,1408,o),
(71,1090,o),
(71,701,cs),
(71,314,o),
(319,-6,o),
(614,-6,cs),
(752,-6,o),
(881,64,o),
(977,178,c),
(956,204,l),
(866,96,o),
(745,32,o),
(614,32,cs),
(334,32,o),
(108,334,o),
(108,701,cs),
(108,1069,o),
(334,1370,o),
(614,1370,cs),
(745,1370,o),
(866,1308,o),
(956,1200,c)
);
}
);
width = 1059;
}
);
leftKerningGroup = O;
rightKerningGroup = C;
unicode = 67;
},
{
glyphname = D;
layers = (
{
layerId = "15911918-BD0E-422E-8741-0FDE60C5A449";
name = "#instance";
shapes = (
{
closed = 1;
nodes = (
(188,1400,l),
(188,0,l),
(605,0,ls),
(902,0,o),
(1147,314,o),
(1147,699,cs),
(1147,1086,o),
(902,1400,o),
(605,1400,cs)
);
},
{
closed = 1;
nodes = (
(226,40,l),
(226,1360,l),
(605,1360,ls),
(885,1360,o),
(1109,1063,o),
(1109,699,cs),
(1109,336,o),
(885,40,o),
(605,40,cs)
);
}
);
width = 1218;
},
{
layerId = "CBB0ADCE-2C6B-4C18-8CFE-465C501777A2";
shapes = (
{
closed = 1;
nodes = (
(100,1400,l),
(100,0,l),
(707,0,ls),
(1180,0,o),
(1486,276,o),
(1486,701,cs),
(1486,1126,o),
(1186,1400,o),
(725,1400,cs)
);
},
{
closed = 1;
nodes = (
(563,359,l),
(563,1040,l),
(715,1040,ls),
(895,1040,o),
(1012,905,o),
(1012,697,cs),
(1012,491,o),
(905,359,o),
(737,359,cs)
);
}
);
width = 1516;
},
{
layerId = "EBC752C6-95D9-4DED-AD5D-85333C04496E";
shapes = (
{
closed = 1;
nodes = (
(71,1400,l),
(71,0,l),
(530,0,ls),
(885,0,o),
(1119,276,o),
(1119,701,cs),
(1119,1126,o),
(890,1400,o),
(544,1400,cs)
);
},
{
closed = 1;
nodes = (
(426,359,l),
(426,1040,l),
(536,1040,ls),
(671,1040,o),
(755,905,o),
(755,697,cs),
(755,491,o),
(679,359,o),
(553,359,cs)
);
}
);
width = 1137;
},
{
layerId = "A31F2A1B-1434-479A-A47A-09846372A702";
shapes = (
{
closed = 1;
nodes = (
(184,1400,l),
(184,0,l),
(752,0,ls),
(1176,0,o),
(1482,296,o),
(1482,700,cs),
(1482,1104,o),
(1178,1400,o),
(758,1400,cs)
);
},
{
closed = 1;
nodes = (
(420,202,l),
(420,1198,l),
(754,1198,ls),
(1030,1198,o),
(1244,990,o),
(1244,698,cs),
(1244,408,o),
(1036,202,o),
(764,202,cs)
);
}
);
width = 1550;
},
{
layerId = "509FD652-F91B-436C-A4D5-5322A671A429";
shapes = (
{
closed = 1;
nodes = (
(134,1400,l),
(134,0,l),
(564,0,ls),
(882,0,o),
(1116,296,o),
(1116,700,cs),
(1116,1104,o),
(884,1400,o),
(569,1400,cs)
);
},
{
closed = 1;
nodes = (
(319,202,l),
(319,1198,l),
(566,1198,ls),
(773,1198,o),
(929,990,o),
(929,698,cs),
(929,408,o),
(777,202,o),
(573,202,cs)
);
}
);
width = 1163;
},
{
layerId = "AD6BCF41-EF37-4505-B0B8-48EA3C63FE3E";
shapes = (
{
closed = 1;
nodes = (
(256,1400,l),
(256,0,l),
(807,0,ls),
(1202,0,o),
(1524,314,o),
(1524,699,cs),
(1524,1086,o),
(1202,1400,o),
(807,1400,cs)
);
},
{
closed = 1;
nodes = (
(296,40,l),
(296,1360,l),
(807,1360,ls),
(1180,1360,o),
(1484,1063,o),
(1484,699,cs),
(1484,336,o),
(1180,40,o),
(807,40,cs)
);
}
);
width = 1624;
},
{
layerId = "8F81F910-5DBA-457E-82E0-752C82078E80";
shapes = (
{
closed = 1;
nodes = (
(188,1400,l),
(188,0,l),
(605,0,ls),
(902,0,o),
(1147,314,o),
(1147,699,cs),
(1147,1086,o),
(902,1400,o),
(605,1400,cs)
);
},
{
closed = 1;
nodes = (
(226,40,l),
(226,1360,l),
(605,1360,ls),
(885,1360,o),
(1109,1063,o),
(1109,699,cs),
(1109,336,o),
(885,40,o),
(605,40,cs)
);
}
);
width = 1218;
}
);
leftKerningGroup = H;
rightKerningGroup = O;
unicode = 68;
},
{
glyphname = E;
layers = (
{
anchors = (
{
name = bottom;
position = "{531, 0}";
},
{
name = ogonek;
position = "{870, 0}";
},
{
name = top;
position = "{527, 1400}";
},
{
name = topleft;
position = "{54, 1400}";
}
);
layerId = "15911918-BD0E-422E-8741-0FDE60C5A449";
name = "#instance";
shapes = (
{
closed = 1;
nodes = (
(188,0,l),
(870,0,l),
(870,40,l),
(226,40,l),
(226,701,l),
(779,701,l),
(779,741,l),
(226,741,l),
(226,1360,l),
(849,1360,l),
(849,1400,l),
(188,1400,l)
);
}
);
width = 968;
},
{
anchors = (
{
name = bottom;
position = "{700, 0}";
},
{
name = ogonek;
position = "{1302, 0}";
},
{
name = top;
position = "{694, 1400}";
},
{
name = topleft;
position = "{-32, 1400}";
}
);
layerId = "CBB0ADCE-2C6B-4C18-8CFE-465C501777A2";
shapes = (
{
closed = 1;
nodes = (
(100,0,l),
(1302,0,l),
(1302,351,l),
(563,351,l),
(563,525,l),
(1218,525,l),
(1218,877,l),
(563,877,l),
(563,1048,l),
(1284,1048,l),
(1284,1400,l),
(100,1400,l)
);
}
);
width = 1378;
},
{
anchors = (
{
name = bottom;
position = "{525, 0}";
},
{
name = ogonek;
position = "{977, 0}";
},
{
name = top;
position = "{521, 1400}";
},
{
name = topleft;
position = "{-24, 1400}";
}
);
layerId = "EBC752C6-95D9-4DED-AD5D-85333C04496E";
shapes = (
{
closed = 1;
nodes = (
(71,0,l),
(977,0,l),
(977,351,l),
(426,351,l),
(426,525,l),
(914,525,l),
(914,877,l),
(426,877,l),
(426,1048,l),
(963,1048,l),
(963,1400,l),
(71,1400,l)
);
}
);
width = 1034;
},
{
anchors = (
{
name = bottom;
position = "{696, 0}";
},
{
name = ogonek;
position = "{1208, 0}";
},
{
name = top;
position = "{702, 1400}";
},
{
name = topleft;
position = "{36, 1400}";
}
);
layerId = "A31F2A1B-1434-479A-A47A-09846372A702";
shapes = (
{
closed = 1;
nodes = (
(184,0,l),
(1208,0,l),
(1208,202,l),
(420,202,l),
(420,604,l),
(1104,604,l),
(1104,804,l),
(420,804,l),
(420,1198,l),
(1184,1198,l),
(1184,1400,l),
(184,1400,l)
);
}
);
width = 1312;
},
{
anchors = (
{
name = bottom;
position = "{522, 0}";
},
{
name = ogonek;
position = "{906, 0}";
},
{
name = top;
position = "{527, 1400}";
},
{
name = topleft;
position = "{27, 1400}";
}
);
layerId = "509FD652-F91B-436C-A4D5-5322A671A429";
shapes = (
{
closed = 1;
nodes = (
(134,0,l),
(906,0,l),
(906,202,l),
(319,202,l),
(319,604,l),
(828,604,l),
(828,804,l),
(319,804,l),
(319,1198,l),
(888,1198,l),
(888,1400,l),
(134,1400,l)
);
}
);
width = 984;
},
{
anchors = (
{
name = bottom;
position = "{708, 0}";
},
{
name = ogonek;
position = "{1160, 0}";
},
{
name = top;
position = "{702, 1400}";
},
{
name = topleft;
position = "{72, 1400}";
}
);
layerId = "AD6BCF41-EF37-4505-B0B8-48EA3C63FE3E";
shapes = (
{
closed = 1;
nodes = (
(256,0,l),
(1160,0,l),
(1160,40,l),
(296,40,l),
(296,701,l),
(1039,701,l),
(1039,741,l),
(296,741,l),
(296,1360,l),
(1132,1360,l),
(1132,1400,l),
(256,1400,l)
);
}
);
width = 1290;
},
{
anchors = (
{
name = bottom;
position = "{531, 0}";
},
{
name = ogonek;
position = "{870, 0}";
},
{
name = top;
position = "{527, 1400}";
},
{
name = topleft;
position = "{54, 1400}";
}
);
layerId = "8F81F910-5DBA-457E-82E0-752C82078E80";
shapes = (
{
closed = 1;
nodes = (
(188,0,l),
(870,0,l),
(870,40,l),
(226,40,l),
(226,701,l),
(779,701,l),
(779,741,l),
(226,741,l),
(226,1360,l),
(849,1360,l),
(849,1400,l),
(188,1400,l)
);
}
);
width = 968;
}
);
leftKerningGroup = H;
rightKerningGroup = E;
unicode = 69;
},
{
glyphname = F;
layers = (
{
layerId = "15911918-BD0E-422E-8741-0FDE60C5A449";
name = "#instance";
shapes = (
{
closed = 1;
nodes = (
(188,0,l),
(226,0,l),
(226,646,l),
(735,646,l),
(735,686,l),
(226,686,l),
(226,1360,l),
(804,1360,l),
(804,1400,l),
(188,1400,l)
);
}
);
width = 819;
},
{
layerId = "CBB0ADCE-2C6B-4C18-8CFE-465C501777A2";
shapes = (
{
closed = 1;
nodes = (
(100,0,l),
(564,0,l),
(564,456,l),
(1184,456,l),
(1184,806,l),
(564,806,l),
(564,1048,l),
(1226,1048,l),
(1226,1400,l),
(100,1400,l)
);
}
);
width = 1260;
},
{
layerId = "EBC752C6-95D9-4DED-AD5D-85333C04496E";
shapes = (
{
closed = 1;
nodes = (
(71,0,l),
(427,0,l),
(427,456,l),
(888,456,l),
(888,806,l),
(427,806,l),
(427,1048,l),
(920,1048,l),
(920,1400,l),
(71,1400,l)
);
}
);
width = 945;
},
{
layerId = "A31F2A1B-1434-479A-A47A-09846372A702";
shapes = (
{
closed = 1;
nodes = (
(184,0,l),
(420,0,l),
(420,582,l),
(1056,582,l),
(1056,782,l),
(420,782,l),
(420,1198,l),
(1122,1198,l),
(1124,1400,l),
(184,1400,l)
);
}
);
width = 1150;
},
{
layerId = "509FD652-F91B-436C-A4D5-5322A671A429";
shapes = (
{
closed = 1;
nodes = (
(134,0,l),
(319,0,l),
(319,582,l),
(792,582,l),
(792,782,l),
(319,782,l),
(319,1198,l),
(842,1198,l),
(843,1400,l),
(134,1400,l)
);
}
);
width = 863;
},
{
layerId = "AD6BCF41-EF37-4505-B0B8-48EA3C63FE3E";
shapes = (
{
closed = 1;
nodes = (
(256,0,l),
(296,0,l),
(296,646,l),
(980,646,l),
(980,686,l),
(296,686,l),
(296,1360,l),
(1072,1360,l),
(1072,1400,l),
(256,1400,l)
);
}
);
width = 1092;
},
{
layerId = "8F81F910-5DBA-457E-82E0-752C82078E80";
shapes = (
{
closed = 1;
nodes = (
(188,0,l),
(226,0,l),
(226,646,l),
(735,646,l),
(735,686,l),
(226,686,l),
(226,1360,l),
(804,1360,l),
(804,1400,l),
(188,1400,l)
);
}
);
width = 819;
}
);
leftKerningGroup = H;
rightKerningGroup = F;
unicode = 70;
},
{
glyphname = G;
layers = (
{
anchors = (
{
name = bottom;
position = "{570, 0}";
},
{
name = top;
position = "{570, 1398}";
}
);
layerId = "15911918-BD0E-422E-8741-0FDE60C5A449";
name = "#instance";
shapes = (
{
closed = 1;
nodes = (
(937,178,l),
(975,178,l),
(975,720,l),
(495,720,l),
(495,680,l),
(937,680,l)
);
},
{
closed = 1;
nodes = (
(974,1224,l),
(878,1338,o),
(752,1406,o),
(614,1406,cs),
(318,1406,o),
(70,1088,o),
(70,702,cs),
(70,314,o),
(318,-6,o),
(614,-6,cs),
(752,-6,o),
(879,64,o),
(975,178,c),
(954,204,l),
(864,96,o),
(744,32,o),
(614,32,cs),
(333,32,o),
(108,334,o),
(108,702,cs),
(108,1068,o),
(333,1368,o),
(614,1368,cs),
(744,1368,o),
(864,1306,o),
(954,1198,c)
);
}
);
width = 1140;
},
{
anchors = (
{
name = bottom;
position = "{792, 0}";
},
{
name = top;
position = "{820, 1402}";
}
);
layerId = "CBB0ADCE-2C6B-4C18-8CFE-465C501777A2";
shapes = (
{
closed = 1;
nodes = (
(1004,152,l),
(1404,152,l),
(1404,832,l),
(724,832,l),
(724,512,l),
(1004,512,l)
);
},
{
closed = 1;
nodes = (
(1426,1212,l),
(1276,1346,o),
(1038,1432,o),
(820,1432,cs),
(362,1432,o),
(30,1124,o),
(30,702,cs),
(30,278,o),
(350,-32,o),
(790,-32,cs),
(990,-32,o),
(1248,46,o),
(1404,152,c),
(1142,478,l),
(1040,406,o),
(904,354,o),
(822,354,cs),
(640,354,o),
(506,500,o),
(506,702,cs),
(506,900,o),
(638,1046,o),
(818,1046,cs),
(934,1046,o),
(1070,986,o),
(1164,894,c)
);
}
);
width = 1476;
},
{
anchors = (
{
name = bottom;
position = "{594, 0}";
},
{
name = top;
position = "{615, 1402}";
}
);
layerId = "EBC752C6-95D9-4DED-AD5D-85333C04496E";
shapes = (
{
closed = 1;
nodes = (
(746,152,l),
(1053,152,l),
(1053,832,l),
(543,832,l),
(543,512,l),
(746,512,l)
);
},
{
closed = 1;
nodes = (
(1070,1212,l),
(957,1346,o),
(779,1432,o),
(615,1432,cs),
(272,1432,o),
(18,1124,o),
(18,702,cs),
(18,278,o),
(263,-32,o),
(593,-32,cs),
(743,-32,o),
(936,46,o),
(1053,152,c),
(857,478,l),
(780,406,o),
(678,354,o),
(617,354,cs),
(480,354,o),
(384,500,o),
(384,702,cs),
(384,900,o),
(479,1046,o),
(614,1046,cs),
(701,1046,o),
(803,986,o),
(873,894,c)
);
}
);
width = 1107;
},
{
anchors = (
{
name = bottom;
position = "{774, 0}";
},
{
name = top;
position = "{774, 1400}";
}
);
layerId = "A31F2A1B-1434-479A-A47A-09846372A702";
shapes = (
{
closed = 1;
nodes = (
(1128,168,l),
(1348,168,l),
(1348,800,l),
(700,800,l),
(700,600,l),
(1128,600,l)
);
},
{
closed = 1;
nodes = (
(1356,1216,l),
(1218,1338,o),
(1018,1414,o),
(818,1414,cs),
(394,1414,o),
(68,1102,o),
(68,702,cs),
(68,300,o),
(390,-16,o),
(804,-16,cs),
(996,-16,o),
(1206,58,o),
(1348,168,c),
(1212,332,l),
(1100,240,o),
(950,184,o),
(820,184,cs),
(534,184,o),
(308,412,o),
(308,702,cs),
(308,988,o),
(532,1216,o),
(818,1216,cs),
(964,1216,o),
(1114,1156,o),
(1222,1054,c)
);
}
);
width = 1498;
},
{
anchors = (
{
name = bottom;
position = "{581, 0}";
},
{
name = top;
position = "{581, 1400}";
}
);
layerId = "509FD652-F91B-436C-A4D5-5322A671A429";
shapes = (
{
closed = 1;
nodes = (
(839,168,l),
(1011,168,l),
(1011,800,l),
(525,800,l),
(525,600,l),
(839,600,l)
);
},
{
closed = 1;
nodes = (
(1017,1216,l),
(914,1338,o),
(764,1414,o),
(614,1414,cs),
(296,1414,o),
(46,1102,o),
(46,702,cs),
(46,300,o),
(293,-16,o),
(603,-16,cs),
(747,-16,o),
(905,58,o),
(1011,168,c),
(909,332,l),
(825,240,o),
(713,184,o),
(615,184,cs),
(401,184,o),
(235,412,o),
(235,702,cs),
(235,988,o),
(399,1216,o),
(614,1216,cs),
(723,1216,o),
(836,1156,o),
(917,1054,c)
);
}
);
width = 1124;
},
{
anchors = (
{
name = bottom;
position = "{760, 0}";
},
{
name = top;
position = "{760, 1398}";
}
);
layerId = "AD6BCF41-EF37-4505-B0B8-48EA3C63FE3E";
shapes = (
{
closed = 1;
nodes = (
(1258,178,l),
(1300,178,l),
(1300,720,l),
(660,720,l),
(660,680,l),
(1258,680,l)
);
},
{
closed = 1;
nodes = (
(1298,1224,l),
(1170,1338,o),
(1002,1406,o),
(818,1406,cs),
(424,1406,o),
(100,1088,o),
(100,702,cs),
(100,314,o),
(424,-6,o),
(818,-6,cs),
(1002,-6,o),
(1172,64,o),
(1300,178,c),
(1272,204,l),
(1152,96,o),
(992,32,o),
(818,32,cs),
(444,32,o),
(138,334,o),
(138,702,cs),
(138,1068,o),
(444,1368,o),
(818,1368,cs),
(992,1368,o),
(1152,1306,o),
(1272,1198,c)
);
}
);
width = 1520;
},
{
anchors = (
{
name = bottom;
position = "{570, 0}";
},
{
name = top;
position = "{570, 1398}";
}
);
layerId = "8F81F910-5DBA-457E-82E0-752C82078E80";
shapes = (
{
closed = 1;
nodes = (
(937,178,l),
(975,178,l),
(975,720,l),
(495,720,l),
(495,680,l),
(937,680,l)
);
},
{
closed = 1;
nodes = (
(974,1224,l),
(878,1338,o),
(752,1406,o),
(614,1406,cs),
(318,1406,o),
(70,1088,o),
(70,702,cs),
(70,314,o),
(318,-6,o),
(614,-6,cs),
(752,-6,o),
(879,64,o),
(975,178,c),
(954,204,l),
(864,96,o),
(744,32,o),
(614,32,cs),
(333,32,o),
(108,334,o),
(108,702,cs),
(108,1068,o),
(333,1368,o),
(614,1368,cs),
(744,1368,o),
(864,1306,o),
(954,1198,c)
);
}
);
width = 1140;
}
);
leftKerningGroup = O;
rightKerningGroup = G;
unicode = 71;
},
{
glyphname = H;
layers = (
{
anchors = (
{
name = bottom;
position = "{780, 0}";
},
{
name = top;
position = "{780, 1400}";
}
);
layerId = "CBB0ADCE-2C6B-4C18-8CFE-465C501777A2";
shapes = (
{
closed = 1;
nodes = (
(100,0,l),
(563,0,l),
(563,505,l),
(997,505,l),
(997,0,l),
(1460,0,l),
(1460,1400,l),
(997,1400,l),
(997,857,l),
(563,857,l),
(563,1400,l),
(100,1400,l)
);
}
);
width = 1560;
},
{
anchors = (
{
name = bottom;
position = "{585, 0}";
},
{
name = top;
position = "{585, 1400}";
}
);
layerId = "EBC752C6-95D9-4DED-AD5D-85333C04496E";
shapes = (
{
closed = 1;
nodes = (
(71,0,l),
(426,0,l),
(426,505,l),
(744,505,l),
(744,0,l),
(1099,0,l),
(1099,1400,l),
(744,1400,l),
(744,857,l),
(426,857,l),
(426,1400,l),
(71,1400,l)
);
}
);
width = 1170;
},
{
anchors = (
{
name = bottom;
position = "{790, 0}";
},
{
name = top;
position = "{800, 1398}";
}
);
layerId = "A31F2A1B-1434-479A-A47A-09846372A702";
shapes = (
{
closed = 1;
nodes = (
(184,0,l),
(420,0,l),
(420,586,l),
(1162,586,l),
(1162,0,l),
(1398,0,l),
(1398,1400,l),
(1162,1400,l),
(1162,786,l),
(420,786,l),
(420,1400,l),
(184,1400,l)
);
}
);
width = 1582;
},
{
anchors = (
{
name = bottom;
position = "{593, 0}";
},
{
name = top;
position = "{600, 1398}";
}
);
layerId = "509FD652-F91B-436C-A4D5-5322A671A429";
shapes = (
{
closed = 1;
nodes = (
(134,0,l),
(319,0,l),
(319,586,l),
(868,586,l),
(868,0,l),
(1053,0,l),
(1053,1400,l),
(868,1400,l),
(868,786,l),
(319,786,l),
(319,1400,l),
(134,1400,l)
);
}
);
width = 1187;
},
{
anchors = (
{
name = bottom;
position = "{802, 0}";
},
{
name = top;
position = "{796, 1398}";
}
);
layerId = "AD6BCF41-EF37-4505-B0B8-48EA3C63FE3E";
shapes = (
{
closed = 1;
nodes = (
(256,0,l),
(296,0,l),
(296,687,l),
(1304,687,l),
(1304,0,l),
(1344,0,l),
(1344,1400,l),
(1304,1400,l),
(1304,727,l),
(296,727,l),
(296,1400,l),
(256,1400,l)
);
}
);
width = 1600;
},
{
anchors = (
{
name = bottom;
position = "{602, 0}";
},
{
name = top;
position = "{597, 1398}";
}
);
layerId = "8F81F910-5DBA-457E-82E0-752C82078E80";
shapes = (
{
closed = 1;
nodes = (
(188,0,l),
(226,0,l),
(226,687,l),
(974,687,l),
(974,0,l),
(1012,0,l),
(1012,1400,l),
(974,1400,l),
(974,727,l),
(226,727,l),
(226,1400,l),
(188,1400,l)
);
}
);
width = 1200;
}
);
leftKerningGroup = H;
rightKerningGroup = H;
unicode = 72;
},
{
glyphname = I;
layers = (
{
anchors = (
{
name = bottom;
position = "{207, 0}";
},
{
name = ogonek;
position = "{222, 0}";
},
{
name = top;
position = "{207, 1400}";
},
{
name = topleft;
position = "{54, 1400}";
}
);
layerId = "15911918-BD0E-422E-8741-0FDE60C5A449";
name = "#instance";
shapes = (
{
closed = 1;
nodes = (
(188,0,l),
(226,0,l),
(226,1400,l),
(188,1400,l)
);
}
);
width = 414;
},
{
anchors = (
{
name = bottom;
position = "{332, 0}";
},
{
name = ogonek;
position = "{428, 0}";
},
{
name = top;
position = "{332, 1400}";
},
{
name = topleft;
position = "{-32, 1400}";
}
);
layerId = "CBB0ADCE-2C6B-4C18-8CFE-465C501777A2";
shapes = (
{
closed = 1;
nodes = (
(100,0,l),
(563,0,l),
(563,1400,l),
(100,1400,l)
);
}
);
width = 664;
},
{
anchors = (
{
name = bottom;
position = "{249, 0}";
},
{
name = ogonek;
position = "{321, 0}";
},
{
name = top;
position = "{249, 1400}";
},
{
name = topleft;
position = "{-24, 1400}";
}
);
layerId = "EBC752C6-95D9-4DED-AD5D-85333C04496E";
shapes = (
{
closed = 1;
nodes = (
(71,0,l),
(426,0,l),
(426,1400,l),
(71,1400,l)
);
}
);
width = 498;
},
{
anchors = (
{
name = bottom;
position = "{302, 0}";
},
{
name = ogonek;
position = "{420, 0}";
},
{
name = top;
position = "{300, 1398}";
},
{
name = topleft;
position = "{36, 1400}";
}
);
layerId = "A31F2A1B-1434-479A-A47A-09846372A702";
shapes = (
{
closed = 1;
nodes = (
(184,0,l),
(420,0,l),
(420,1400,l),
(184,1400,l)
);
}
);
width = 604;
},
{
anchors = (
{
name = bottom;
position = "{227, 0}";
},
{
name = ogonek;
position = "{315, 0}";
},
{
name = top;
position = "{225, 1398}";
},
{
name = topleft;
position = "{27, 1400}";
}
);
layerId = "509FD652-F91B-436C-A4D5-5322A671A429";
shapes = (
{
closed = 1;
nodes = (
(134,0,l),
(319,0,l),
(319,1400,l),
(134,1400,l)
);
}
);
width = 453;
},
{
anchors = (
{
name = bottom;
position = "{276, 0}";
},
{
name = ogonek;
position = "{296, 0}";
},
{
name = top;
position = "{276, 1400}";
},
{
name = topleft;
position = "{72, 1400}";
}
);
layerId = "AD6BCF41-EF37-4505-B0B8-48EA3C63FE3E";
shapes = (
{
closed = 1;
nodes = (
(256,0,l),
(296,0,l),
(296,1400,l),
(256,1400,l)
);
}
);
width = 552;
},
{
anchors = (
{
name = bottom;
position = "{207, 0}";
},
{
name = ogonek;
position = "{222, 0}";
},
{
name = top;
position = "{207, 1400}";
},
{
name = topleft;
position = "{54, 1400}";
}
);
layerId = "8F81F910-5DBA-457E-82E0-752C82078E80";
shapes = (
{
closed = 1;
nodes = (
(188,0,l),
(226,0,l),
(226,1400,l),
(188,1400,l)
);
}
);
width = 414;
}
);
leftKerningGroup = H;
rightKerningGroup = H;
unicode = 73;
},
{
glyphname = J;
layers = (
{
layerId = "15911918-BD0E-422E-8741-0FDE60C5A449";
name = "#instance";
shapes = (
{
closed = 1;
nodes = (
(528,1400,l),
(490,1400,l),
(490,395,ls),
(490,164,o),
(413,40,o),
(266,40,cs),
(171,40,o),
(87,104,o),
(26,224,c),
(5,196,l),
(71,70,o),
(164,0,o),
(266,0,cs),
(433,0,o),
(528,140,o),
(528,395,cs)
);
}
);
width = 690;
},
{
layerId = "CBB0ADCE-2C6B-4C18-8CFE-465C501777A2";
shapes = (
{
closed = 1;
nodes = (
(1056,1400,l),
(591,1400,l),
(591,483,ls),
(591,403,o),
(549,365,o),
(485,365,cs),
(415,365,o),
(304,413,o),
(194,523,c),
(-16,224,l),
(126,68,o),
(304,-20,o),
(529,-20,cs),
(851,-20,o),
(1056,160,o),
(1056,473,cs)
);
}
);
width = 1136;
},
{
layerId = "EBC752C6-95D9-4DED-AD5D-85333C04496E";
shapes = (
{
closed = 1;
nodes = (
(796,1400,l),
(439,1400,l),
(439,483,ls),
(439,403,o),
(412,365,o),
(364,365,cs),
(311,365,o),
(228,413,o),
(146,523,c),
(-12,224,l),
(95,68,o),
(228,-20,o),
(397,-20,cs),
(638,-20,o),
(796,160,o),
(796,473,cs)
);
}
);
width = 852;
},
{
layerId = "A31F2A1B-1434-479A-A47A-09846372A702";
shapes = (
{
closed = 1;
nodes = (
(844,1400,l),
(606,1400,l),
(606,436,ls),
(606,288,o),
(532,208,o),
(406,208,cs),
(310,208,o),
(200,262,o),
(108,362,c),
(-4,190,l),
(100,64,o),
(240,-10,o),
(408,-10,cs),
(678,-10,o),
(844,150,o),
(844,430,cs)
);
}
);
width = 998;
},
{
layerId = "509FD652-F91B-436C-A4D5-5322A671A429";
shapes = (
{
closed = 1;
nodes = (
(637,1400,l),
(451,1400,l),
(451,436,ls),
(451,288,o),
(399,208,o),
(305,208,cs),
(233,208,o),
(150,262,o),
(81,362,c),
(-3,190,l),
(75,64,o),
(180,-10,o),
(306,-10,cs),
(509,-10,o),
(637,150,o),
(637,430,cs)
);
}
);
width = 749;
},
{
layerId = "AD6BCF41-EF37-4505-B0B8-48EA3C63FE3E";
shapes = (
{
closed = 1;
nodes = (
(699,1400,l),
(659,1400,l),
(659,395,ls),
(659,164,o),
(551,40,o),
(354,40,cs),
(228,40,o),
(116,104,o),
(34,224,c),
(6,196,l),
(94,70,o),
(218,0,o),
(354,0,cs),
(577,0,o),
(699,140,o),
(699,395,cs)
);
}
);
width = 920;
},
{
layerId = "8F81F910-5DBA-457E-82E0-752C82078E80";
shapes = (
{
closed = 1;
nodes = (
(528,1400,l),
(490,1400,l),
(490,395,ls),
(490,164,o),
(413,40,o),
(266,40,cs),
(171,40,o),
(87,104,o),
(26,224,c),
(5,196,l),
(71,70,o),
(164,0,o),
(266,0,cs),
(433,0,o),
(528,140,o),
(528,395,cs)
);
}
);
width = 690;
}
);
leftKerningGroup = J;
rightKerningGroup = U;
unicode = 74;
},
{
glyphname = K;
layers = (
{
anchors = (
{
name = bottom;
position = "{503, 0}";
},
{
name = top;
position = "{503, 1400}";
}
);
layerId = "15911918-BD0E-422E-8741-0FDE60C5A449";
name = "#instance";
shapes = (
{
closed = 1;
nodes = (
(188,0,l),
(226,0,l),
(230,383,l),
(933,1400,l),
(883,1400,l),
(226,441,l),
(226,1400,l),
(188,1400,l)
);
},
{
closed = 1;
nodes = (
(459,753,l),
(917,0,l),
(966,0,l),
(485,789,l)
);
}
);
width = 1007;
},
{
anchors = (
{
name = bottom;
position = "{744, 0}";
},
{
name = top;
position = "{744, 1400}";
}
);
layerId = "CBB0ADCE-2C6B-4C18-8CFE-465C501777A2";
shapes = (
{
closed = 1;
nodes = (
(100,0,l),
(563,0,l),
(563,339,l),
(1514,1400,l),
(981,1400,l),
(563,889,l),
(563,1400,l),
(100,1400,l)
);
},
{
closed = 1;
nodes = (
(673,523,l),
(991,0,l),
(1544,0,l),
(983,887,l)
);
}
);
width = 1544;
},
{
anchors = (
{
name = bottom;
position = "{558, 0}";
},
{
name = top;
position = "{558, 1400}";
}
);
layerId = "EBC752C6-95D9-4DED-AD5D-85333C04496E";
shapes = (
{
closed = 1;
nodes = (
(71,0,l),
(426,0,l),
(430,339,l),
(1140,1400,l),
(732,1400,l),
(426,889,l),
(426,1400,l),
(71,1400,l)
);
},
{
closed = 1;
nodes = (
(501,523,l),
(739,0,l),
(1162,0,l),
(741,887,l)
);
}
);
width = 1158;
},
{
anchors = (
{
name = bottom;
position = "{706, 0}";
},
{
name = top;
position = "{706, 1400}";
}
);
layerId = "A31F2A1B-1434-479A-A47A-09846372A702";
shapes = (
{
closed = 1;
nodes = (
(184,0,l),
(420,0,l),
(420,362,l),
(1366,1400,l),
(1088,1400,l),
(420,648,l),
(420,1400,l),
(184,1400,l)
);
},
{
closed = 1;
nodes = (
(642,646,l),
(1118,0,l),
(1402,0,l),
(798,834,l)
);
}
);
width = 1436;
},
{
anchors = (
{
name = bottom;
position = "{530, 0}";
},
{
name = top;
position = "{530, 1400}";
}
);
layerId = "509FD652-F91B-436C-A4D5-5322A671A429";
shapes = (
{
closed = 1;
nodes = (
(134,0,l),
(319,0,l),
(323,362,l),
(1029,1400,l),
(812,1400,l),
(319,648,l),
(319,1400,l),
(134,1400,l)
);
},
{
closed = 1;
nodes = (
(478,646,l),
(835,0,l),
(1056,0,l),
(603,834,l)
);
}
);
width = 1077;
},
{
anchors = (
{
name = bottom;
position = "{670, 0}";
},
{
name = top;
position = "{670, 1400}";
}
);
layerId = "AD6BCF41-EF37-4505-B0B8-48EA3C63FE3E";
shapes = (
{
closed = 1;
nodes = (
(256,0,l),
(296,0,l),
(296,383,l),
(1238,1400,l),
(1182,1400,l),
(296,441,l),
(296,1400,l),
(256,1400,l)
);
},
{
closed = 1;
nodes = (
(617,753,l),
(1228,0,l),
(1282,0,l),
(641,789,l)
);
}
);
width = 1342;
},
{
anchors = (
{
name = bottom;
position = "{503, 0}";
},
{
name = top;
position = "{503, 1400}";
}
);
layerId = "8F81F910-5DBA-457E-82E0-752C82078E80";
shapes = (
{
closed = 1;
nodes = (
(188,0,l),
(226,0,l),
(230,383,l),
(933,1400,l),
(883,1400,l),
(226,441,l),
(226,1400,l),
(188,1400,l)
);
},
{
closed = 1;
nodes = (
(459,753,l),
(917,0,l),
(966,0,l),
(485,789,l)
);
}
);
width = 1007;
}
);
leftKerningGroup = H;
rightKerningGroup = K;
unicode = 75;
},
{
glyphname = L;
layers = (
{
anchors = (
{
name = bottom;
position = "{443, 0}";
},
{
name = center;
position = "{573, 782}";
},
{
name = top;
position = "{222, 1400}";
},
{
name = topright;
position = "{663, 1400}";
}
);
guides = (
{
angle = 90;
position = "{834, 0}";
}
);
layerId = "15911918-BD0E-422E-8741-0FDE60C5A449";
name = "#instance";
shapes = (
{
closed = 1;
nodes = (
(188,0,l),
(692,0,l),
(692,40,l),
(226,40,l),
(226,1400,l),
(188,1400,l)
);
}
);
width = 738;
},
{
anchors = (
{
name = bottom;
position = "{624, 0}";
},
{
name = center;
position = "{898, 878}";
},
{
name = top;
position = "{318, 1400}";
},
{
name = topright;
position = "{830, 1400}";
}
);
guides = (
{
angle = 90;
position = "{1146, 0}";
}
);
layerId = "CBB0ADCE-2C6B-4C18-8CFE-465C501777A2";
shapes = (
{
closed = 1;
nodes = (
(100,0,l),
(1146,0,l),
(1146,385,l),
(563,385,l),
(563,1400,l),
(100,1400,l)
);
}
);
width = 1166;
},
{
anchors = (
{
name = bottom;
position = "{468, 0}";
},
{
name = center;
position = "{674, 878}";
},
{
name = top;
position = "{239, 1400}";
},
{
name = topright;
position = "{623, 1400}";
}
);
guides = (
{
angle = 90;
position = "{859.5, 0}";
}
);
layerId = "EBC752C6-95D9-4DED-AD5D-85333C04496E";
shapes = (
{
closed = 1;
nodes = (
(71,0,l),
(860,0,l),
(860,385,l),
(426,385,l),
(426,1400,l),
(71,1400,l)
);
}
);
width = 875;
},
{
anchors = (
{
name = bottom;
position = "{606, 0}";
},
{
name = center;
position = "{834, 800}";
},
{
name = top;
position = "{306, 1398}";
},
{
name = topright;
position = "{810, 1400}";
}
);
guides = (
{
angle = 90;
position = "{834, 0}";
}
);
layerId = "A31F2A1B-1434-479A-A47A-09846372A702";
shapes = (
{
closed = 1;
nodes = (
(184,0,l),
(1026,0,l),
(1026,202,l),
(420,202,l),
(420,1400,l),
(184,1400,l)
);
}
);
width = 1068;
},
{
anchors = (
{
name = bottom;
position = "{455, 0}";
},
{
name = center;
position = "{626, 800}";
},
{
name = top;
position = "{230, 1398}";
},
{
name = topright;
position = "{608, 1400}";
}
);
guides = (
{
angle = 90;
position = "{625.5, 0}";
}
);
layerId = "509FD652-F91B-436C-A4D5-5322A671A429";
shapes = (
{
closed = 1;
nodes = (
(134,0,l),
(770,0,l),
(770,202,l),
(319,202,l),
(319,1400,l),
(134,1400,l)
);
}
);
width = 801;
},
{
anchors = (
{
name = bottom;
position = "{590, 0}";
},
{
name = center;
position = "{764, 782}";
},
{
name = top;
position = "{296, 1400}";
},
{
name = topright;
position = "{884, 1400}";
}
);
guides = (
{
angle = 90;
position = "{923, 0}";
}
);
layerId = "AD6BCF41-EF37-4505-B0B8-48EA3C63FE3E";
shapes = (
{
closed = 1;
nodes = (
(256,0,l),
(923,0,l),
(923,40,l),
(296,40,l),
(296,1400,l),
(256,1400,l)
);
}
);
width = 984;
},
{
anchors = (
{
name = bottom;
position = "{443, 0}";
},
{
name = center;
position = "{573, 782}";
},
{
name = top;
position = "{222, 1400}";
},
{
name = topright;
position = "{663, 1400}";
}
);
guides = (
{
angle = 90;
position = "{692.25, 0}";
}
);
layerId = "8F81F910-5DBA-457E-82E0-752C82078E80";
shapes = (
{
closed = 1;
nodes = (
(188,0,l),
(692,0,l),
(692,40,l),
(226,40,l),
(226,1400,l),
(188,1400,l)
);
}
);
width = 738;
}
);
leftKerningGroup = H;
rightKerningGroup = L;
unicode = 76;
},
{
glyphname = M;
layers = (
{
layerId = "15911918-BD0E-422E-8741-0FDE60C5A449";
name = "#instance";
shapes = (
{
closed = 1;
nodes = (
(188,0,l),
(226,0,l),
(226,1362,l),
(700,154,l),
(703,154,l),
(1175,1362,l),
(1177,0,l),
(1215,0,l),
(1215,1400,l),
(1158,1400,l),
(703,240,l),
(245,1400,l),
(188,1400,l)
);
}
);
width = 1403;
},
{
layerId = "CBB0ADCE-2C6B-4C18-8CFE-465C501777A2";
shapes = (
{
closed = 1;
nodes = (
(100,0,l),
(505,0,l),
(505,767,l),
(787,136,l),
(1088,136,l),
(1370,767,l),
(1370,0,l),
(1775,0,l),
(1775,1400,l),
(1284,1400,l),
(939,669,l),
(591,1400,l),
(100,1400,l)
);
}
);
width = 1876;
},
{
layerId = "EBC752C6-95D9-4DED-AD5D-85333C04496E";
shapes = (
{
closed = 1;
nodes = (
(71,0,l),
(383,0,l),
(383,767,l),
(590,136,l),
(816,136,l),
(1024,767,l),
(1024,0,l),
(1335,0,l),
(1335,1400,l),
(963,1400,l),
(704,669,l),
(443,1400,l),
(71,1400,l)
);
}
);
width = 1407;
},
{
layerId = "A31F2A1B-1434-479A-A47A-09846372A702";
shapes = (
{
closed = 1;
nodes = (
(184,0,l),
(402,0,l),
(402,1070,l),
(866,146,l),
(1016,146,l),
(1476,1070,l),
(1478,0,l),
(1696,0,l),
(1696,1400,l),
(1422,1400,l),
(942,450,l),
(458,1400,l),
(184,1400,l)
);
}
);
width = 1880;
},
{
layerId = "509FD652-F91B-436C-A4D5-5322A671A429";
shapes = (
{
closed = 1;
nodes = (
(134,0,l),
(306,0,l),
(306,1070,l),
(650,146,l),
(762,146,l),
(1103,1070,l),
(1105,0,l),
(1276,0,l),
(1276,1400,l),
(1067,1400,l),
(707,450,l),
(344,1400,l),
(134,1400,l)
);
}
);
width = 1410;
},
{
layerId = "AD6BCF41-EF37-4505-B0B8-48EA3C63FE3E";
shapes = (
{
closed = 1;
nodes = (
(256,0,l),
(296,0,l),
(296,1362,l),
(933,154,l),
(937,154,l),
(1572,1362,l),
(1574,0,l),
(1614,0,l),
(1614,1400,l),
(1544,1400,l),
(937,240,l),
(326,1400,l),
(256,1400,l)
);
}
);
width = 1870;
},
{
layerId = "8F81F910-5DBA-457E-82E0-752C82078E80";
shapes = (
{
closed = 1;
nodes = (
(188,0,l),
(226,0,l),
(226,1362,l),
(700,154,l),
(703,154,l),
(1175,1362,l),
(1177,0,l),
(1215,0,l),
(1215,1400,l),
(1158,1400,l),
(703,240,l),
(245,1400,l),
(188,1400,l)
);
}
);
width = 1403;
}
);
leftKerningGroup = H;
rightKerningGroup = H;
unicode = 77;
},
{
glyphname = N;
layers = (
{
layerId = "15911918-BD0E-422E-8741-0FDE60C5A449";
name = "#instance";
shapes = (
{
closed = 1;
nodes = (
(188,0,l),
(226,0,l),
(226,1378,l),
(215,1374,l),
(963,0,l),
(1012,0,l),
(1012,1400,l),
(974,1400,l),
(974,22,l),
(986,26,l),
(237,1400,l),
(188,1400,l)
);
}
);
width = 1200;
},
{
layerId = "CBB0ADCE-2C6B-4C18-8CFE-465C501777A2";
shapes = (
{
closed = 1;
nodes = (
(100,0,l),
(521,0,l),
(521,917,l),
(397,875,l),
(1072,0,l),
(1460,0,l),
(1460,1400,l),
(1040,1400,l),
(1040,479,l),
(1164,521,l),
(487,1400,l),
(100,1400,l)
);
}
);
width = 1560;
},
{
layerId = "EBC752C6-95D9-4DED-AD5D-85333C04496E";
shapes = (
{
closed = 1;
nodes = (
(71,0,l),
(395,0,l),
(395,917,l),
(298,875,l),
(804,0,l),
(1099,0,l),
(1099,1400,l),
(776,1400,l),
(776,479,l),
(873,521,l),
(365,1400,l),
(71,1400,l)
);
}
);
width = 1170;
},
{
layerId = "A31F2A1B-1434-479A-A47A-09846372A702";
shapes = (
{
closed = 1;
nodes = (
(184,0,l),
(420,0,l),
(420,1128,l),
(358,1108,l),
(1166,0,l),
(1398,0,l),
(1398,1400,l),
(1166,1400,l),
(1166,270,l),
(1226,290,l),
(416,1400,l),
(184,1400,l)
);
}
);
width = 1584;
},
{
layerId = "509FD652-F91B-436C-A4D5-5322A671A429";
shapes = (
{
closed = 1;
nodes = (
(134,0,l),
(319,0,l),
(319,1128,l),
(269,1108,l),
(875,0,l),
(1053,0,l),
(1053,1400,l),
(871,1400,l),
(871,270,l),
(920,290,l),
(312,1400,l),
(134,1400,l)
);
}
);
width = 1188;
},
{
layerId = "AD6BCF41-EF37-4505-B0B8-48EA3C63FE3E";
shapes = (
{
closed = 1;
nodes = (
(256,0,l),
(296,0,l),
(296,1378,l),
(286,1374,l),
(1284,0,l),
(1344,0,l),
(1344,1400,l),
(1304,1400,l),
(1304,22,l),
(1314,26,l),
(316,1400,l),
(256,1400,l)
);
}
);
width = 1600;
},
{
layerId = "8F81F910-5DBA-457E-82E0-752C82078E80";
shapes = (
{
closed = 1;
nodes = (
(188,0,l),
(226,0,l),
(226,1378,l),
(215,1374,l),
(963,0,l),
(1012,0,l),
(1012,1400,l),
(974,1400,l),
(974,22,l),
(986,26,l),
(237,1400,l),
(188,1400,l)
);
}
);
width = 1200;
}
);
leftKerningGroup = H;
rightKerningGroup = H;
unicode = 78;
},
{
glyphname = O;
layers = (
{
anchors = (
{
name = bottom;
position = "{615, 0}";
},
{
name = center;
position = "{615, 702}";
},
{
name = ogonek;
position = "{888, 0}";
},
{
name = top;
position = "{615, 1400}";
},
{
name = topleft;
position = "{30, 1408}";
},
{
name = topright;
position = "{861, 1400}";
}
);
guides = (
{
angle = 90;
position = "{940, 0}";
}
);
layerId = "15911918-BD0E-422E-8741-0FDE60C5A449";
name = "#instance";
shapes = (
{
closed = 1;
nodes = (
(319,1408,o),
(71,1090,o),
(71,703,cs),
(71,314,o),
(319,-6,o),
(614,-6,cs),
(911,-6,o),
(1158,314,o),
(1158,703,cs),
(1158,1090,o),
(911,1408,o),
(614,1408,cs)
);
},
{
closed = 1;
nodes = (
(894,1368,o),
(1120,1067,o),
(1120,703,cs),
(1120,336,o),
(894,34,o),
(614,34,cs),
(335,34,o),
(109,336,o),
(109,703,cs),
(109,1067,o),
(335,1368,o),
(614,1368,cs)
);
}
);
width = 1229;
},
{
anchors = (
{
name = bottom;
position = "{798, 0}";
},
{
name = center;
position = "{798, 702}";
},
{
name = ogonek;
position = "{1288, 0}";
},
{
name = top;
position = "{798, 1400}";
},
{
name = topleft;
position = "{40, 1416}";
},
{
name = topright;
position = "{1124, 1400}";
}
);
guides = (
{
angle = 90;
position = "{955, 0}";
}
);
layerId = "CBB0ADCE-2C6B-4C18-8CFE-465C501777A2";
shapes = (
{
closed = 1;
nodes = (
(353,1430,o),
(30,1126,o),
(30,703,cs),
(30,278,o),
(353,-32,o),
(799,-32,cs),
(1244,-32,o),
(1568,280,o),
(1568,703,cs),
(1568,1124,o),
(1244,1430,o),
(799,1430,cs)
);
},
{
closed = 1;
nodes = (
(965,1044,o),
(1092,901,o),
(1092,701,cs),
(1092,501,o),
(965,353,o),
(805,353,cs),
(645,353,o),
(505,501,o),
(505,701,cs),
(505,901,o),
(643,1044,o),
(805,1044,cs)
);
}
);
width = 1598;
},
{
anchors = (
{
name = bottom;
position = "{599, 0}";
},
{
name = center;
position = "{599, 702}";
},
{
name = ogonek;
position = "{966, 0}";
},
{
name = top;
position = "{599, 1400}";
},
{
name = topleft;
position = "{30, 1416}";
},
{
name = topright;
position = "{843, 1400}";
}
);
guides = (
{
angle = 90;
position = "{716.25, 0}";
}
);
layerId = "EBC752C6-95D9-4DED-AD5D-85333C04496E";
shapes = (
{
closed = 1;
nodes = (
(265,1430,o),
(19,1126,o),
(19,703,cs),
(19,278,o),
(265,-32,o),
(599,-32,cs),
(933,-32,o),
(1180,280,o),
(1180,703,cs),
(1180,1124,o),
(933,1430,o),
(599,1430,cs)
);
},
{
closed = 1;
nodes = (
(724,1044,o),
(815,901,o),
(815,701,cs),
(815,501,o),
(724,353,o),
(604,353,cs),
(484,353,o),
(383,501,o),
(383,701,cs),
(383,901,o),
(482,1044,o),
(604,1044,cs)
);
}
);
width = 1199;
},
{
anchors = (
{
name = bottom;
position = "{810, 0}";
},
{
name = center;
position = "{810, 702}";
},
{
name = ogonek;
position = "{1212, 0}";
},
{
name = top;
position = "{810, 1400}";
},
{
name = topleft;
position = "{40, 1408}";
},
{
name = topright;
position = "{1152, 1400}";
}
);
guides = (
{
angle = 90;
position = "{940, 0}";
}
);
layerId = "A31F2A1B-1434-479A-A47A-09846372A702";
shapes = (
{
closed = 1;
nodes = (
(392,1414,o),
(68,1104,o),
(68,702,cs),
(68,300,o),
(392,-16,o),
(810,-16,cs),
(1228,-16,o),
(1552,300,o),
(1552,702,cs),
(1552,1102,o),
(1228,1414,o),
(810,1414,cs)
);
},
{
closed = 1;
nodes = (
(1086,1214,o),
(1310,988,o),
(1310,702,cs),
(1310,414,o),
(1086,184,o),
(812,184,cs),
(538,184,o),
(308,414,o),
(308,702,cs),
(308,988,o),
(536,1214,o),
(812,1214,cs)
);
}
);
width = 1620;
},
{
anchors = (
{
name = bottom;
position = "{608, 0}";
},
{
name = center;
position = "{608, 702}";
},
{
name = ogonek;
position = "{909, 0}";
},
{
name = top;
position = "{608, 1400}";
},
{
name = topleft;
position = "{30, 1408}";
},
{
name = topright;
position = "{864, 1400}";
}
);
guides = (
{
angle = 90;
position = "{705, 0}";
}
);
layerId = "509FD652-F91B-436C-A4D5-5322A671A429";
shapes = (
{
closed = 1;
nodes = (
(294,1414,o),
(47,1104,o),
(47,702,cs),
(47,300,o),
(294,-16,o),
(608,-16,cs),
(921,-16,o),
(1168,300,o),
(1168,702,cs),
(1168,1102,o),
(921,1414,o),
(608,1414,cs)
);
},
{
closed = 1;
nodes = (
(815,1214,o),
(979,988,o),
(979,702,cs),
(979,414,o),
(815,184,o),
(609,184,cs),
(404,184,o),
(235,414,o),
(235,702,cs),
(235,988,o),
(402,1214,o),
(609,1214,cs)
);
}
);
width = 1215;
},
{
anchors = (
{
name = bottom;
position = "{820, 0}";
},
{
name = center;
position = "{820, 702}";
},
{
name = ogonek;
position = "{1184, 0}";
},
{
name = top;
position = "{820, 1400}";
},
{
name = topleft;
position = "{40, 1408}";
},
{
name = topright;
position = "{1148, 1400}";
}
);
guides = (
{
angle = 90;
position = "{1158, 0}";
}
);
layerId = "AD6BCF41-EF37-4505-B0B8-48EA3C63FE3E";
shapes = (
{
closed = 1;
nodes = (
(425,1408,o),
(100,1090,o),
(100,703,cs),
(100,314,o),
(425,-6,o),
(819,-6,cs),
(1214,-6,o),
(1538,314,o),
(1538,703,cs),
(1538,1090,o),
(1214,1408,o),
(819,1408,cs)
);
},
{
closed = 1;
nodes = (
(1192,1368,o),
(1498,1067,o),
(1498,703,cs),
(1498,336,o),
(1192,34,o),
(819,34,cs),
(447,34,o),
(140,336,o),
(140,703,cs),
(140,1067,o),
(447,1368,o),
(819,1368,cs)
);
}
);
width = 1638;
},
{
anchors = (
{
name = bottom;
position = "{615, 0}";
},
{
name = center;
position = "{615, 702}";
},
{
name = ogonek;
position = "{888, 0}";
},
{
name = top;
position = "{615, 1400}";
},
{
name = topleft;
position = "{30, 1408}";
},
{
name = topright;
position = "{861, 1400}";
}
);
guides = (
{
angle = 90;
position = "{868.5, 0}";
}
);
layerId = "8F81F910-5DBA-457E-82E0-752C82078E80";
shapes = (
{
closed = 1;
nodes = (
(319,1408,o),
(71,1090,o),
(71,703,cs),
(71,314,o),
(319,-6,o),
(614,-6,cs),
(911,-6,o),
(1158,314,o),
(1158,703,cs),
(1158,1090,o),
(911,1408,o),
(614,1408,cs)
);
},
{
closed = 1;
nodes = (
(894,1368,o),
(1120,1067,o),
(1120,703,cs),
(1120,336,o),
(894,34,o),
(614,34,cs),
(335,34,o),
(109,336,o),
(109,703,cs),
(109,1067,o),
(335,1368,o),
(614,1368,cs)
);
}
);
width = 1229;
}
);
leftKerningGroup = O;
rightKerningGroup = O;
unicode = 79;
},
{
glyphname = P;
layers = (
{
anchors = (
{
name = top;
position = "{655, 1405}";
}
);
layerId = "CBB0ADCE-2C6B-4C18-8CFE-465C501777A2";
shapes = (
{
closed = 1;
nodes = (
(100,1400,l),
(100,0,l),
(563,0,l),
(563,565,l),
(361,363,l),
(757,363,ls),
(1120,363,o),
(1330,559,o),
(1330,899,cs),
(1330,1218,o),
(1120,1400,o),
(757,1400,cs)
);
},
{
closed = 1;
nodes = (
(361,715,l),
(563,513,l),
(563,1250,l),
(361,1048,l),
(733,1048,ls),
(833,1048,o),
(891,989,o),
(891,885,cs),
(891,777,o),
(833,715,o),
(733,715,cs)
);
}
);
width = 1370;
},
{
anchors = (
{
name = top;
position = "{491, 1405}";
}
);
layerId = "EBC752C6-95D9-4DED-AD5D-85333C04496E";
shapes = (
{
closed = 1;
nodes = (
(71,1400,l),
(71,0,l),
(426,0,l),
(426,565,l),
(271,363,l),
(568,363,ls),
(840,363,o),
(1002,559,o),
(1002,899,cs),
(1002,1218,o),
(840,1400,o),
(568,1400,cs)
);
},
{
closed = 1;
nodes = (
(271,715,l),
(426,513,l),
(426,1250,l),
(271,1048,l),
(550,1048,ls),
(625,1048,o),
(664,989,o),
(664,885,cs),
(664,777,o),
(625,715,o),
(550,715,cs)
);
}
);
width = 1028;
},
{
anchors = (
{
name = top;
position = "{679, 1400}";
}
);
layerId = "A31F2A1B-1434-479A-A47A-09846372A702";
shapes = (
{
closed = 1;
nodes = (
(184,1400,l),
(184,0,l),
(420,0,l),
(420,530,l),
(316,426,l),
(742,426,ls),
(1094,426,o),
(1296,608,o),
(1296,924,cs),
(1296,1226,o),
(1094,1400,o),
(742,1400,cs)
);
},
{
closed = 1;
nodes = (
(316,628,l),
(420,524,l),
(420,1302,l),
(316,1198,l),
(732,1198,ls),
(948,1198,o),
(1070,1108,o),
(1070,918,cs),
(1070,722,o),
(948,628,o),
(732,628,cs)
);
}
);
width = 1346;
},
{
anchors = (
{
name = top;
position = "{509, 1400}";
}
);
layerId = "509FD652-F91B-436C-A4D5-5322A671A429";
shapes = (
{
closed = 1;
nodes = (
(134,1400,l),
(134,0,l),
(319,0,l),
(319,530,l),
(237,426,l),
(557,426,ls),
(821,426,o),
(976,608,o),
(976,924,cs),
(976,1226,o),
(821,1400,o),
(557,1400,cs)
);
},
{
closed = 1;
nodes = (
(237,628,l),
(319,524,l),
(319,1302,l),
(237,1198,l),
(549,1198,ls),
(711,1198,o),
(799,1108,o),
(799,918,cs),
(799,722,o),
(711,628,o),
(549,628,cs)
);
}
);
width = 1010;
},
{
anchors = (
{
name = top;
position = "{688, 1401}";
}
);
layerId = "AD6BCF41-EF37-4505-B0B8-48EA3C63FE3E";
shapes = (
{
closed = 1;
nodes = (
(256,1400,l),
(256,0,l),
(296,0,l),
(296,499,l),
(278,481,l),
(731,481,ls),
(1071,481,o),
(1266,651,o),
(1266,945,cs),
(1266,1234,o),
(1071,1400,o),
(731,1400,cs)
);
},
{
closed = 1;
nodes = (
(278,521,l),
(296,503,l),
(296,1378,l),
(278,1360,l),
(731,1360,ls),
(1045,1360,o),
(1226,1210,o),
(1226,945,cs),
(1226,675,o),
(1045,521,o),
(731,521,cs)
);
}
);
width = 1326;
},
{
anchors = (
{
name = top;
position = "{516, 1401}";
}
);
layerId = "8F81F910-5DBA-457E-82E0-752C82078E80";
shapes = (
{
closed = 1;
nodes = (
(188,1400,l),
(188,0,l),
(226,0,l),
(226,499,l),
(209,481,l),
(548,481,ls),
(803,481,o),
(954,651,o),
(954,945,cs),
(954,1234,o),
(803,1400,o),
(548,1400,cs)
);
},
{
closed = 1;
nodes = (
(209,521,l),
(226,503,l),
(226,1378,l),
(209,1360,l),
(548,1360,ls),
(784,1360,o),
(916,1210,o),
(916,945,cs),
(916,675,o),
(784,521,o),
(548,521,cs)
);
}
);
width = 995;
}
);
leftKerningGroup = H;
rightKerningGroup = P;
unicode = 80;
},
{
glyphname = Q;
layers = (
{
layerId = "30F22935-6172-426C-AE54-DD25BB40AF1A";
associatedMasterId = "CBB0ADCE-2C6B-4C18-8CFE-465C501777A2";
name = "Bold [170]";
shapes = (
{
closed = 1;
nodes = (
(590,-300,l),
(1010,-300,l),
(1010,278,l),
(590,278,l)
);
},
{
closed = 1;
nodes = (
(354,1432,o),
(30,1128,o),
(30,704,cs),
(30,278,o),
(354,-32,o),
(800,-32,cs),
(1246,-32,o),
(1570,280,o),
(1570,704,cs),
(1570,1126,o),
(1246,1432,o),
(800,1432,cs)
);
},
{
closed = 1;
nodes = (
(966,1046,o),
(1094,902,o),
(1094,702,cs),
(1094,502,o),
(966,354,o),
(806,354,cs),
(646,354,o),
(506,502,o),
(506,702,cs),
(506,902,o),
(644,1046,o),
(806,1046,cs)
);
}
);
width = 1600;
},
{
layerId = "CBB0ADCE-2C6B-4C18-8CFE-465C501777A2";
shapes = (
{
closed = 1;
nodes = (
(354,1432,o),
(30,1128,o),
(30,704,cs),
(30,278,o),
(354,-32,o),
(800,-32,cs),
(1246,-32,o),
(1570,280,o),
(1570,704,cs),
(1570,1126,o),
(1246,1432,o),
(800,1432,cs)
);
},
{
closed = 1;
nodes = (
(966,1046,o),
(1094,902,o),
(1094,702,cs),
(1094,502,o),
(966,354,o),
(806,354,cs),
(646,354,o),
(506,502,o),
(506,702,cs),
(506,902,o),
(644,1046,o),
(806,1046,cs)
);
},
{
closed = 1;
nodes = (
(1354,-100,l),
(1570,148,l),
(942,740,l),
(728,492,l)
);
}
);
width = 1598;
},
{
layerId = "EBC752C6-95D9-4DED-AD5D-85333C04496E";
shapes = (
{
closed = 1;
nodes = (
(266,1432,o),
(19,1128,o),
(19,704,cs),
(19,278,o),
(266,-32,o),
(600,-32,cs),
(935,-32,o),
(1182,280,o),
(1182,704,cs),
(1182,1126,o),
(935,1432,o),
(600,1432,cs)
);
},
{
closed = 1;
nodes = (
(725,1046,o),
(817,902,o),
(817,702,cs),
(817,502,o),
(725,354,o),
(605,354,cs),
(485,354,o),
(384,502,o),
(384,702,cs),
(384,902,o),
(483,1046,o),
(605,1046,cs)
);
},
{
closed = 1;
nodes = (
(1016,-100,l),
(1178,148,l),
(707,740,l),
(546,492,l)
);
}
);
width = 1199;
},
{
layerId = "B6684472-795B-4DBF-8FB4-E9819656015E";
associatedMasterId = "A31F2A1B-1434-479A-A47A-09846372A702";
name = "Regular [170]";
shapes = (
{
closed = 1;
nodes = (
(694,-280,l),
(926,-280,l),
(926,142,l),
(694,142,l)
);
},
{
closed = 1;
nodes = (
(392,1414,o),
(68,1104,o),
(68,702,cs),
(68,300,o),
(392,-16,o),
(810,-16,cs),
(1228,-16,o),
(1552,300,o),
(1552,702,cs),
(1552,1102,o),
(1228,1414,o),
(810,1414,cs)
);
},
{
closed = 1;
nodes = (
(1086,1214,o),
(1310,988,o),
(1310,702,cs),
(1310,414,o),
(1086,184,o),
(812,184,cs),
(538,184,o),
(308,414,o),
(308,702,cs),
(308,988,o),
(536,1214,o),
(812,1214,cs)
);
}
);
width = 1620;
},
{
layerId = "A31F2A1B-1434-479A-A47A-09846372A702";
shapes = (
{
closed = 1;
nodes = (
(392,1414,o),
(68,1104,o),
(68,702,cs),
(68,300,o),
(392,-16,o),
(810,-16,cs),
(1228,-16,o),
(1552,300,o),
(1552,702,cs),
(1552,1102,o),
(1228,1414,o),
(810,1414,cs)
);
},
{
closed = 1;
nodes = (
(1086,1214,o),
(1310,988,o),
(1310,702,cs),
(1310,414,o),
(1086,184,o),
(812,184,cs),
(538,184,o),
(308,414,o),
(308,702,cs),
(308,988,o),
(536,1214,o),
(812,1214,cs)
);
},
{
closed = 1;
nodes = (
(1426,-80,l),
(1563,67,l),
(955,639,l),
(820,492,l)
);
}
);
width = 1620;
},
{
layerId = "509FD652-F91B-436C-A4D5-5322A671A429";
shapes = (
{
closed = 1;
nodes = (
(294,1414,o),
(47,1104,o),
(47,702,cs),
(47,300,o),
(294,-16,o),
(608,-16,cs),
(921,-16,o),
(1168,300,o),
(1168,702,cs),
(1168,1102,o),
(921,1414,o),
(608,1414,cs)
);
},
{
closed = 1;
nodes = (
(815,1214,o),
(979,988,o),
(979,702,cs),
(979,414,o),
(815,184,o),
(609,184,cs),
(404,184,o),
(235,414,o),
(235,702,cs),
(235,988,o),
(402,1214,o),
(609,1214,cs)
);
},
{
closed = 1;
nodes = (
(1070,-80,l),
(1172,67,l),
(716,639,l),
(615,492,l)
);
}
);
width = 1215;
},
{
layerId = "AD6BCF41-EF37-4505-B0B8-48EA3C63FE3E";
shapes = (
{
closed = 1;
nodes = (
(424,1406,o),
(100,1088,o),
(100,702,cs),
(100,314,o),
(424,-6,o),
(818,-6,cs),
(1212,-6,o),
(1536,314,o),
(1536,702,cs),
(1536,1088,o),
(1212,1406,o),
(818,1406,cs)
);
},
{
closed = 1;
nodes = (
(1190,1366,o),
(1496,1066,o),
(1496,702,cs),
(1496,336,o),
(1190,34,o),
(818,34,cs),
(446,34,o),
(140,336,o),
(140,702,cs),
(140,1066,o),
(446,1366,o),
(818,1366,cs)
);
},
{
closed = 1;
nodes = (
(1486,-20,l),
(1514,6,l),
(918,568,l),
(890,542,l)
);
}
);
width = 1602;
},
{
layerId = "8F81F910-5DBA-457E-82E0-752C82078E80";
shapes = (
{
closed = 1;
nodes = (
(318,1406,o),
(71,1088,o),
(71,702,cs),
(71,314,o),
(318,-6,o),
(614,-6,cs),
(909,-6,o),
(1156,314,o),
(1156,702,cs),
(1156,1088,o),
(909,1406,o),
(614,1406,cs)
);
},
{
closed = 1;
nodes = (
(893,1366,o),
(1118,1066,o),
(1118,702,cs),
(1118,336,o),
(893,34,o),
(614,34,cs),
(335,34,o),
(109,336,o),
(109,702,cs),
(109,1066,o),
(335,1366,o),
(614,1366,cs)
);
},
{
closed = 1;
nodes = (
(1115,-20,l),
(1136,6,l),
(689,568,l),
(668,542,l)
);
}
);
width = 1202;
}
);
leftKerningGroup = O;
rightKerningGroup = O;
unicode = 81;
},
{
glyphname = R;
layers = (
{
layerId = "15911918-BD0E-422E-8741-0FDE60C5A449";
name = "#instance";
shapes = (
{
closed = 1;
nodes = (
(188,1400,l),
(188,0,l),
(226,0,l),
(226,481,l),
(548,481,ls),
(803,481,o),
(954,651,o),
(954,945,cs),
(954,1234,o),
(803,1400,o),
(548,1400,cs)
);
},
{
closed = 1;
nodes = (
(226,521,l),
(226,1360,l),
(548,1360,ls),
(784,1360,o),
(916,1210,o),
(916,945,cs),
(916,675,o),
(784,521,o),
(548,521,cs)
);
},
{
closed = 1;
nodes = (
(912,0,l),
(950,0,l),
(671,509,l),
(634,509,l)
);
}
);
width = 1085;
},
{
layerId = "CBB0ADCE-2C6B-4C18-8CFE-465C501777A2";
shapes = (
{
closed = 1;
nodes = (
(100,1400,l),
(100,0,l),
(563,0,l),
(563,363,l),
(777,363,ls),
(1156,363,o),
(1374,559,o),
(1374,899,cs),
(1374,1218,o),
(1156,1400,o),
(777,1400,cs)
);
},
{
closed = 1;
nodes = (
(563,715,l),
(563,1048,l),
(777,1048,ls),
(877,1048,o),
(935,989,o),
(935,885,cs),
(935,777,o),
(877,715,o),
(777,715,cs)
);
},
{
closed = 1;
nodes = (
(905,0,l),
(1428,0,l),
(1106,529,l),
(659,529,l)
);
}
);
width = 1476;
},
{
layerId = "EBC752C6-95D9-4DED-AD5D-85333C04496E";
shapes = (
{
closed = 1;
nodes = (
(71,1400,l),
(71,0,l),
(426,0,l),
(426,363,l),
(583,363,ls),
(867,363,o),
(1035,559,o),
(1035,899,cs),
(1035,1218,o),
(867,1400,o),
(583,1400,cs)
);
},
{
closed = 1;
nodes = (
(426,715,l),
(426,1048,l),
(583,1048,ls),
(658,1048,o),
(697,989,o),
(697,885,cs),
(697,777,o),
(658,715,o),
(583,715,cs)
);
},
{
closed = 1;
nodes = (
(679,0,l),
(1071,0,l),
(830,529,l),
(494,529,l)
);
}
);
width = 1107;
},
{
layerId = "A31F2A1B-1434-479A-A47A-09846372A702";
shapes = (
{
closed = 1;
nodes = (
(184,1400,l),
(184,0,l),
(420,0,l),
(420,426,l),
(752,426,ls),
(1110,426,o),
(1316,608,o),
(1316,924,cs),
(1316,1226,o),
(1110,1400,o),
(752,1400,cs)
);
},
{
closed = 1;
nodes = (
(420,628,l),
(420,1198,l),
(752,1198,ls),
(968,1198,o),
(1092,1108,o),
(1092,918,cs),
(1092,722,o),
(968,628,o),
(752,628,cs)
);
},
{
closed = 1;
nodes = (
(1072,0,l),
(1340,0,l),
(992,518,l),
(760,518,l)
);
}
);
width = 1446;
},
{
layerId = "509FD652-F91B-436C-A4D5-5322A671A429";
shapes = (
{
closed = 1;
nodes = (
(134,1400,l),
(134,0,l),
(319,0,l),
(319,426,l),
(564,426,ls),
(833,426,o),
(991,608,o),
(991,924,cs),
(991,1226,o),
(833,1400,o),
(564,1400,cs)
);
},
{
closed = 1;
nodes = (
(319,628,l),
(319,1198,l),
(564,1198,ls),
(726,1198,o),
(815,1108,o),
(815,918,cs),
(815,722,o),
(726,628,o),
(564,628,cs)
);
},
{
closed = 1;
nodes = (
(804,0,l),
(1005,0,l),
(744,518,l),
(570,518,l)
);
}
);
width = 1085;
},
{
layerId = "AD6BCF41-EF37-4505-B0B8-48EA3C63FE3E";
shapes = (
{
closed = 1;
nodes = (
(256,1400,l),
(256,0,l),
(296,0,l),
(296,481,l),
(731,481,ls),
(1071,481,o),
(1266,651,o),
(1266,945,cs),
(1266,1234,o),
(1071,1400,o),
(731,1400,cs)
);
},
{
closed = 1;
nodes = (
(296,521,l),
(296,1360,l),
(731,1360,ls),
(1045,1360,o),
(1226,1210,o),
(1226,945,cs),
(1226,675,o),
(1045,521,o),
(731,521,cs)
);
},
{
closed = 1;
nodes = (
(1216,0,l),
(1266,0,l),
(895,509,l),
(845,509,l)
);
}
);
width = 1446;
},
{
layerId = "8F81F910-5DBA-457E-82E0-752C82078E80";
shapes = (
{
closed = 1;
nodes = (
(188,1400,l),
(188,0,l),
(226,0,l),
(226,481,l),
(548,481,ls),
(803,481,o),
(954,651,o),
(954,945,cs),
(954,1234,o),
(803,1400,o),
(548,1400,cs)
);
},
{
closed = 1;
nodes = (
(226,521,l),
(226,1360,l),
(548,1360,ls),
(784,1360,o),
(916,1210,o),
(916,945,cs),
(916,675,o),
(784,521,o),
(548,521,cs)
);
},
{
closed = 1;
nodes = (
(912,0,l),
(950,0,l),
(671,509,l),
(634,509,l)
);
}
);
width = 1085;
}
);
leftKerningGroup = H;
rightKerningGroup = R;
unicode = 82;
},
{
glyphname = S;
layers = (
{
anchors = (
{
name = bottom;
position = "{688, 0}";
},
{
name = top;
position = "{716, 1400}";
}
);
layerId = "CBB0ADCE-2C6B-4C18-8CFE-465C501777A2";
shapes = (
{
closed = 1;
nodes = (
(1316,1268,l),
(1158,1368,o),
(929,1436,o),
(707,1436,cs),
(343,1436,o),
(108,1258,o),
(108,975,cs),
(108,473,o),
(833,597,o),
(833,407,cs),
(833,353,o),
(789,330,o),
(721,330,cs),
(579,330,o),
(332,427,o),
(188,551,c),
(16,202,l),
(202,58,o),
(473,-26,o),
(717,-26,cs),
(1032,-26,o),
(1306,116,o),
(1306,431,cs),
(1306,947,o),
(581,833,o),
(581,1018,cs),
(581,1062,o),
(615,1080,o),
(667,1080,cs),
(789,1080,o),
(1006,997,o),
(1148,915,c)
);
}
);
width = 1326;
},
{
anchors = (
{
name = bottom;
position = "{516, 0}";
},
{
name = top;
position = "{537, 1400}";
}
);
layerId = "EBC752C6-95D9-4DED-AD5D-85333C04496E";
shapes = (
{
closed = 1;
nodes = (
(987,1268,l),
(869,1368,o),
(697,1436,o),
(530,1436,cs),
(257,1436,o),
(77,1258,o),
(77,975,cs),
(77,473,o),
(621,597,o),
(621,407,cs),
(621,353,o),
(592,330,o),
(541,330,cs),
(434,330,o),
(249,427,o),
(141,551,c),
(12,202,l),
(152,58,o),
(355,-26,o),
(538,-26,cs),
(774,-26,o),
(984,116,o),
(984,431,cs),
(984,947,o),
(440,833,o),
(440,1018,cs),
(440,1062,o),
(461,1080,o),
(500,1080,cs),
(592,1080,o),
(755,997,o),
(861,915,c)
);
}
);
width = 995;
},
{
anchors = (
{
name = bottom;
position = "{632, 0}";
},
{
name = top;
position = "{638, 1400}";
}
);
layerId = "A31F2A1B-1434-479A-A47A-09846372A702";
shapes = (
{
closed = 1;
nodes = (
(1134,1274,l),
(992,1368,o),
(814,1418,o),
(644,1418,cs),
(404,1418,o),
(134,1310,o),
(134,1030,cs),
(134,526,o),
(890,706,o),
(890,380,cs),
(890,238,o),
(744,198,o),
(628,198,cs),
(454,198,o),
(278,288,o),
(154,404,c),
(52,210,l),
(206,68,o),
(414,-14,o),
(624,-14,cs),
(874,-14,o),
(1152,104,o),
(1152,392,cs),
(1152,900,o),
(398,730,o),
(398,1048,cs),
(398,1170,o),
(526,1204,o),
(626,1204,cs),
(768,1204,o),
(916,1150,o),
(1036,1076,c)
);
}
);
width = 1244;
},
{
anchors = (
{
name = bottom;
position = "{474, 0}";
},
{
name = top;
position = "{479, 1400}";
}
);
layerId = "509FD652-F91B-436C-A4D5-5322A671A429";
shapes = (
{
closed = 1;
nodes = (
(851,1274,l),
(744,1368,o),
(611,1418,o),
(483,1418,cs),
(303,1418,o),
(97,1310,o),
(97,1030,cs),
(97,526,o),
(664,706,o),
(664,380,cs),
(664,238,o),
(558,198,o),
(471,198,cs),
(341,198,o),
(209,288,o),
(116,404,c),
(39,210,l),
(155,68,o),
(311,-14,o),
(468,-14,cs),
(656,-14,o),
(868,104,o),
(868,392,cs),
(868,900,o),
(303,730,o),
(303,1048,cs),
(303,1170,o),
(395,1204,o),
(470,1204,cs),
(576,1204,o),
(687,1150,o),
(777,1076,c)
);
}
);
width = 933;
},
{
anchors = (
{
name = bottom;
position = "{594, 0}";
},
{
name = top;
position = "{574, 1400}";
}
);
layerId = "AD6BCF41-EF37-4505-B0B8-48EA3C63FE3E";
shapes = (
{
closed = 1;
nodes = (
(978,1306,l),
(874,1372,o),
(730,1408,o),
(604,1408,cs),
(410,1408,o),
(158,1330,o),
(158,1096,cs),
(158,580,o),
(996,826,o),
(996,338,cs),
(996,108,o),
(752,34,o),
(560,34,cs),
(398,34,o),
(222,100,o),
(110,220,c),
(82,192,l),
(202,68,o),
(388,-6,o),
(560,-6,cs),
(776,-6,o),
(1036,82,o),
(1036,338,cs),
(1036,866,o),
(198,620,o),
(198,1094,cs),
(198,1304,o),
(434,1368,o),
(604,1368,cs),
(722,1368,o),
(860,1338,o),
(958,1274,c)
);
}
);
width = 1188;
},
{
anchors = (
{
name = bottom;
position = "{446, 0}";
},
{
name = top;
position = "{431, 1400}";
}
);
layerId = "8F81F910-5DBA-457E-82E0-752C82078E80";
shapes = (
{
closed = 1;
nodes = (
(734,1306,l),
(656,1372,o),
(548,1408,o),
(453,1408,cs),
(308,1408,o),
(115,1330,o),
(115,1096,cs),
(115,580,o),
(743,826,o),
(743,338,cs),
(743,108,o),
(564,34,o),
(420,34,cs),
(299,34,o),
(167,100,o),
(83,220,c),
(62,192,l),
(152,68,o),
(291,-6,o),
(420,-6,cs),
(582,-6,o),
(781,82,o),
(781,338,cs),
(781,866,o),
(153,620,o),
(153,1094,cs),
(153,1304,o),
(326,1368,o),
(453,1368,cs),
(542,1368,o),
(645,1338,o),
(719,1274,c)
);
}
);
width = 891;
}
);
leftKerningGroup = S;
rightKerningGroup = S;
unicode = 83;
},
{
glyphname = T;
layers = (
{
layerId = "15911918-BD0E-422E-8741-0FDE60C5A449";
name = "#instance";
shapes = (
{
closed = 1;
nodes = (
(20,1360,l),
(376,1360,l),
(376,0,l),
(414,0,l),
(414,1360,l),
(770,1360,l),
(770,1400,l),
(20,1400,l)
);
}
);
width = 791;
},
{
layerId = "CBB0ADCE-2C6B-4C18-8CFE-465C501777A2";
shapes = (
{
closed = 1;
nodes = (
(10,1034,l),
(407,1034,l),
(407,0,l),
(871,0,l),
(871,1034,l),
(1270,1034,l),
(1270,1400,l),
(10,1400,l)
);
}
);
width = 1280;
},
{
layerId = "EBC752C6-95D9-4DED-AD5D-85333C04496E";
shapes = (
{
closed = 1;
nodes = (
(8,1034,l),
(301,1034,l),
(301,0,l),
(657,0,l),
(657,1034,l),
(953,1034,l),
(953,1400,l),
(8,1400,l)
);
}
);
width = 960;
},
{
layerId = "A31F2A1B-1434-479A-A47A-09846372A702";
shapes = (
{
closed = 1;
nodes = (
(18,1198,l),
(460,1198,l),
(460,0,l),
(696,0,l),
(696,1198,l),
(1140,1198,l),
(1140,1400,l),
(18,1400,l)
);
}
);
width = 1158;
},
{
layerId = "509FD652-F91B-436C-A4D5-5322A671A429";
shapes = (
{
closed = 1;
nodes = (
(14,1198,l),
(341,1198,l),
(341,0,l),
(526,0,l),
(526,1198,l),
(855,1198,l),
(855,1400,l),
(14,1400,l)
);
}
);
width = 869;
},
{
layerId = "AD6BCF41-EF37-4505-B0B8-48EA3C63FE3E";
shapes = (
{
closed = 1;
nodes = (
(26,1360,l),
(507,1360,l),
(507,0,l),
(547,0,l),
(547,1360,l),
(1027,1360,l),
(1027,1400,l),
(26,1400,l)
);
}
);
width = 1054;
},
{
layerId = "8F81F910-5DBA-457E-82E0-752C82078E80";
shapes = (
{
closed = 1;
nodes = (
(20,1360,l),
(376,1360,l),
(376,0,l),
(414,0,l),
(414,1360,l),
(770,1360,l),
(770,1400,l),
(20,1400,l)
);
}
);
width = 791;
}
);
leftKerningGroup = T;
rightKerningGroup = T;
unicode = 84;
},
{
glyphname = U;
layers = (
{
anchors = (
{
name = bottom;
position = "{582, 0}";
},
{
name = ogonek;
position = "{851, 0}";
},
{
name = top;
position = "{582, 1400}";
},
{
name = topright;
position = "{983, 1400}";
}
);
layerId = "15911918-BD0E-422E-8741-0FDE60C5A449";
name = "#instance";
shapes = (
{
closed = 1;
nodes = (
(199,1400,l),
(161,1400,l),
(161,563,ls),
(161,200,o),
(317,-6,o),
(581,-6,cs),
(846,-6,o),
(1002,200,o),
(1002,563,cs),
(1002,1400,l),
(964,1400,l),
(964,563,ls),
(964,226,o),
(827,34,o),
(581,34,cs),
(337,34,o),
(199,226,o),
(199,563,cs)
);
}
);
width = 1163;
},
{
anchors = (
{
name = bottom;
position = "{740, 0}";
},
{
name = ogonek;
position = "{1216, 0}";
},
{
name = top;
position = "{740, 1400}";
},
{
name = topright;
position = "{1260, 1400}";
}
);
layerId = "CBB0ADCE-2C6B-4C18-8CFE-465C501777A2";
shapes = (
{
closed = 1;
nodes = (
(543,1400,l),
(80,1400,l),
(80,581,ls),
(80,210,o),
(345,-32,o),
(745,-32,cs),
(1142,-32,o),
(1400,210,o),
(1400,581,cs),
(1400,1400,l),
(937,1400,l),
(937,581,ls),
(937,441,o),
(853,353,o),
(747,353,cs),
(639,353,o),
(543,443,o),
(543,581,cs)
);
}
);
width = 1480;
},
{
anchors = (
{
name = bottom;
position = "{555, 0}";
},
{
name = ogonek;
position = "{912, 0}";
},
{
name = top;
position = "{555, 1400}";
},
{
name = topright;
position = "{945, 1400}";
}
);
layerId = "EBC752C6-95D9-4DED-AD5D-85333C04496E";
shapes = (
{
closed = 1;
nodes = (
(411,1400,l),
(56,1400,l),
(56,581,ls),
(56,210,o),
(259,-32,o),
(559,-32,cs),
(857,-32,o),
(1054,210,o),
(1054,581,cs),
(1054,1400,l),
(699,1400,l),
(699,581,ls),
(699,441,o),
(640,353,o),
(560,353,cs),
(479,353,o),
(411,443,o),
(411,581,cs)
);
}
);
width = 1110;
},
{
anchors = (
{
name = bottom;
position = "{760, 0}";
},
{
name = ogonek;
position = "{1152, 0}";
},
{
name = top;
position = "{760, 1400}";
},
{
name = topright;
position = "{1302, 1400}";
}
);
layerId = "A31F2A1B-1434-479A-A47A-09846372A702";
shapes = (
{
closed = 1;
nodes = (
(392,1400,l),
(156,1400,l),
(156,574,ls),
(156,208,o),
(386,-16,o),
(762,-16,cs),
(1134,-16,o),
(1362,208,o),
(1362,574,cs),
(1362,1400,l),
(1126,1400,l),
(1126,574,ls),
(1126,328,o),
(986,184,o),
(762,184,cs),
(536,184,o),
(392,330,o),
(392,574,cs)
);
}
);
width = 1518;
},
{
anchors = (
{
name = bottom;
position = "{570, 0}";
},
{
name = ogonek;
position = "{864, 0}";
},
{
name = top;
position = "{570, 1400}";
},
{
name = topright;
position = "{977, 1400}";
}
);
layerId = "509FD652-F91B-436C-A4D5-5322A671A429";
shapes = (
{
closed = 1;
nodes = (
(298,1400,l),
(113,1400,l),
(113,574,ls),
(113,208,o),
(290,-16,o),
(572,-16,cs),
(851,-16,o),
(1026,208,o),
(1026,574,cs),
(1026,1400,l),
(841,1400,l),
(841,574,ls),
(841,328,o),
(740,184,o),
(572,184,cs),
(402,184,o),
(298,330,o),
(298,574,cs)
);
}
);
width = 1139;
},
{
anchors = (
{
name = bottom;
position = "{776, 0}";
},
{
name = ogonek;
position = "{1134, 0}";
},
{
name = top;
position = "{776, 1400}";
},
{
name = topright;
position = "{1310, 1400}";
}
);
layerId = "AD6BCF41-EF37-4505-B0B8-48EA3C63FE3E";
shapes = (
{
closed = 1;
nodes = (
(260,1400,l),
(220,1400,l),
(220,563,ls),
(220,200,o),
(423,-6,o),
(775,-6,cs),
(1128,-6,o),
(1330,200,o),
(1330,563,cs),
(1330,1400,l),
(1290,1400,l),
(1290,563,ls),
(1290,226,o),
(1102,34,o),
(775,34,cs),
(449,34,o),
(260,226,o),
(260,563,cs)
);
}
);
width = 1550;
},
{
anchors = (
{
name = bottom;
position = "{582, 0}";
},
{
name = ogonek;
position = "{851, 0}";
},
{
name = top;
position = "{582, 1400}";
},
{
name = topright;
position = "{983, 1400}";
}
);
layerId = "8F81F910-5DBA-457E-82E0-752C82078E80";
shapes = (
{
closed = 1;
nodes = (
(199,1400,l),
(161,1400,l),
(161,563,ls),
(161,200,o),
(317,-6,o),
(581,-6,cs),
(846,-6,o),
(1002,200,o),
(1002,563,cs),
(1002,1400,l),
(964,1400,l),
(964,563,ls),
(964,226,o),
(827,34,o),
(581,34,cs),
(337,34,o),
(199,226,o),
(199,563,cs)
);
}
);
width = 1163;
}
);
leftKerningGroup = U;
rightKerningGroup = U;
unicode = 85;
},
{
glyphname = V;
layers = (
{
anchors = (
{
name = top;
position = "{470, 1398}";
}
);
layerId = "15911918-BD0E-422E-8741-0FDE60C5A449";
name = "#instance";
shapes = (
{
closed = 1;
nodes = (
(449,0,l),
(490,0,l),
(930,1400,l),
(886,1400,l),
(470,46,l),
(54,1400,l),
(11,1400,l)
);
}
);
width = 941;
},
{
anchors = (
{
name = top;
position = "{763, 1400}";
}
);
layerId = "CBB0ADCE-2C6B-4C18-8CFE-465C501777A2";
shapes = (
{
closed = 1;
nodes = (
(522,0,l),
(1000,0,l),
(1536,1400,l),
(1062,1400,l),
(774,482,l),
(486,1400,l),
(-10,1400,l)
);
}
);
width = 1526;
},
{
anchors = (
{
name = top;
position = "{572, 1400}";
}
);
layerId = "EBC752C6-95D9-4DED-AD5D-85333C04496E";
shapes = (
{
closed = 1;
nodes = (
(388,0,l),
(754,0,l),
(1156,1400,l),
(793,1400,l),
(581,482,l),
(369,1400,l),
(-12,1400,l)
);
}
);
width = 1145;
},
{
anchors = (
{
name = top;
position = "{690, 1400}";
}
);
layerId = "A31F2A1B-1434-479A-A47A-09846372A702";
shapes = (
{
closed = 1;
nodes = (
(564,0,l),
(808,0,l),
(1374,1400,l),
(1128,1400,l),
(692,248,l),
(260,1400,l),
(6,1400,l)
);
}
);
width = 1380;
},
{
anchors = (
{
name = top;
position = "{518, 1400}";
}
);
layerId = "509FD652-F91B-436C-A4D5-5322A671A429";
shapes = (
{
closed = 1;
nodes = (
(419,0,l),
(610,0,l),
(1035,1400,l),
(842,1400,l),
(519,248,l),
(199,1400,l),
(1,1400,l)
);
}
);
width = 1035;
},
{
anchors = (
{
name = top;
position = "{626, 1398}";
}
);
layerId = "AD6BCF41-EF37-4505-B0B8-48EA3C63FE3E";
shapes = (
{
closed = 1;
nodes = (
(604,0,l),
(648,0,l),
(1234,1400,l),
(1186,1400,l),
(626,46,l),
(66,1400,l),
(20,1400,l)
);
}
);
width = 1254;
},
{
anchors = (
{
name = top;
position = "{470, 1398}";
}
);
layerId = "8F81F910-5DBA-457E-82E0-752C82078E80";
shapes = (
{
closed = 1;
nodes = (
(449,0,l),
(490,0,l),
(930,1400,l),
(886,1400,l),
(470,46,l),
(54,1400,l),
(11,1400,l)
);
}
);
width = 941;
}
);
leftKerningGroup = V;
rightKerningGroup = V;
unicode = 86;
},
{
glyphname = W;
layers = (
{
layerId = "15911918-BD0E-422E-8741-0FDE60C5A449";
name = "#instance";
shapes = (
{
closed = 1;
nodes = (
(367,0,l),
(407,0,l),
(750,1362,l),
(733,1362,l),
(1076,0,l),
(1116,0,l),
(1472,1400,l),
(1429,1400,l),
(1088,28,l),
(1106,28,l),
(763,1400,l),
(720,1400,l),
(379,28,l),
(396,28,l),
(54,1400,l),
(11,1400,l)
);
}
);
width = 1482;
},
{
layerId = "8C75F867-62D3-4C1B-937F-857A966C4583";
associatedMasterId = "CBB0ADCE-2C6B-4C18-8CFE-465C501777A2";
name = "Nov 24 16, 19:29";
shapes = (
{
closed = 1;
nodes = (
(444,0,l),
(922,0,l),
(1122,838,l),
(1316,0,l),
(1794,0,l),
(2252,1402,l),
(1778,1402,l),
(1570,482,l),
(1358,1402,l),
(906,1402,l),
(698,482,l),
(486,1402,l),
(-10,1402,l)
);
}
);
width = 2242;
},
{
layerId = "CBB0ADCE-2C6B-4C18-8CFE-465C501777A2";
shapes = (
{
closed = 1;
nodes = (
(459,0,l),
(935,0,l),
(1200,1032,l),
(1100,1032,l),
(1360,0,l),
(1835,0,l),
(2309,1400,l),
(1835,1400,l),
(1566,286,l),
(1662,286,l),
(1386,1400,l),
(935,1400,l),
(663,286,l),
(759,286,l),
(485,1400,l),
(-10,1400,l)
);
}
);
width = 2298;
},
{
layerId = "EBC752C6-95D9-4DED-AD5D-85333C04496E";
shapes = (
{
closed = 1;
nodes = (
(340,0,l),
(705,0,l),
(904,1032,l),
(821,1032,l),
(1016,0,l),
(1380,0,l),
(1736,1400,l),
(1372,1400,l),
(1171,286,l),
(1252,286,l),
(1045,1400,l),
(697,1400,l),
(493,286,l),
(573,286,l),
(368,1400,l),
(-12,1400,l)
);
}
);
width = 1724;
},
{
layerId = "8A02C6FF-45CE-4715-B89B-68C5D7066590";
associatedMasterId = "A31F2A1B-1434-479A-A47A-09846372A702";
name = "Nov 24 16, 19:29";
shapes = (
{
closed = 1;
nodes = (
(470,0,l),
(714,0,l),
(1050,1110,l),
(1382,0,l),
(1624,0,l),
(2092,1400,l),
(1848,1400,l),
(1510,248,l),
(1170,1400,l),
(938,1400,l),
(600,248,l),
(260,1400,l),
(6,1400,l)
);
}
);
width = 2072;
},
{
layerId = "A31F2A1B-1434-479A-A47A-09846372A702";
shapes = (
{
closed = 1;
nodes = (
(478,0,l),
(720,0,l),
(1094,1208,l),
(1034,1210,l),
(1402,0,l),
(1646,0,l),
(2120,1400,l),
(1876,1400,l),
(1502,148,l),
(1562,148,l),
(1184,1400,l),
(952,1400,l),
(576,148,l),
(636,148,l),
(260,1400,l),
(6,1400,l)
);
}
);
width = 2126;
},
{
layerId = "509FD652-F91B-436C-A4D5-5322A671A429";
shapes = (
{
closed = 1;
nodes = (
(355,0,l),
(544,0,l),
(825,1208,l),
(772,1210,l),
(1048,0,l),
(1239,0,l),
(1594,1400,l),
(1403,1400,l),
(1123,148,l),
(1177,148,l),
(893,1400,l),
(710,1400,l),
(428,148,l),
(481,148,l),
(199,1400,l),
(1,1400,l)
);
}
);
width = 1595;
},
{
layerId = "AD6BCF41-EF37-4505-B0B8-48EA3C63FE3E";
shapes = (
{
closed = 1;
nodes = (
(495,0,l),
(537,0,l),
(995,1362,l),
(983,1362,l),
(1440,0,l),
(1482,0,l),
(1957,1400,l),
(1911,1400,l),
(1456,28,l),
(1468,28,l),
(1011,1400,l),
(965,1400,l),
(511,28,l),
(523,28,l),
(66,1400,l),
(20,1400,l)
);
}
);
width = 1976;
},
{
layerId = "8F81F910-5DBA-457E-82E0-752C82078E80";
shapes = (
{
closed = 1;
nodes = (
(367,0,l),
(407,0,l),
(750,1362,l),
(733,1362,l),
(1076,0,l),
(1116,0,l),
(1472,1400,l),
(1429,1400,l),
(1088,28,l),
(1106,28,l),
(763,1400,l),
(720,1400,l),
(379,28,l),
(396,28,l),
(54,1400,l),
(11,1400,l)
);
}
);
width = 1482;
}
);
leftKerningGroup = V;
rightKerningGroup = V;
unicode = 87;
},
{
glyphname = X;
layers = (
{
layerId = "15911918-BD0E-422E-8741-0FDE60C5A449";
name = "#instance";
shapes = (
{
closed = 1;
nodes = (
(433,726,l),
(46,0,l),
(90,0,l),
(459,692,l),
(832,0,l),
(876,0,l),
(485,726,l),
(847,1400,l),
(803,1400,l),
(459,760,l),
(118,1400,l),
(74,1400,l)
);
}
);
width = 936;
},
{
layerId = "CBB0ADCE-2C6B-4C18-8CFE-465C501777A2";
shapes = (
{
closed = 1;
nodes = (
(482,710,l),
(-10,0,l),
(532,0,l),
(762,362,l),
(998,0,l),
(1554,0,l),
(1058,732,l),
(1512,1400,l),
(966,1400,l),
(762,1070,l),
(560,1400,l),
(20,1400,l)
);
}
);
width = 1544;
},
{
layerId = "EBC752C6-95D9-4DED-AD5D-85333C04496E";
shapes = (
{
closed = 1;
nodes = (
(354,710,l),
(-12,0,l),
(403,0,l),
(572,362,l),
(745,0,l),
(1170,0,l),
(802,732,l),
(1138,1400,l),
(721,1400,l),
(572,1070,l),
(424,1400,l),
(11,1400,l)
);
}
);
width = 1158;
},
{
layerId = "A31F2A1B-1434-479A-A47A-09846372A702";
shapes = (
{
closed = 1;
nodes = (
(540,718,l),
(30,0,l),
(306,0,l),
(682,540,l),
(1060,0,l),
(1342,0,l),
(832,728,l),
(1302,1400,l),
(1026,1400,l),
(682,902,l),
(340,1400,l),
(66,1400,l)
);
}
);
width = 1384;
},
{
layerId = "509FD652-F91B-436C-A4D5-5322A671A429";
shapes = (
{
closed = 1;
nodes = (
(397,718,l),
(19,0,l),
(234,0,l),
(512,540,l),
(791,0,l),
(1011,0,l),
(632,728,l),
(981,1400,l),
(766,1400,l),
(512,902,l),
(259,1400,l),
(46,1400,l)
);
}
);
width = 1038;
},
{
layerId = "128FC51F-CE8A-4536-87C9-957B27A99AE7";
associatedMasterId = "AD6BCF41-EF37-4505-B0B8-48EA3C63FE3E";
name = "Light Mar 13 12, 18:48";
shapes = (
{
closed = 1;
nodes = (
(70,0,l),
(118,0,l),
(1126,1398,l),
(1078,1398,l)
);
},
{
closed = 1;
nodes = (
(1116,0,l),
(1164,0,l),
(156,1398,l),
(108,1398,l)
);
}
);
width = 1234;
},
{
layerId = "AD6BCF41-EF37-4505-B0B8-48EA3C63FE3E";
shapes = (
{
closed = 1;
nodes = (
(588,726,l),
(66,0,l),
(114,0,l),
(612,692,l),
(1114,0,l),
(1162,0,l),
(636,726,l),
(1124,1400,l),
(1076,1400,l),
(612,760,l),
(152,1400,l),
(104,1400,l)
);
}
);
width = 1248;
},
{
layerId = "8F81F910-5DBA-457E-82E0-752C82078E80";
shapes = (
{
closed = 1;
nodes = (
(433,726,l),
(46,0,l),
(90,0,l),
(459,692,l),
(832,0,l),
(876,0,l),
(485,726,l),
(847,1400,l),
(803,1400,l),
(459,760,l),
(118,1400,l),
(74,1400,l)
);
}
);
width = 936;
}
);
leftKerningGroup = X;
rightKerningGroup = X;
unicode = 88;
},
{
glyphname = Y;
layers = (
{
layerId = "15911918-BD0E-422E-8741-0FDE60C5A449";
name = "#instance";
shapes = (
{
closed = 1;
nodes = (
(450,517,l),
(468,517,l),
(901,1400,l),
(855,1400,l),
(457,579,l),
(55,1400,l),
(11,1400,l)
);
},
{
closed = 1;
nodes = (
(439,0,l),
(477,0,l),
(477,555,l),
(439,555,l)
);
}
);
width = 911;
},
{
layerId = "CBB0ADCE-2C6B-4C18-8CFE-465C501777A2";
shapes = (
{
closed = 1;
nodes = (
(693,40,l),
(749,40,l),
(1456,1400,l),
(995,1400,l),
(723,861,l),
(441,1400,l),
(-20,1400,l)
);
},
{
closed = 1;
nodes = (
(491,0,l),
(955,0,l),
(955,633,l),
(491,633,l)
);
}
);
width = 1436;
},
{
layerId = "EBC752C6-95D9-4DED-AD5D-85333C04496E";
shapes = (
{
closed = 1;
nodes = (
(516,40,l),
(567,40,l),
(1097,1400,l),
(741,1400,l),
(541,861,l),
(335,1400,l),
(-19,1400,l)
);
},
{
closed = 1;
nodes = (
(364,0,l),
(720,0,l),
(720,633,l),
(364,633,l)
);
}
);
width = 1077;
},
{
layerId = "A31F2A1B-1434-479A-A47A-09846372A702";
shapes = (
{
closed = 1;
nodes = (
(622,296,l),
(656,296,l),
(1272,1400,l),
(1032,1400,l),
(640,708,l),
(240,1400,l),
(2,1400,l)
);
},
{
closed = 1;
nodes = (
(524,0,l),
(758,0,l),
(758,590,l),
(524,590,l)
);
}
);
width = 1274;
},
{
layerId = "509FD652-F91B-436C-A4D5-5322A671A429";
shapes = (
{
closed = 1;
nodes = (
(463,296,l),
(497,296,l),
(959,1400,l),
(769,1400,l),
(479,708,l),
(184,1400,l),
(-2,1400,l)
);
},
{
closed = 1;
nodes = (
(389,0,l),
(573,0,l),
(573,590,l),
(389,590,l)
);
}
);
width = 956;
},
{
layerId = "AD6BCF41-EF37-4505-B0B8-48EA3C63FE3E";
shapes = (
{
closed = 1;
nodes = (
(605,517,l),
(617,517,l),
(1194,1400,l),
(1146,1400,l),
(611,579,l),
(68,1400,l),
(20,1400,l)
);
},
{
closed = 1;
nodes = (
(591,0,l),
(631,0,l),
(631,555,l),
(591,555,l)
);
}
);
width = 1214;
},
{
layerId = "8F81F910-5DBA-457E-82E0-752C82078E80";
shapes = (
{
closed = 1;
nodes = (
(450,517,l),
(468,517,l),
(901,1400,l),
(855,1400,l),
(457,579,l),
(55,1400,l),
(11,1400,l)
);
},
{
closed = 1;
nodes = (
(439,0,l),
(477,0,l),
(477,555,l),
(439,555,l)
);
}
);
width = 911;
}
);
leftKerningGroup = Y;
rightKerningGroup = Y;
unicode = 89;
},
{
glyphname = Z;
layers = (
{
layerId = "15911918-BD0E-422E-8741-0FDE60C5A449";
name = "#instance";
shapes = (
{
closed = 1;
nodes = (
(99,1360,l),
(856,1360,l),
(78,50,l),
(78,0,l),
(899,0,l),
(899,40,l),
(116,40,l),
(894,1350,l),
(894,1400,l),
(99,1400,l)
);
}
);
width = 977;
},
{
layerId = "CBB0ADCE-2C6B-4C18-8CFE-465C501777A2";
shapes = (
{
closed = 1;
nodes = (
(64,1044,l),
(693,1044,l),
(40,290,l),
(40,0,l),
(1324,0,l),
(1324,355,l),
(657,355,l),
(1310,1110,l),
(1310,1400,l),
(64,1400,l)
);
}
);
width = 1364;
},
{
layerId = "EBC752C6-95D9-4DED-AD5D-85333C04496E";
shapes = (
{
closed = 1;
nodes = (
(48,1044,l),
(512,1044,l),
(30,290,l),
(30,0,l),
(993,0,l),
(993,355,l),
(501,355,l),
(983,1110,l),
(983,1400,l),
(48,1400,l)
);
}
);
width = 1023;
},
{
layerId = "A31F2A1B-1434-479A-A47A-09846372A702";
shapes = (
{
closed = 1;
nodes = (
(100,1198,l),
(928,1198,l),
(74,160,l),
(74,0,l),
(1256,0,l),
(1256,202,l),
(394,202,l),
(1246,1240,l),
(1246,1400,l),
(100,1400,l)
);
}
);
width = 1332;
},
{
layerId = "509FD652-F91B-436C-A4D5-5322A671A429";
shapes = (
{
closed = 1;
nodes = (
(75,1198,l),
(688,1198,l),
(56,160,l),
(56,0,l),
(942,0,l),
(942,202,l),
(304,202,l),
(935,1240,l),
(935,1400,l),
(75,1400,l)
);
}
);
width = 999;
},
{
layerId = "AD6BCF41-EF37-4505-B0B8-48EA3C63FE3E";
shapes = (
{
closed = 1;
nodes = (
(132,1360,l),
(1152,1360,l),
(104,50,l),
(104,0,l),
(1198,0,l),
(1198,40,l),
(144,40,l),
(1192,1350,l),
(1192,1400,l),
(132,1400,l)
);
}
);
width = 1302;
},
{
layerId = "8F81F910-5DBA-457E-82E0-752C82078E80";
shapes = (
{
closed = 1;
nodes = (
(99,1360,l),
(856,1360,l),
(78,50,l),
(78,0,l),
(899,0,l),
(899,40,l),
(116,40,l),
(894,1350,l),
(894,1400,l),
(99,1400,l)
);
}
);
width = 977;
}
);
leftKerningGroup = Z;
rightKerningGroup = Z;
unicode = 90;
},
{
glyphname = bracketleft;
layers = (
{
layerId = "15911918-BD0E-422E-8741-0FDE60C5A449";
name = "#instance";
shapes = (
{
closed = 1;
nodes = (
(158,-248,l),
(386,-248,l),
(386,-208,l),
(196,-208,l),
(196,1444,l),
(386,1444,l),
(386,1484,l),
(158,1484,l)
);
}
);
width = 426;
},
{
layerId = "CBB0ADCE-2C6B-4C18-8CFE-465C501777A2";
shapes = (
{
closed = 1;
nodes = (
(108,-248,l),
(742,-248,l),
(742,84,l),
(508,84,l),
(508,1152,l),
(742,1152,l),
(742,1484,l),
(108,1484,l)
);
}
);
width = 762;
},
{
layerId = "EBC752C6-95D9-4DED-AD5D-85333C04496E";
shapes = (
{
closed = 1;
nodes = (
(77,-248,l),
(557,-248,l),
(557,84,l),
(385,84,l),
(385,1152,l),
(557,1152,l),
(557,1484,l),
(77,1484,l)
);
}
);
width = 572;
},
{
layerId = "A31F2A1B-1434-479A-A47A-09846372A702";
shapes = (
{
closed = 1;
nodes = (
(164,-248,l),
(618,-248,l),
(618,-74,l),
(370,-74,l),
(370,1310,l),
(618,1310,l),
(618,1484,l),
(164,1484,l)
);
}
);
width = 658;
},
{
layerId = "509FD652-F91B-436C-A4D5-5322A671A429";
shapes = (
{
closed = 1;
nodes = (
(119,-248,l),
(464,-248,l),
(464,-74,l),
(282,-74,l),
(282,1310,l),
(464,1310,l),
(464,1484,l),
(119,1484,l)
);
}
);
width = 494;
},
{
layerId = "AD6BCF41-EF37-4505-B0B8-48EA3C63FE3E";
shapes = (
{
closed = 1;
nodes = (
(216,-248,l),
(514,-248,l),
(514,-208,l),
(256,-208,l),
(256,1444,l),
(514,1444,l),
(514,1484,l),
(216,1484,l)
);
}
);
width = 568;
},
{
layerId = "8F81F910-5DBA-457E-82E0-752C82078E80";
shapes = (
{
closed = 1;
nodes = (
(158,-248,l),
(386,-248,l),
(386,-208,l),
(196,-208,l),
(196,1444,l),
(386,1444,l),
(386,1484,l),
(158,1484,l)
);
}
);
width = 426;
}
);
leftKerningGroup = bracketleft;
rightKerningGroup = braceleft;
unicode = 91;
},
{
glyphname = bracketright;
layers = (
{
layerId = "15911918-BD0E-422E-8741-0FDE60C5A449";
name = "#instance";
shapes = (
{
closed = 1;
nodes = (
(268,-248,l),
(41,-248,l),
(41,-208,l),
(230,-208,l),
(230,1444,l),
(41,1444,l),
(41,1484,l),
(268,1484,l)
);
}
);
width = 426;
},
{
layerId = "CBB0ADCE-2C6B-4C18-8CFE-465C501777A2";
shapes = (
{
closed = 1;
nodes = (
(654,-248,l),
(20,-248,l),
(20,84,l),
(254,84,l),
(254,1152,l),
(20,1152,l),
(20,1484,l),
(654,1484,l)
);
}
);
width = 762;
},
{
layerId = "EBC752C6-95D9-4DED-AD5D-85333C04496E";
shapes = (
{
closed = 1;
nodes = (
(495,-248,l),
(15,-248,l),
(15,84,l),
(187,84,l),
(187,1152,l),
(15,1152,l),
(15,1484,l),
(495,1484,l)
);
}
);
width = 572;
},
{
layerId = "A31F2A1B-1434-479A-A47A-09846372A702";
shapes = (
{
closed = 1;
nodes = (
(494,-248,l),
(40,-248,l),
(40,-74,l),
(288,-74,l),
(288,1310,l),
(40,1310,l),
(40,1484,l),
(494,1484,l)
);
}
);
width = 658;
},
{
layerId = "509FD652-F91B-436C-A4D5-5322A671A429";
shapes = (
{
closed = 1;
nodes = (
(375,-248,l),
(30,-248,l),
(30,-74,l),
(212,-74,l),
(212,1310,l),
(30,1310,l),
(30,1484,l),
(375,1484,l)
);
}
);
width = 494;
},
{
layerId = "AD6BCF41-EF37-4505-B0B8-48EA3C63FE3E";
shapes = (
{
closed = 1;
nodes = (
(352,-248,l),
(54,-248,l),
(54,-208,l),
(312,-208,l),
(312,1444,l),
(54,1444,l),
(54,1484,l),
(352,1484,l)
);
}
);
width = 568;
},
{
layerId = "8F81F910-5DBA-457E-82E0-752C82078E80";
shapes = (
{
closed = 1;
nodes = (
(268,-248,l),
(41,-248,l),
(41,-208,l),
(230,-208,l),
(230,1444,l),
(41,1444,l),
(41,1484,l),
(268,1484,l)
);
}
);
width = 426;
}
);
leftKerningGroup = braceright;
rightKerningGroup = bracketright;
unicode = 93;
},
{
glyphname = asciicircum;
layers = (
{
layerId = "15911918-BD0E-422E-8741-0FDE60C5A449";
name = "#instance";
shapes = (
{
closed = 1;
nodes = (
(382,1400,l),
(335,1400,l),
(56,600,l),
(97,600,l),
(359,1362,l),
(620,600,l),
(661,600,l)
);
}
);
width = 717;
},
{
layerId = "CBB0ADCE-2C6B-4C18-8CFE-465C501777A2";
shapes = (
{
closed = 1;
nodes = (
(788,1400,l),
(431,1400,l),
(61,640,l),
(373,640,l),
(610,1163,l),
(846,640,l),
(1158,640,l)
);
}
);
width = 1216;
},
{
layerId = "EBC752C6-95D9-4DED-AD5D-85333C04496E";
shapes = (
{
closed = 1;
nodes = (
(595,1400,l),
(319,1400,l),
(42,640,l),
(284,640,l),
(458,1163,l),
(631,640,l),
(873,640,l)
);
}
);
width = 912;
},
{
layerId = "A31F2A1B-1434-479A-A47A-09846372A702";
shapes = (
{
closed = 1;
nodes = (
(634,1400,l),
(442,1400,l),
(70,612,l),
(238,612,l),
(538,1258,l),
(836,612,l),
(1004,612,l)
);
}
);
width = 1074;
},
{
layerId = "509FD652-F91B-436C-A4D5-5322A671A429";
shapes = (
{
closed = 1;
nodes = (
(480,1400,l),
(328,1400,l),
(49,612,l),
(183,612,l),
(404,1258,l),
(623,612,l),
(757,612,l)
);
}
);
width = 806;
},
{
layerId = "AD6BCF41-EF37-4505-B0B8-48EA3C63FE3E";
shapes = (
{
closed = 1;
nodes = (
(504,1400,l),
(452,1400,l),
(80,600,l),
(124,600,l),
(478,1362,l),
(832,600,l),
(876,600,l)
);
}
);
width = 956;
},
{
layerId = "8F81F910-5DBA-457E-82E0-752C82078E80";
shapes = (
{
closed = 1;
nodes = (
(382,1400,l),
(335,1400,l),
(56,600,l),
(97,600,l),
(359,1362,l),
(620,600,l),
(661,600,l)
);
}
);
width = 717;
}
);
leftKerningGroup = asciicircum;
rightKerningGroup = asciicircum;
unicode = 94;
},
{
glyphname = underscore;
layers = (
{
layerId = "CBB0ADCE-2C6B-4C18-8CFE-465C501777A2";
shapes = (
{
closed = 1;
nodes = (
(0,-408,l),
(1198,-408,l),
(1198,-168,l),
(0,-168,l)
);
}
);
width = 1198;
},
{
layerId = "EBC752C6-95D9-4DED-AD5D-85333C04496E";
shapes = (
{
closed = 1;
nodes = (
(0,-408,l),
(899,-408,l),
(899,-168,l),
(0,-168,l)
);
}
);
width = 899;
},
{
layerId = "A31F2A1B-1434-479A-A47A-09846372A702";
shapes = (
{
closed = 1;
nodes = (
(0,-408,l),
(1132,-408,l),
(1132,-276,l),
(0,-276,l)
);
}
);
width = 1132;
},
{
layerId = "509FD652-F91B-436C-A4D5-5322A671A429";
shapes = (
{
closed = 1;
nodes = (
(0,-408,l),
(849,-408,l),
(849,-276,l),
(0,-276,l)
);
}
);
width = 849;
},
{
layerId = "AD6BCF41-EF37-4505-B0B8-48EA3C63FE3E";
shapes = (
{
closed = 1;
nodes = (
(0,-408,l),
(1074,-408,l),
(1074,-368,l),
(0,-368,l)
);
}
);
width = 1074;
},
{
layerId = "8F81F910-5DBA-457E-82E0-752C82078E80";
shapes = (
{
closed = 1;
nodes = (
(0,-408,l),
(806,-408,l),
(806,-368,l),
(0,-368,l)
);
}
);
width = 806;
}
);
leftKerningGroup = underscore;
rightKerningGroup = underscore;
unicode = 95;
},
{
glyphname = a;
layers = (
{
anchors = (
{
name = bottom;
position = "{570, 0}";
},
{
name = ogonek;
position = "{1032, 0}";
},
{
name = top;
position = "{636, 1094}";
}
);
layerId = "CBB0ADCE-2C6B-4C18-8CFE-465C501777A2";
shapes = (
{
closed = 1;
nodes = (
(742,450,l),
(742,658,l),
(454,658,ls),
(176,658,o),
(30,540,o),
(30,324,cs),
(30,116,o),
(164,-20,o),
(396,-20,cs),
(582,-20,o),
(704,68,o),
(756,218,c),
(704,350,l),
(668,296,o),
(610,266,o),
(552,266,cs),
(488,266,o),
(452,302,o),
(452,362,cs),
(452,420,o),
(486,450,o),
(548,450,cs)
);
},
{
closed = 1;
nodes = (
(704,0,l),
(1146,0,l),
(1146,708,ls),
(1146,966,o),
(958,1114,o),
(642,1114,cs),
(480,1114,o),
(288,1076,o),
(102,1008,c),
(202,708,l),
(326,754,o),
(452,778,o),
(534,778,cs),
(646,778,o),
(704,732,o),
(704,654,cs)
);
}
);
width = 1226;
},
{
anchors = (
{
name = bottom;
position = "{428, 0}";
},
{
name = ogonek;
position = "{774, 0}";
},
{
name = top;
position = "{477, 1094}";
}
);
layerId = "EBC752C6-95D9-4DED-AD5D-85333C04496E";
shapes = (
{
closed = 1;
nodes = (
(557,450,l),
(557,658,l),
(341,658,ls),
(132,658,o),
(18,540,o),
(18,324,cs),
(18,116,o),
(123,-20,o),
(297,-20,cs),
(437,-20,o),
(528,68,o),
(567,218,c),
(528,350,l),
(501,296,o),
(458,266,o),
(414,266,cs),
(366,266,o),
(343,302,o),
(343,362,cs),
(343,420,o),
(365,450,o),
(411,450,cs)
);
},
{
closed = 1;
nodes = (
(521,0,l),
(861,0,l),
(864,708,ls),
(865,966,o),
(719,1114,o),
(482,1114,cs),
(360,1114,o),
(216,1076,o),
(77,1008,c),
(152,708,l),
(245,754,o),
(339,778,o),
(401,778,cs),
(485,778,o),
(524,732,o),
(524,654,cs)
);
}
);
width = 920;
},
{
anchors = (
{
name = bottom;
position = "{570, 0}";
},
{
name = ogonek;
position = "{1034, 0}";
},
{
name = top;
position = "{597, 1062}";
}
);
layerId = "A31F2A1B-1434-479A-A47A-09846372A702";
shapes = (
{
closed = 1;
nodes = (
(836,474,l),
(836,638,l),
(484,638,ls),
(228,638,o),
(82,512,o),
(82,320,cs),
(82,134,o),
(226,-10,o),
(456,-10,cs),
(646,-10,o),
(786,60,o),
(852,198,c),
(808,392,l),
(804,264,o),
(674,166,o),
(504,166,cs),
(376,166,o),
(298,230,o),
(298,328,cs),
(298,432,o),
(368,474,o),
(518,474,cs)
);
},
{
closed = 1;
nodes = (
(808,0,l),
(1034,0,l),
(1032,698,ls),
(1030,930,o),
(876,1070,o),
(602,1070,cs),
(400,1070,o),
(292,1022,o),
(144,932,c),
(238,784,l),
(344,856,o),
(450,894,o),
(552,894,cs),
(720,894,o),
(806,812,o),
(806,674,cs)
);
}
);
width = 1172;
},
{
anchors = (
{
name = bottom;
position = "{428, 0}";
},
{
name = ogonek;
position = "{776, 0}";
},
{
name = top;
position = "{448, 1062}";
}
);
layerId = "509FD652-F91B-436C-A4D5-5322A671A429";
shapes = (
{
closed = 1;
nodes = (
(627,474,l),
(627,638,l),
(363,638,ls),
(171,638,o),
(57,512,o),
(57,320,cs),
(57,134,o),
(170,-10,o),
(342,-10,cs),
(485,-10,o),
(590,60,o),
(639,198,c),
(606,392,l),
(603,264,o),
(506,166,o),
(378,166,cs),
(282,166,o),
(228,230,o),
(228,328,cs),
(228,432,o),
(276,474,o),
(389,474,cs)
);
},
{
closed = 1;
nodes = (
(599,0,l),
(777,0,l),
(778,698,ls),
(778,930,o),
(657,1070,o),
(452,1070,cs),
(300,1070,o),
(219,1022,o),
(108,932,c),
(179,784,l),
(258,856,o),
(338,894,o),
(414,894,cs),
(540,894,o),
(601,812,o),
(601,674,cs)
);
}
);
width = 879;
},
{
anchors = (
{
name = bottom;
position = "{570, 0}";
},
{
name = ogonek;
position = "{938, 0}";
},
{
name = top;
position = "{566, 1034}";
}
);
layerId = "AD6BCF41-EF37-4505-B0B8-48EA3C63FE3E";
shapes = (
{
closed = 1;
nodes = (
(916,524,l),
(916,564,l),
(510,564,ls),
(274,564,o),
(126,466,o),
(126,298,cs),
(126,126,o),
(262,0,o),
(462,0,cs),
(676,0,o),
(848,94,o),
(934,312,c),
(898,328,l),
(816,122,o),
(666,40,o),
(464,40,cs),
(282,40,o),
(166,146,o),
(166,298,cs),
(166,442,o),
(290,524,o),
(510,524,cs)
);
},
{
closed = 1;
nodes = (
(898,0,l),
(938,0,l),
(934,690,ls),
(932,900,o),
(804,1034,o),
(566,1034,cs),
(420,1034,o),
(296,974,o),
(180,882,c),
(204,850,l),
(316,938,o),
(428,994,o),
(566,994,cs),
(784,994,o),
(892,880,o),
(894,690,cs)
);
}
);
width = 1124;
},
{
anchors = (
{
name = bottom;
position = "{428, 0}";
},
{
name = ogonek;
position = "{704, 0}";
},
{
name = top;
position = "{425, 1034}";
}
);
layerId = "8F81F910-5DBA-457E-82E0-752C82078E80";
shapes = (
{
closed = 1;
nodes = (
(687,524,l),
(687,564,l),
(383,564,ls),
(206,564,o),
(90,466,o),
(90,298,cs),
(90,126,o),
(197,0,o),
(347,0,cs),
(507,0,o),
(636,94,o),
(701,312,c),
(674,328,l),
(612,122,o),
(500,40,o),
(348,40,cs),
(212,40,o),
(129,146,o),
(129,298,cs),
(129,442,o),
(218,524,o),
(383,524,cs)
);
},
{
closed = 1;
nodes = (
(667,0,l),
(705,0,l),
(705,690,ls),
(705,900,o),
(603,1034,o),
(425,1034,cs),
(315,1034,o),
(222,974,o),
(135,882,c),
(153,850,l),
(237,938,o),
(321,994,o),
(425,994,cs),
(588,994,o),
(667,880,o),
(667,690,cs)
);
}
);
width = 843;
}
);
leftKerningGroup = a;
rightKerningGroup = n;
unicode = 97;
},
{
glyphname = b;
layers = (
{
anchors = (
{
name = top;
position = "{337, 1487}";
}
);
layerId = "CBB0ADCE-2C6B-4C18-8CFE-465C501777A2";
shapes = (
{
closed = 1;
nodes = (
(596,1110,o),
(434,886,o),
(434,542,cs),
(434,204,o),
(602,-16,o),
(860,-16,cs),
(1158,-16,o),
(1350,202,o),
(1350,540,cs),
(1350,886,o),
(1152,1110,o),
(848,1110,cs)
);
},
{
closed = 1;
nodes = (
(832,764,o),
(896,680,o),
(896,552,cs),
(896,424,o),
(832,340,o),
(732,340,cs),
(634,340,o),
(570,424,o),
(570,552,cs),
(570,680,o),
(634,764,o),
(732,764,cs)
);
},
{
closed = 1;
nodes = (
(120,0,l),
(570,0,l),
(570,1484,l),
(120,1484,l)
);
}
);
width = 1380;
},
{
anchors = (
{
name = top;
position = "{253, 1487}";
}
);
layerId = "EBC752C6-95D9-4DED-AD5D-85333C04496E";
shapes = (
{
closed = 1;
nodes = (
(447,1110,o),
(326,886,o),
(326,542,cs),
(326,204,o),
(452,-16,o),
(645,-16,cs),
(869,-16,o),
(1017,202,o),
(1017,540,cs),
(1017,886,o),
(864,1110,o),
(636,1110,cs)
);
},
{
closed = 1;
nodes = (
(624,764,o),
(668,680,o),
(668,552,cs),
(668,424,o),
(624,340,o),
(549,340,cs),
(476,340,o),
(428,424,o),
(428,552,cs),
(428,680,o),
(476,764,o),
(549,764,cs)
);
},
{
closed = 1;
nodes = (
(86,0,l),
(432,0,l),
(432,1484,l),
(86,1484,l)
);
}
);
width = 1035;
},
{
anchors = (
{
name = top;
position = "{295, 1484}";
}
);
layerId = "A31F2A1B-1434-479A-A47A-09846372A702";
shapes = (
{
closed = 1;
nodes = (
(496,1070,o),
(324,870,o),
(326,528,cs),
(324,194,o),
(494,-8,o),
(786,-8,cs),
(1090,-8,o),
(1290,210,o),
(1290,528,cs),
(1290,850,o),
(1084,1070,o),
(782,1070,cs)
);
},
{
closed = 1;
nodes = (
(924,888,o),
(1058,738,o),
(1058,534,cs),
(1058,326,o),
(924,178,o),
(734,178,cs),
(544,178,o),
(410,324,o),
(410,534,cs),
(410,740,o),
(544,888,o),
(734,888,cs)
);
},
{
closed = 1;
nodes = (
(180,0,l),
(410,0,l),
(410,1484,l),
(180,1484,l)
);
}
);
width = 1360;
},
{
anchors = (
{
name = top;
position = "{221, 1484}";
}
);
layerId = "509FD652-F91B-436C-A4D5-5322A671A429";
shapes = (
{
closed = 1;
nodes = (
(372,1070,o),
(243,870,o),
(245,528,cs),
(243,194,o),
(371,-8,o),
(590,-8,cs),
(818,-8,o),
(972,210,o),
(972,528,cs),
(972,850,o),
(813,1070,o),
(587,1070,cs)
);
},
{
closed = 1;
nodes = (
(693,888,o),
(790,738,o),
(790,534,cs),
(790,326,o),
(693,178,o),
(551,178,cs),
(408,178,o),
(308,324,o),
(308,534,cs),
(308,740,o),
(408,888,o),
(551,888,cs)
);
},
{
closed = 1;
nodes = (
(131,0,l),
(312,0,l),
(312,1484,l),
(131,1484,l)
);
}
);
width = 1020;
},
{
anchors = (
{
name = top;
position = "{223, 1484}";
}
);
layerId = "AD6BCF41-EF37-4505-B0B8-48EA3C63FE3E";
shapes = (
{
closed = 1;
nodes = (
(416,1034,o),
(204,816,o),
(204,516,cs),
(204,218,o),
(416,0,o),
(706,0,cs),
(996,0,o),
(1208,218,o),
(1208,516,cs),
(1208,816,o),
(996,1034,o),
(706,1034,cs)
);
},
{
closed = 1;
nodes = (
(974,994,o),
(1168,792,o),
(1168,516,cs),
(1168,240,o),
(974,40,o),
(706,40,cs),
(438,40,o),
(244,240,o),
(244,516,cs),
(244,792,o),
(438,994,o),
(706,994,cs)
);
},
{
closed = 1;
nodes = (
(204,0,l),
(244,0,l),
(244,1484,l),
(204,1484,l)
);
}
);
width = 1312;
},
{
anchors = (
{
name = top;
position = "{167, 1484}";
}
);
layerId = "8F81F910-5DBA-457E-82E0-752C82078E80";
shapes = (
{
closed = 1;
nodes = (
(312,1034,o),
(153,816,o),
(153,516,cs),
(153,218,o),
(312,0,o),
(530,0,cs),
(747,0,o),
(910,218,o),
(910,516,cs),
(910,816,o),
(747,1034,o),
(530,1034,cs)
);
},
{
closed = 1;
nodes = (
(731,994,o),
(872,792,o),
(872,516,cs),
(872,240,o),
(731,40,o),
(530,40,cs),
(329,40,o),
(183,240,o),
(183,516,cs),
(183,792,o),
(329,994,o),
(530,994,cs)
);
},
{
closed = 1;
nodes = (
(149,0,l),
(187,0,l),
(187,1484,l),
(149,1484,l)
);
}
);
width = 984;
}
);
leftKerningGroup = l;
rightKerningGroup = o;
unicode = 98;
},
{
glyphname = c;
layers = (
{
anchors = (
{
name = bottom;
position = "{580, 0}";
},
{
name = top;
position = "{596, 1094}";
}
);
layerId = "CBB0ADCE-2C6B-4C18-8CFE-465C501777A2";
shapes = (
{
closed = 1;
nodes = (
(1126,794,l),
(1036,994,o),
(846,1110,o),
(608,1110,cs),
(258,1110,o),
(30,886,o),
(30,542,cs),
(30,204,o),
(256,-16,o),
(604,-16,cs),
(854,-16,o),
(1046,96,o),
(1126,290,c),
(762,458,l),
(738,376,o),
(692,340,o),
(628,340,cs),
(540,340,o),
(484,420,o),
(484,544,cs),
(484,666,o),
(540,746,o),
(628,746,cs),
(692,746,o),
(740,708,o),
(768,642,c)
);
}
);
width = 1122;
},
{
anchors = (
{
name = bottom;
position = "{435, 0}";
},
{
name = top;
position = "{447, 1094}";
}
);
layerId = "EBC752C6-95D9-4DED-AD5D-85333C04496E";
shapes = (
{
closed = 1;
nodes = (
(845,794,l),
(777,994,o),
(635,1110,o),
(456,1110,cs),
(194,1110,o),
(19,886,o),
(19,542,cs),
(19,204,o),
(192,-16,o),
(453,-16,cs),
(641,-16,o),
(785,96,o),
(845,290,c),
(572,458,l),
(554,376,o),
(519,340,o),
(471,340,cs),
(405,340,o),
(367,420,o),
(367,544,cs),
(367,666,o),
(405,746,o),
(471,746,cs),
(519,746,o),
(555,708,o),
(576,642,c)
);
}
);
width = 842;
},
{
anchors = (
{
name = bottom;
position = "{578, 0}";
},
{
name = top;
position = "{608, 1062}";
}
);
layerId = "A31F2A1B-1434-479A-A47A-09846372A702";
shapes = (
{
closed = 1;
nodes = (
(1046,906,l),
(948,1010,o),
(798,1070,o),
(606,1070,cs),
(290,1070,o),
(70,850,o),
(70,530,cs),
(70,210,o),
(290,-8,o),
(606,-8,cs),
(808,-8,o),
(962,62,o),
(1058,182,c),
(930,308,l),
(858,222,o),
(750,178,o),
(616,178,cs),
(432,178,o),
(300,320,o),
(300,530,cs),
(300,738,o),
(432,880,o),
(616,880,cs),
(744,880,o),
(846,834,o),
(920,758,c)
);
}
);
width = 1128;
},
{
anchors = (
{
name = bottom;
position = "{434, 0}";
},
{
name = top;
position = "{456, 1062}";
}
);
layerId = "509FD652-F91B-436C-A4D5-5322A671A429";
shapes = (
{
closed = 1;
nodes = (
(785,906,l),
(711,1010,o),
(599,1070,o),
(455,1070,cs),
(218,1070,o),
(49,850,o),
(49,530,cs),
(49,210,o),
(218,-8,o),
(455,-8,cs),
(606,-8,o),
(722,62,o),
(794,182,c),
(698,308,l),
(644,222,o),
(563,178,o),
(462,178,cs),
(324,178,o),
(229,320,o),
(229,530,cs),
(229,738,o),
(324,880,o),
(462,880,cs),
(558,880,o),
(635,834,o),
(690,758,c)
);
}
);
width = 846;
},
{
anchors = (
{
name = bottom;
position = "{578, 0}";
},
{
name = top;
position = "{558, 1034}";
}
);
layerId = "AD6BCF41-EF37-4505-B0B8-48EA3C63FE3E";
shapes = (
{
closed = 1;
nodes = (
(958,896,l),
(868,982,o),
(744,1034,o),
(606,1034,cs),
(318,1034,o),
(104,818,o),
(104,518,cs),
(104,216,o),
(318,0,o),
(606,0,cs),
(758,0,o),
(890,60,o),
(980,162,c),
(954,190,l),
(870,94,o),
(748,40,o),
(606,40,cs),
(338,40,o),
(142,236,o),
(142,518,cs),
(142,798,o),
(338,994,o),
(606,994,cs),
(736,994,o),
(846,946,o),
(932,868,c)
);
}
);
width = 1114;
},
{
anchors = (
{
name = bottom;
position = "{434, 0}";
},
{
name = top;
position = "{419, 1034}";
}
);
layerId = "8F81F910-5DBA-457E-82E0-752C82078E80";
shapes = (
{
closed = 1;
nodes = (
(719,896,l),
(651,982,o),
(558,1034,o),
(455,1034,cs),
(239,1034,o),
(74,818,o),
(74,518,cs),
(74,216,o),
(239,0,o),
(455,0,cs),
(569,0,o),
(668,60,o),
(735,162,c),
(716,190,l),
(653,94,o),
(561,40,o),
(455,40,cs),
(254,40,o),
(111,236,o),
(111,518,cs),
(111,798,o),
(254,994,o),
(455,994,cs),
(552,994,o),
(635,946,o),
(699,868,c)
);
}
);
width = 836;
}
);
leftKerningGroup = o;
rightKerningGroup = c;
unicode = 99;
},
